Light-clean.ufo
<glyph name="exclam" format="1">
  <advance width="234"/>
  <unicode hex="0021"/>
  <outline>
    <contour>
      <point x="149" y="54" type="curve"/>
      <point x="195.879" y="24.2614"/>
      <point x="122.601" y="-31.5163"/>
      <point x="86.5" y="4" type="curve"/>
      <point x="37.8431" y="33.7386"/>
      <point x="114.676" y="89.5163"/>
    </contour>
    <contour>
      <point x="96" y="616" type="line" smooth="yes"/>
      <point x="96" y="653.333"/>
      <point x="138" y="653.333"/>
      <point x="138" y="616" type="curve" smooth="yes"/>
      <point x="138" y="197" type="line" smooth="yes"/>
      <point x="138" y="159.667"/>
      <point x="96" y="159.667"/>
      <point x="96" y="197" type="curve" smooth="yes"/>
    </contour>
  </outline>
</glyph>
<glyph name="quotedbl" format="1">
  <advance width="285"/>
  <unicode hex="0022"/>
  <outline>
    <contour>
      <point x="214" y="466" type="line" smooth="yes"/>
      <point x="214" y="428.667"/>
      <point x="172" y="428.667"/>
      <point x="172" y="466" type="curve" smooth="yes"/>
      <point x="172" y="615" type="line" smooth="yes"/>
      <point x="172" y="652.333"/>
      <point x="214" y="652.333"/>
      <point x="214" y="615" type="curve" smooth="yes"/>
    </contour>
    <contour>
      <point x="112" y="466" type="line" smooth="yes"/>
      <point x="112" y="428.667"/>
      <point x="72.3333" y="428.667"/>
      <point x="71" y="466" type="curve"/>
      <point x="71" y="615" type="line"/>
      <point x="72.3333" y="652.333"/>
      <point x="112" y="652.333"/>
      <point x="112" y="615" type="curve" smooth="yes"/>
    </contour>
  </outline>
</glyph>
<glyph name="numbersign" format="1">
  <advance width="595"/>
  <unicode hex="0023"/>
  <outline>
    <contour>
      <point x="313" y="625" type="curve" smooth="yes"/>
      <point x="327" y="625"/>
      <point x="334" y="618.333"/>
      <point x="334" y="605" type="curve" smooth="yes"/>
      <point x="334" y="601"/>
      <point x="333" y="596"/>
      <point x="331" y="590" type="curve" smooth="yes"/>
      <point x="272" y="431" type="line"/>
      <point x="406" y="431" type="line"/>
      <point x="470" y="604" type="line" smooth="yes"/>
      <point x="475.333" y="618"/>
      <point x="482.667" y="625"/>
      <point x="492" y="625" type="curve"/>
      <point x="492.667" y="625"/>
      <point x="493.667" y="625"/>
      <point x="495" y="625" type="curve"/>
      <point x="499.667" y="625"/>
      <point x="503.667" y="623.333"/>
      <point x="507" y="620" type="curve" smooth="yes"/>
      <point x="515" y="612"/>
      <point x="514" y="600.667"/>
      <point x="510" y="590" type="curve" smooth="yes"/>
      <point x="452" y="431" type="line"/>
      <point x="522" y="431" type="line" smooth="yes"/>
      <point x="559.333" y="431"/>
      <point x="559.333" y="389"/>
      <point x="522" y="389" type="curve" smooth="yes"/>
      <point x="436" y="389" type="line"/>
      <point x="385" y="247" type="line"/>
      <point x="491" y="247" type="line" smooth="yes"/>
      <point x="528.333" y="247"/>
      <point x="528.333" y="205"/>
      <point x="491" y="205" type="curve" smooth="yes"/>
      <point x="370" y="205" type="line"/>
      <point x="306" y="32" type="line" smooth="yes"/>
      <point x="301.333" y="18"/>
      <point x="294" y="11"/>
      <point x="284" y="11" type="curve" smooth="yes"/>
      <point x="270" y="11"/>
      <point x="263" y="18"/>
      <point x="263" y="32" type="curve" smooth="yes"/>
      <point x="263" y="36"/>
      <point x="264" y="40.6667"/>
      <point x="266" y="46" type="curve" smooth="yes"/>
      <point x="325" y="205" type="line"/>
      <point x="190" y="205" type="line"/>
      <point x="127" y="32" type="line" smooth="yes"/>
      <point x="122.333" y="18"/>
      <point x="115" y="11"/>
      <point x="105" y="11" type="curve" smooth="yes"/>
      <point x="91.6667" y="11"/>
      <point x="85" y="17.6667"/>
      <point x="85" y="31" type="curve" smooth="yes"/>
      <point x="85" y="35"/>
      <point x="86" y="40"/>
      <point x="88" y="46" type="curve" smooth="yes"/>
      <point x="146" y="205" type="line"/>
      <point x="73" y="205" type="line" smooth="yes"/>
      <point x="35.6667" y="205"/>
      <point x="35.6667" y="247"/>
      <point x="73" y="247" type="curve" smooth="yes"/>
      <point x="162" y="247" type="line"/>
      <point x="213" y="389" type="line"/>
      <point x="103" y="389" type="line" smooth="yes"/>
      <point x="67" y="389"/>
      <point x="67" y="431"/>
      <point x="103" y="431" type="curve" smooth="yes"/>
      <point x="228" y="431" type="line"/>
      <point x="292" y="604" type="line" smooth="yes"/>
      <point x="296.667" y="618"/>
      <point x="303.667" y="625"/>
    </contour>
    <contour>
      <point x="257" y="389" type="line"/>
      <point x="206" y="247" type="line"/>
      <point x="340" y="247" type="line"/>
      <point x="391" y="389" type="line"/>
    </contour>
  </outline>
</glyph>
<glyph name="dollar" format="1">
  <advance width="567"/>
  <unicode hex="0024"/>
  <outline>
    <contour>
      <point x="156" y="91" type="line" smooth="yes"/>
      <point x="114.667" y="91"/>
      <point x="88.6667" y="101.667"/>
      <point x="78" y="123" type="curve" smooth="yes"/>
      <point x="66.6667" y="145"/>
      <point x="61" y="168.333"/>
      <point x="61" y="193" type="curve" smooth="yes"/>
      <point x="61" y="239.667"/>
      <point x="103" y="238.667"/>
      <point x="103" y="196" type="curve" smooth="yes"/>
      <point x="103" y="153.333"/>
      <point x="117.667" y="133"/>
      <point x="163" y="133" type="curve" smooth="yes"/>
      <point x="267" y="133" type="line"/>
      <point x="267" y="306" type="line"/>
      <point x="185" y="306" type="line" smooth="yes"/>
      <point x="102.333" y="306"/>
      <point x="61" y="348.667"/>
      <point x="61" y="434" type="curve" smooth="yes"/>
      <point x="61" y="511.333"/>
      <point x="95.6667" y="552"/>
      <point x="185" y="552" type="curve" smooth="yes"/>
      <point x="267" y="552" type="line"/>
      <point x="267" y="615" type="line" smooth="yes"/>
      <point x="267" y="652.333"/>
      <point x="309" y="652.333"/>
      <point x="309" y="615" type="curve" smooth="yes"/>
      <point x="309" y="552" type="line"/>
      <point x="410" y="552" type="line" smooth="yes"/>
      <point x="451.333" y="552"/>
      <point x="477.333" y="541.333"/>
      <point x="488" y="520" type="curve" smooth="yes"/>
      <point x="499.333" y="498"/>
      <point x="505" y="474.667"/>
      <point x="505" y="450" type="curve" smooth="yes"/>
      <point x="505" y="403.333"/>
      <point x="463" y="404.333"/>
      <point x="463" y="447" type="curve" smooth="yes"/>
      <point x="463" y="489.667"/>
      <point x="448.333" y="510"/>
      <point x="403" y="510" type="curve" smooth="yes"/>
      <point x="309" y="510" type="line"/>
      <point x="309" y="348" type="line"/>
      <point x="384" y="348" type="line" smooth="yes"/>
      <point x="466" y="348"/>
      <point x="507" y="303.333"/>
      <point x="507" y="214" type="curve" smooth="yes"/>
      <point x="507" y="132"/>
      <point x="466" y="91"/>
      <point x="384" y="91" type="curve" smooth="yes"/>
      <point x="309" y="91" type="line"/>
      <point x="309" y="20" type="line" smooth="yes"/>
      <point x="309" y="-16"/>
      <point x="267" y="-16"/>
      <point x="267" y="20" type="curve" smooth="yes"/>
      <point x="267" y="91" type="line"/>
    </contour>
    <contour>
      <point x="309" y="306" type="line"/>
      <point x="309" y="133" type="line"/>
      <point x="401" y="133" type="line" smooth="yes"/>
      <point x="443.667" y="133"/>
      <point x="465" y="160"/>
      <point x="465" y="214" type="curve" smooth="yes"/>
      <point x="465" y="270"/>
      <point x="438.333" y="306"/>
      <point x="401" y="306" type="curve" smooth="yes"/>
    </contour>
    <contour>
      <point x="267" y="348" type="line"/>
      <point x="267" y="510" type="line"/>
      <point x="167" y="510" type="line" smooth="yes"/>
      <point x="124.333" y="510"/>
      <point x="103" y="484.667"/>
      <point x="103" y="434" type="curve" smooth="yes"/>
      <point x="103" y="379.333"/>
      <point x="129.667" y="348"/>
      <point x="167" y="348" type="curve" smooth="yes"/>
    </contour>
  </outline>
</glyph>
<glyph name="percent" format="1">
  <advance width="540"/>
  <unicode hex="0025"/>
  <outline>
    <contour>
      <point x="382.5" y="218" type="curve" smooth="yes"/>
      <point x="336.696" y="218"/>
      <point x="336.696" y="148"/>
      <point x="382.5" y="148" type="curve" smooth="yes"/>
      <point x="427.206" y="148"/>
      <point x="427.206" y="218"/>
    </contour>
    <contour>
      <point x="327.5" y="129" type="curve"/>
      <point x="253.402" y="194.229"/>
      <point x="369.735" y="312.007"/>
      <point x="436.5" y="237" type="curve"/>
      <point x="510.598" y="171.771"/>
      <point x="394.265" y="53.9935"/>
    </contour>
    <contour>
      <point x="134.5" y="495.5" type="curve" smooth="yes"/>
      <point x="102.657" y="463.657"/>
      <point x="151.657" y="414.657"/>
      <point x="183.5" y="446.5" type="curve" smooth="yes"/>
      <point x="215.343" y="478.343"/>
      <point x="166.343" y="527.343"/>
    </contour>
    <contour>
      <point x="104" y="416.5" type="curve" smooth="yes"/>
      <point x="73.3333" y="446.5"/>
      <point x="73.3333" y="495.5"/>
      <point x="104" y="525.5" type="curve" smooth="yes"/>
      <point x="134.667" y="555.5"/>
      <point x="182.5" y="555.5"/>
      <point x="212.5" y="525.5" type="curve" smooth="yes"/>
      <point x="242.5" y="495.5"/>
      <point x="242.5" y="446.5"/>
      <point x="212.5" y="416.5" type="curve" smooth="yes"/>
      <point x="182.5" y="386.5"/>
      <point x="134.667" y="386.5"/>
    </contour>
    <contour>
      <point x="430" y="517" type="line"/>
      <point x="458.956" y="541.502"/>
      <point x="485.577" y="517.227"/>
      <point x="460" y="487" type="curve"/>
      <point x="110" y="137" type="line" smooth="yes"/>
      <point x="83.5817" y="110.582"/>
      <point x="52.6928" y="139.693"/>
      <point x="80" y="167" type="curve" smooth="yes"/>
    </contour>
  </outline>
</glyph>
<glyph name="ampersand" format="1">
  <advance width="494"/>
  <unicode hex="0026"/>
  <outline>
    <contour>
      <point x="235" y="605" type="curve" smooth="yes"/>
      <point x="169.667" y="605"/>
      <point x="106" y="553.333"/>
      <point x="106" y="476" type="curve" smooth="yes"/>
      <point x="106" y="451.333"/>
      <point x="119" y="424"/>
      <point x="145" y="394" type="curve" smooth="yes"/>
      <point x="385" y="117" type="line"/>
      <point x="407.667" y="148.333"/>
      <point x="419" y="185"/>
      <point x="419" y="227" type="curve" smooth="yes"/>
      <point x="419" y="247.667"/>
      <point x="426.333" y="258"/>
      <point x="441" y="258" type="curve" smooth="yes"/>
      <point x="453.667" y="258"/>
      <point x="460" y="247.667"/>
      <point x="460" y="227" type="curve" smooth="yes"/>
      <point x="460" y="173.667"/>
      <point x="444.667" y="126"/>
      <point x="414" y="84" type="curve"/>
      <point x="462" y="29" type="line" smooth="yes"/>
      <point x="466" y="24.3333"/>
      <point x="468" y="18.3333"/>
      <point x="468" y="11" type="curve" smooth="yes"/>
      <point x="468" y="-1"/>
      <point x="462.333" y="-7"/>
      <point x="451" y="-7" type="curve" smooth="yes"/>
      <point x="442.333" y="-7"/>
      <point x="433.667" y="-2.33333"/>
      <point x="425" y="7" type="curve" smooth="yes"/>
      <point x="386" y="52" type="line"/>
      <point x="298" y="-29.3333"/>
      <point x="190.667" y="-22.6667"/>
      <point x="108" y="32" type="curve"/>
      <point x="18.9346" y="79.3987"/>
      <point x="4.37908" y="276.288"/>
      <point x="123" y="356" type="curve"/>
      <point x="109" y="373" type="line" smooth="yes"/>
      <point x="77.6667" y="409"/>
      <point x="62" y="443.333"/>
      <point x="62" y="476" type="curve" smooth="yes"/>
      <point x="62" y="574.667"/>
      <point x="151.667" y="647"/>
      <point x="237" y="647" type="curve" smooth="yes"/>
      <point x="289" y="647"/>
      <point x="339" y="598.833"/>
      <point x="359" y="563.5" type="curve" smooth="yes"/>
      <point x="379" y="528.167"/>
      <point x="376" y="522"/>
      <point x="368" y="514" type="curve" smooth="yes"/>
      <point x="360" y="506"/>
      <point x="346.667" y="503"/>
      <point x="332" y="523" type="curve" smooth="yes"/>
      <point x="312.069" y="550.179"/>
      <point x="293.562" y="605"/>
    </contour>
    <contour>
      <point x="359" y="84" type="curve"/>
      <point x="151" y="325" type="line"/>
      <point x="101.667" y="297"/>
      <point x="79" y="238"/>
      <point x="79" y="182" type="curve" smooth="yes"/>
      <point x="79" y="31.9337"/>
      <point x="257.926" y="-11.4588"/>
    </contour>
  </outline>
</glyph>
<glyph name="quotesingle" format="1">
  <advance width="183"/>
  <unicode hex="0027"/>
  <outline>
    <contour>
      <point x="112" y="466" type="line" smooth="yes"/>
      <point x="112" y="428.667"/>
      <point x="72.3333" y="428.667"/>
      <point x="71" y="466" type="curve"/>
      <point x="71" y="615" type="line"/>
      <point x="72.3333" y="652.333"/>
      <point x="112" y="652.333"/>
      <point x="112" y="615" type="curve" smooth="yes"/>
    </contour>
  </outline>
</glyph>
<glyph name="parenleft" format="1">
  <advance width="237"/>
  <unicode hex="0028"/>
  <outline>
    <contour>
      <point x="193" y="636" type="line"/>
      <point x="157" y="636"/>
      <point x="135" y="629.167"/>
      <point x="127" y="615.5" type="curve" smooth="yes"/>
      <point x="119" y="601.833"/>
      <point x="115" y="564.333"/>
      <point x="115" y="503" type="curve" smooth="yes"/>
      <point x="115" y="133" type="line" smooth="yes"/>
      <point x="115" y="71.6667"/>
      <point x="119" y="34.1667"/>
      <point x="127" y="20.5" type="curve" smooth="yes"/>
      <point x="135" y="6.83333"/>
      <point x="157" y="0"/>
      <point x="193" y="0" type="curve"/>
      <point x="193" y="-42" type="line"/>
      <point x="163" y="-42"/>
      <point x="140" y="-38"/>
      <point x="124" y="-30" type="curve" smooth="yes"/>
      <point x="90" y="-12.6667"/>
      <point x="73" y="41.6667"/>
      <point x="73" y="133" type="curve" smooth="yes"/>
      <point x="73" y="503" type="line" smooth="yes"/>
      <point x="73" y="595"/>
      <point x="90" y="649.333"/>
      <point x="124" y="666" type="curve" smooth="yes"/>
      <point x="140" y="674"/>
      <point x="163" y="678"/>
      <point x="193" y="678" type="curve"/>
    </contour>
  </outline>
</glyph>
<glyph name="parenright" format="1">
  <advance width="236"/>
  <unicode hex="0029"/>
  <outline>
    <contour>
      <point x="44" y="0" type="line"/>
      <point x="79.3333" y="0"/>
      <point x="101" y="6.83333"/>
      <point x="109" y="20.5" type="curve" smooth="yes"/>
      <point x="117" y="34.1667"/>
      <point x="121" y="71.6667"/>
      <point x="121" y="133" type="curve" smooth="yes"/>
      <point x="121" y="503" type="line" smooth="yes"/>
      <point x="121" y="564.333"/>
      <point x="117" y="601.833"/>
      <point x="109" y="615.5" type="curve" smooth="yes"/>
      <point x="101" y="629.167"/>
      <point x="79.3333" y="636"/>
      <point x="44" y="636" type="curve"/>
      <point x="44" y="678" type="line"/>
      <point x="133.333" y="678"/>
      <point x="163" y="647"/>
      <point x="163" y="503" type="curve" smooth="yes"/>
      <point x="163" y="133" type="line" smooth="yes"/>
      <point x="163" y="-11"/>
      <point x="133.333" y="-42"/>
      <point x="44" y="-42" type="curve"/>
    </contour>
  </outline>
</glyph>
<glyph name="asterisk" format="1">
  <advance width="387"/>
  <unicode hex="002A"/>
  <outline>
    <contour>
      <point x="305" y="451" type="line"/>
      <point x="342.863" y="425.333"/>
      <point x="309.196" y="397"/>
      <point x="284" y="414" type="curve"/>
      <point x="214" y="455" type="line"/>
      <point x="214" y="374" type="line" smooth="yes"/>
      <point x="214" y="336.667"/>
      <point x="172" y="336.667"/>
      <point x="172" y="374" type="curve" smooth="yes"/>
      <point x="172" y="455" type="line"/>
      <point x="102" y="414" type="line"/>
      <point x="78.6863" y="397.026"/>
      <point x="45.0196" y="423.582"/>
      <point x="81" y="451" type="curve"/>
      <point x="151" y="492" type="line"/>
      <point x="81" y="531" type="line"/>
      <point x="70.3333" y="538.333"/>
      <point x="65" y="544.667"/>
      <point x="65" y="550" type="curve" smooth="yes"/>
      <point x="65" y="565.333"/>
      <point x="71" y="573"/>
      <point x="83" y="573" type="curve"/>
      <point x="84" y="573" type="line"/>
      <point x="88" y="573"/>
      <point x="94" y="571.333"/>
      <point x="102" y="568" type="curve"/>
      <point x="172" y="527" type="line"/>
      <point x="172" y="608" type="line" smooth="yes"/>
      <point x="172" y="645.333"/>
      <point x="214" y="645.333"/>
      <point x="214" y="608" type="curve" smooth="yes"/>
      <point x="214" y="527" type="line"/>
      <point x="284" y="568" type="line"/>
      <point x="306.32" y="584.32"/>
      <point x="343.542" y="559.542"/>
      <point x="305" y="531" type="curve"/>
      <point x="236" y="492" type="line"/>
    </contour>
  </outline>
</glyph>
<glyph name="plus" format="1">
  <advance width="510"/>
  <unicode hex="002B"/>
  <outline>
    <contour>
      <point x="276" y="20" type="line" smooth="yes"/>
      <point x="276" y="-16"/>
      <point x="234" y="-16"/>
      <point x="234" y="20" type="curve" smooth="yes"/>
      <point x="234" y="209" type="line"/>
      <point x="65" y="209" type="line"/>
      <point x="64.3333" y="209"/>
      <point x="63.6667" y="209"/>
      <point x="63" y="209" type="curve"/>
      <point x="47" y="209"/>
      <point x="39" y="216"/>
      <point x="39" y="230" type="curve" smooth="yes"/>
      <point x="39" y="244.667"/>
      <point x="47.6667" y="252"/>
      <point x="65" y="252" type="curve" smooth="yes"/>
      <point x="234" y="252" type="line"/>
      <point x="234" y="440" type="line" smooth="yes"/>
      <point x="234" y="477.333"/>
      <point x="276" y="477.333"/>
      <point x="276" y="440" type="curve" smooth="yes"/>
      <point x="276" y="252" type="line"/>
      <point x="443" y="252" type="line" smooth="yes"/>
      <point x="462.333" y="252"/>
      <point x="472" y="244.333"/>
      <point x="472" y="229" type="curve" smooth="yes"/>
      <point x="472" y="215.667"/>
      <point x="462.333" y="209"/>
      <point x="443" y="209" type="curve" smooth="yes"/>
      <point x="276" y="209" type="line"/>
    </contour>
  </outline>
</glyph>
<glyph name="comma" format="1">
  <advance width="203"/>
  <unicode hex="002C"/>
  <outline>
    <contour>
      <point x="97" y="61" type="curve"/>
      <point x="125.544" y="58.1456"/>
      <point x="140.126" y="46.2528"/>
      <point x="129" y="24" type="curve" smooth="yes"/>
      <point x="87" y="-59" type="line"/>
      <point x="81" y="-73"/>
      <point x="74.3333" y="-80"/>
      <point x="67" y="-80" type="curve" smooth="yes"/>
      <point x="55.6667" y="-80"/>
      <point x="50" y="-73.3333"/>
      <point x="50" y="-60" type="curve" smooth="yes"/>
      <point x="50" y="-56"/>
      <point x="51" y="-51"/>
      <point x="53" y="-45" type="curve" smooth="yes"/>
      <point x="77" y="41" type="line" smooth="yes"/>
      <point x="81" y="54.3333"/>
      <point x="87.6667" y="61"/>
    </contour>
  </outline>
</glyph>
<glyph name="period" format="1">
  <advance width="224"/>
  <unicode hex="002E"/>
  <outline>
    <contour>
      <point x="81" y="4" type="curve"/>
      <point x="33.902" y="33.7386"/>
      <point x="107.902" y="89.5163"/>
      <point x="143" y="54" type="curve"/>
      <point x="190.098" y="24.2614"/>
      <point x="116.098" y="-31.5163"/>
    </contour>
  </outline>
</glyph>
<glyph name="slash" format="1">
  <advance width="349"/>
  <unicode hex="002F"/>
  <outline>
    <contour>
      <point x="284" y="645" type="curve" smooth="yes"/>
      <point x="298.667" y="645"/>
      <point x="306" y="638.667"/>
      <point x="306" y="626" type="curve" smooth="yes"/>
      <point x="306" y="621.333"/>
      <point x="305" y="616"/>
      <point x="303" y="610" type="curve" smooth="yes"/>
      <point x="85" y="12" type="line"/>
      <point x="81" y="-1.33333"/>
      <point x="74" y="-8"/>
      <point x="64" y="-8" type="curve" smooth="yes"/>
      <point x="50" y="-8"/>
      <point x="43" y="-1.66667"/>
      <point x="43" y="11" type="curve" smooth="yes"/>
      <point x="43" y="14.3333"/>
      <point x="44" y="19.6667"/>
      <point x="46" y="27" type="curve" smooth="yes"/>
      <point x="264" y="625" type="line"/>
      <point x="268" y="638.333"/>
      <point x="274.667" y="645"/>
    </contour>
  </outline>
</glyph>
<glyph name="zero" format="1">
  <advance width="592"/>
  <unicode hex="0030"/>
  <outline>
    <contour>
      <point x="116" y="497" type="curve" smooth="yes"/>
      <point x="116" y="138" type="line" smooth="yes"/>
      <point x="116" y="88.6667"/>
      <point x="169.333" y="42"/>
      <point x="236" y="42" type="curve" smooth="yes"/>
      <point x="356" y="42" type="line" smooth="yes"/>
      <point x="422.667" y="42"/>
      <point x="476" y="88.6667"/>
      <point x="476" y="138" type="curve" smooth="yes"/>
      <point x="476" y="497" type="line" smooth="yes"/>
      <point x="476" y="546.333"/>
      <point x="422.667" y="593"/>
      <point x="356" y="593" type="curve" smooth="yes"/>
      <point x="236" y="593" type="line" smooth="yes"/>
      <point x="169.333" y="593"/>
      <point x="116" y="546.333"/>
    </contour>
    <contour>
      <point x="518" y="154" type="line" smooth="yes"/>
      <point x="518" y="63.3333"/>
      <point x="444" y="0"/>
      <point x="348" y="0" type="curve" smooth="yes"/>
      <point x="244" y="0" type="line" smooth="yes"/>
      <point x="148" y="0"/>
      <point x="74" y="63.3333"/>
      <point x="74" y="154" type="curve" smooth="yes"/>
      <point x="74" y="482" type="line" smooth="yes"/>
      <point x="74" y="572.667"/>
      <point x="148" y="636"/>
      <point x="244" y="636" type="curve" smooth="yes"/>
      <point x="348" y="636" type="line" smooth="yes"/>
      <point x="444" y="636"/>
      <point x="518" y="572.667"/>
      <point x="518" y="482" type="curve" smooth="yes"/>
    </contour>
  </outline>
</glyph>
<glyph name="one" format="1">
  <advance width="592"/>
  <unicode hex="0031"/>
  <outline>
    <contour>
      <point x="284" y="616" type="line"/>
      <point x="250" y="583" type="line" smooth="yes"/>
      <point x="242" y="574.333"/>
      <point x="233.667" y="570"/>
      <point x="225" y="570" type="curve" smooth="yes"/>
      <point x="212.333" y="570"/>
      <point x="206" y="576"/>
      <point x="206" y="588" type="curve" smooth="yes"/>
      <point x="206" y="595.333"/>
      <point x="210" y="602.667"/>
      <point x="218" y="610" type="curve" smooth="yes"/>
      <point x="280" y="673" type="line" smooth="yes"/>
      <point x="288.667" y="681.667"/>
      <point x="296.667" y="686"/>
      <point x="304" y="686" type="curve" smooth="yes"/>
      <point x="306.667" y="686"/>
      <point x="309.333" y="685.333"/>
      <point x="312" y="684" type="curve" smooth="yes"/>
      <point x="321.333" y="681.333"/>
      <point x="326" y="674"/>
      <point x="326" y="662" type="curve" smooth="yes"/>
      <point x="326" y="20" type="line" smooth="yes"/>
      <point x="326" y="-16"/>
      <point x="284" y="-16"/>
      <point x="284" y="20" type="curve" smooth="yes"/>
    </contour>
  </outline>
</glyph>
<glyph name="two" format="1">
  <advance width="592"/>
  <unicode hex="0032"/>
  <outline>
    <contour>
      <point x="117" y="42" type="curve"/>
      <point x="488" y="42" type="line" smooth="yes"/>
      <point x="528" y="42"/>
      <point x="528" y="0"/>
      <point x="488" y="0" type="curve" smooth="yes"/>
      <point x="75" y="0" type="line"/>
      <point x="75" y="44" type="line" smooth="yes"/>
      <point x="75" y="78"/>
      <point x="82.3333" y="109.333"/>
      <point x="97" y="138" type="curve" smooth="yes"/>
      <point x="111" y="167.333"/>
      <point x="130" y="191.333"/>
      <point x="154" y="210" type="curve" smooth="yes"/>
      <point x="195.333" y="243.333"/>
      <point x="250" y="276.333"/>
      <point x="318" y="309" type="curve" smooth="yes"/>
      <point x="346" y="323"/>
      <point x="372" y="337.333"/>
      <point x="396" y="352" type="curve" smooth="yes"/>
      <point x="449.333" y="384"/>
      <point x="476" y="420"/>
      <point x="476" y="460" type="curve" smooth="yes"/>
      <point x="476" y="574.667"/>
      <point x="435" y="594"/>
      <point x="311" y="594" type="curve" smooth="yes"/>
      <point x="176" y="594" type="line" smooth="yes"/>
      <point x="130.667" y="594"/>
      <point x="116" y="574.833"/>
      <point x="116" y="531.5" type="curve" smooth="yes"/>
      <point x="116" y="488.167"/>
      <point x="74" y="489"/>
      <point x="74" y="529" type="curve" smooth="yes"/>
      <point x="74" y="606.333"/>
      <point x="101" y="636"/>
      <point x="169" y="636" type="curve" smooth="yes"/>
      <point x="311" y="636" type="line" smooth="yes"/>
      <point x="435.874" y="636"/>
      <point x="518" y="609.052"/>
      <point x="518" y="463" type="curve" smooth="yes"/>
      <point x="518" y="280.402"/>
      <point x="117" y="267.707"/>
    </contour>
  </outline>
</glyph>
<glyph name="three" format="1">
  <advance width="592"/>
  <unicode hex="0033"/>
  <outline>
    <contour>
      <point x="336" y="594" type="curve" smooth="yes"/>
      <point x="256" y="594" type="line" smooth="yes"/>
      <point x="196" y="594"/>
      <point x="116" y="569"/>
      <point x="116" y="529" type="curve" smooth="yes"/>
      <point x="116" y="489"/>
      <point x="74" y="489"/>
      <point x="74" y="529" type="curve" smooth="yes"/>
      <point x="74" y="585"/>
      <point x="141" y="636"/>
      <point x="249" y="636" type="curve" smooth="yes"/>
      <point x="326" y="636" type="line" smooth="yes"/>
      <point x="464.667" y="636"/>
      <point x="518" y="588.333"/>
      <point x="518" y="451" type="curve" smooth="yes"/>
      <point x="518" y="427.667"/>
      <point x="501.833" y="402.167"/>
      <point x="469.5" y="374.5" type="curve" smooth="yes"/>
      <point x="437.167" y="346.833"/>
      <point x="410" y="330.667"/>
      <point x="388" y="326" type="curve"/>
      <point x="409.333" y="322"/>
      <point x="436.333" y="303.667"/>
      <point x="469" y="271" type="curve" smooth="yes"/>
      <point x="501.667" y="238.333"/>
      <point x="518" y="209.667"/>
      <point x="518" y="185" type="curve" smooth="yes"/>
      <point x="518" y="47.6667"/>
      <point x="464.667" y="0"/>
      <point x="326" y="0" type="curve" smooth="yes"/>
      <point x="249" y="0" type="line"/>
      <point x="76.1667" y="-8.33333"/>
      <point x="44.3333" y="140.083"/>
      <point x="95" y="137" type="curve"/>
      <point x="109" y="137"/>
      <point x="116" y="127"/>
      <point x="116" y="107" type="curve" smooth="yes"/>
      <point x="116" y="67"/>
      <point x="196" y="42"/>
      <point x="256" y="42" type="curve" smooth="yes"/>
      <point x="336" y="42" type="line" smooth="yes"/>
      <point x="442.667" y="42"/>
      <point x="477" y="92"/>
      <point x="477" y="164" type="curve"/>
      <point x="477" y="164.667"/>
      <point x="477" y="165.333"/>
      <point x="477" y="166" type="curve"/>
      <point x="477" y="201.333"/>
      <point x="455.167" y="233.167"/>
      <point x="411.5" y="261.5" type="curve" smooth="yes"/>
      <point x="367.833" y="289.833"/>
      <point x="327.667" y="304"/>
      <point x="291" y="304" type="curve" smooth="yes"/>
      <point x="248.333" y="304"/>
      <point x="249.333" y="347"/>
      <point x="288" y="347" type="curve" smooth="yes"/>
      <point x="291" y="347" type="line" smooth="yes"/>
      <point x="329" y="347"/>
      <point x="369.5" y="359.5"/>
      <point x="412.5" y="384.5" type="curve" smooth="yes"/>
      <point x="455.5" y="409.5"/>
      <point x="477" y="438"/>
      <point x="477" y="470" type="curve" smooth="yes"/>
      <point x="477" y="548.667"/>
      <point x="442.667" y="594"/>
    </contour>
  </outline>
</glyph>
<glyph name="four" format="1">
  <advance width="592"/>
  <unicode hex="0034"/>
  <outline>
    <contour>
      <point x="493" y="175" type="curve" smooth="yes"/>
      <point x="432" y="175" type="line"/>
      <point x="432" y="20" type="line" smooth="yes"/>
      <point x="432" y="-16"/>
      <point x="390" y="-16"/>
      <point x="390" y="20" type="curve" smooth="yes"/>
      <point x="390" y="175" type="line"/>
      <point x="72" y="175" type="line"/>
      <point x="72" y="231" type="line"/>
      <point x="375" y="636" type="line"/>
      <point x="432" y="636" type="line"/>
      <point x="432" y="217" type="line"/>
      <point x="493" y="217" type="line" smooth="yes"/>
      <point x="529" y="217"/>
      <point x="529" y="175"/>
    </contour>
    <contour>
      <point x="390" y="217" type="line"/>
      <point x="390" y="594" type="line"/>
      <point x="109" y="217" type="line"/>
    </contour>
  </outline>
</glyph>
<glyph name="five" format="1">
  <advance width="592"/>
  <unicode hex="0035"/>
  <outline>
    <contour>
      <point x="291" y="-9" type="curve" smooth="yes"/>
      <point x="249.667" y="-9"/>
      <point x="204" y="2.5"/>
      <point x="154" y="25.5" type="curve" smooth="yes"/>
      <point x="104" y="48.5"/>
      <point x="79" y="70"/>
      <point x="79" y="90" type="curve" smooth="yes"/>
      <point x="79" y="100.667"/>
      <point x="89.3333" y="111"/>
      <point x="96" y="111" type="curve" smooth="yes"/>
      <point x="101.75" y="111"/>
      <point x="198.25" y="33"/>
      <point x="291" y="33" type="curve" smooth="yes"/>
      <point x="404.333" y="33"/>
      <point x="471" y="105.667"/>
      <point x="471" y="227" type="curve" smooth="yes"/>
      <point x="471" y="256.333"/>
      <point x="465.667" y="282.333"/>
      <point x="455" y="305" type="curve" smooth="yes"/>
      <point x="443.667" y="327.667"/>
      <point x="430" y="345"/>
      <point x="414" y="357" type="curve" smooth="yes"/>
      <point x="382" y="380.333"/>
      <point x="349.333" y="392"/>
      <point x="316" y="392" type="curve" smooth="yes"/>
      <point x="85" y="392" type="line"/>
      <point x="94" y="512" type="line" smooth="yes"/>
      <point x="100.667" y="605.333"/>
      <point x="128.333" y="636"/>
      <point x="203" y="636" type="curve" smooth="yes"/>
      <point x="444" y="636" type="line" smooth="yes"/>
      <point x="480" y="636"/>
      <point x="480" y="594"/>
      <point x="444" y="594" type="curve" smooth="yes"/>
      <point x="197" y="594" type="line" smooth="yes"/>
      <point x="159.667" y="594"/>
      <point x="142" y="575.667"/>
      <point x="138" y="529" type="curve"/>
      <point x="132" y="434" type="line"/>
      <point x="307" y="434" type="line" smooth="yes"/>
      <point x="413.667" y="434"/>
      <point x="513" y="355"/>
      <point x="513" y="219" type="curve" smooth="yes"/>
      <point x="513" y="83"/>
      <point x="420.333" y="-9"/>
    </contour>
  </outline>
</glyph>
<glyph name="six" format="1">
  <advance width="592"/>
  <unicode hex="0036"/>
  <outline>
    <contour>
      <point x="304" y="644" type="curve" smooth="yes"/>
      <point x="318.667" y="644"/>
      <point x="326" y="638"/>
      <point x="326" y="626" type="curve" smooth="yes"/>
      <point x="326" y="617.333"/>
      <point x="320" y="609.667"/>
      <point x="308" y="603" type="curve" smooth="yes"/>
      <point x="237.333" y="564.333"/>
      <point x="166" y="480.333"/>
      <point x="134" y="359" type="curve"/>
      <point x="176.667" y="401.667"/>
      <point x="230.167" y="423"/>
      <point x="294.5" y="423" type="curve" smooth="yes"/>
      <point x="423.167" y="423"/>
      <point x="518" y="332.333"/>
      <point x="518" y="207" type="curve" smooth="yes"/>
      <point x="518" y="144.333"/>
      <point x="496.833" y="92.6667"/>
      <point x="454.5" y="52" type="curve" smooth="yes"/>
      <point x="412.167" y="11.3333"/>
      <point x="359.333" y="-9"/>
      <point x="296" y="-9" type="curve" smooth="yes"/>
      <point x="232.667" y="-9"/>
      <point x="179.833" y="11.3333"/>
      <point x="137.5" y="52" type="curve" smooth="yes"/>
      <point x="95.1667" y="92.6667"/>
      <point x="74" y="143.5"/>
      <point x="74" y="204.5" type="curve" smooth="yes"/>
      <point x="74" y="326.5"/>
      <point x="107" y="434.167"/>
      <point x="147" y="497.5" type="curve" smooth="yes"/>
      <point x="210.534" y="598.096"/>
      <point x="285.306" y="644"/>
    </contour>
    <contour>
      <point x="164.5" y="333" type="curve" smooth="yes"/>
      <point x="132.167" y="301"/>
      <point x="116" y="259"/>
      <point x="116" y="207" type="curve" smooth="yes"/>
      <point x="116" y="155"/>
      <point x="132.167" y="113"/>
      <point x="164.5" y="81" type="curve" smooth="yes"/>
      <point x="196.833" y="49"/>
      <point x="240.667" y="33"/>
      <point x="296" y="33" type="curve" smooth="yes"/>
      <point x="351.333" y="33"/>
      <point x="395.167" y="49"/>
      <point x="427.5" y="81" type="curve" smooth="yes"/>
      <point x="459.833" y="113"/>
      <point x="476" y="155"/>
      <point x="476" y="207" type="curve" smooth="yes"/>
      <point x="476" y="259"/>
      <point x="459.833" y="301"/>
      <point x="427.5" y="333" type="curve" smooth="yes"/>
      <point x="395.167" y="365"/>
      <point x="351.333" y="381"/>
      <point x="296" y="381" type="curve" smooth="yes"/>
      <point x="240.667" y="381"/>
      <point x="196.833" y="365"/>
    </contour>
  </outline>
</glyph>
<glyph name="seven" format="1">
  <advance width="592"/>
  <unicode hex="0037"/>
  <outline>
    <contour>
      <point x="271" y="-10" type="curve" smooth="yes"/>
      <point x="256.333" y="-10"/>
      <point x="249" y="-3.66667"/>
      <point x="249" y="9" type="curve" smooth="yes"/>
      <point x="249" y="14.3333"/>
      <point x="250.333" y="20.6667"/>
      <point x="253" y="28" type="curve" smooth="yes"/>
      <point x="459" y="594" type="line"/>
      <point x="186" y="594" type="line" smooth="yes"/>
      <point x="163.333" y="594"/>
      <point x="147.5" y="589"/>
      <point x="138.5" y="579" type="curve" smooth="yes"/>
      <point x="129.5" y="569"/>
      <point x="125" y="553.333"/>
      <point x="125" y="532" type="curve" smooth="yes"/>
      <point x="125" y="510.667"/>
      <point x="118" y="500"/>
      <point x="104" y="500" type="curve"/>
      <point x="103" y="499" type="line"/>
      <point x="89.6667" y="499"/>
      <point x="83" y="509"/>
      <point x="83" y="529" type="curve" smooth="yes"/>
      <point x="83" y="606.333"/>
      <point x="110" y="636"/>
      <point x="178" y="636" type="curve" smooth="yes"/>
      <point x="488" y="636" type="line" smooth="yes"/>
      <point x="502" y="636"/>
      <point x="509" y="630"/>
      <point x="509" y="618" type="curve" smooth="yes"/>
      <point x="509" y="612.667"/>
      <point x="507.667" y="606.333"/>
      <point x="505" y="599" type="curve" smooth="yes"/>
      <point x="292" y="13" type="line" smooth="yes"/>
      <point x="286.667" y="-2.33333"/>
      <point x="279.667" y="-10"/>
    </contour>
  </outline>
</glyph>
<glyph name="eight" format="1">
  <advance width="592"/>
  <unicode hex="0038"/>
  <outline>
    <contour>
      <point x="142" y="75" type="curve" smooth="yes"/>
      <point x="158" y="57.6667"/>
      <point x="186" y="42"/>
      <point x="282" y="42" type="curve" smooth="yes"/>
      <point x="311" y="42" type="line" smooth="yes"/>
      <point x="422.905" y="42"/>
      <point x="476" y="51.8528"/>
      <point x="476" y="174" type="curve" smooth="yes"/>
      <point x="476" y="296.017"/>
      <point x="422.143" y="307"/>
      <point x="311" y="307" type="curve" smooth="yes"/>
      <point x="282" y="307" type="line" smooth="yes"/>
      <point x="218" y="307"/>
      <point x="188.667" y="304.667"/>
      <point x="158" y="286" type="curve" smooth="yes"/>
      <point x="130" y="269.333"/>
      <point x="116" y="235.167"/>
      <point x="116" y="183.5" type="curve" smooth="yes"/>
      <point x="116" y="131.833"/>
      <point x="124.667" y="95.6667"/>
    </contour>
    <contour>
      <point x="460" y="30" type="curve" smooth="yes"/>
      <point x="420" y="6"/>
      <point x="379" y="0"/>
      <point x="311" y="0" type="curve" smooth="yes"/>
      <point x="282" y="0" type="line" smooth="yes"/>
      <point x="211.333" y="0"/>
      <point x="159" y="11.5"/>
      <point x="125" y="34.5" type="curve" smooth="yes"/>
      <point x="91" y="57.5"/>
      <point x="74" y="105.667"/>
      <point x="74" y="179" type="curve" smooth="yes"/>
      <point x="74" y="252.333"/>
      <point x="97.3333" y="301.333"/>
      <point x="144" y="326" type="curve"/>
      <point x="97.3333" y="347.333"/>
      <point x="74" y="396"/>
      <point x="74" y="472" type="curve" smooth="yes"/>
      <point x="74" y="526.667"/>
      <point x="86" y="568"/>
      <point x="110" y="596" type="curve" smooth="yes"/>
      <point x="128.667" y="617.333"/>
      <point x="162.667" y="630"/>
      <point x="212" y="634" type="curve" smooth="yes"/>
      <point x="230" y="635.333"/>
      <point x="253.333" y="636"/>
      <point x="282" y="636" type="curve" smooth="yes"/>
      <point x="311" y="636" type="line" smooth="yes"/>
      <point x="401" y="636"/>
      <point x="458" y="622.5"/>
      <point x="482" y="595.5" type="curve" smooth="yes"/>
      <point x="506" y="568.5"/>
      <point x="518" y="527.333"/>
      <point x="518" y="472" type="curve" smooth="yes"/>
      <point x="518" y="395.333"/>
      <point x="495" y="346.667"/>
      <point x="449" y="326" type="curve"/>
      <point x="495" y="302"/>
      <point x="518" y="252.5"/>
      <point x="518" y="177.5" type="curve" smooth="yes"/>
      <point x="518" y="102.5"/>
      <point x="498.667" y="53.3333"/>
    </contour>
    <contour>
      <point x="311" y="594" type="curve" smooth="yes"/>
      <point x="282" y="594" type="line" smooth="yes"/>
      <point x="202" y="594"/>
      <point x="154.333" y="584.5"/>
      <point x="139" y="565.5" type="curve" smooth="yes"/>
      <point x="123.667" y="546.5"/>
      <point x="116" y="515.833"/>
      <point x="116" y="473.5" type="curve" smooth="yes"/>
      <point x="116" y="431.167"/>
      <point x="122.333" y="402"/>
      <point x="135" y="386" type="curve" smooth="yes"/>
      <point x="142.333" y="376.667"/>
      <point x="149.333" y="369.667"/>
      <point x="156" y="365" type="curve" smooth="yes"/>
      <point x="170" y="355.667"/>
      <point x="212" y="350.333"/>
      <point x="282" y="349" type="curve"/>
      <point x="311" y="349" type="line" smooth="yes"/>
      <point x="314.333" y="349"/>
      <point x="317.667" y="349"/>
      <point x="321" y="349" type="curve" smooth="yes"/>
      <point x="384.333" y="349"/>
      <point x="424" y="355"/>
      <point x="440" y="367" type="curve" smooth="yes"/>
      <point x="484.147" y="399.261"/>
      <point x="483.24" y="485.315"/>
      <point x="468.5" y="531.5" type="curve" smooth="yes"/>
      <point x="454.264" y="576.108"/>
      <point x="451.689" y="594"/>
    </contour>
  </outline>
</glyph>
<glyph name="nine" format="1">
  <advance width="592"/>
  <unicode hex="0039"/>
  <outline>
    <contour>
      <point x="74" y="471" type="curve" smooth="yes"/>
      <point x="74" y="541.667"/>
      <point x="111" y="591"/>
      <point x="167" y="611" type="curve" smooth="yes"/>
      <point x="213.667" y="627.667"/>
      <point x="261.667" y="636"/>
      <point x="311" y="636" type="curve" smooth="yes"/>
      <point x="449" y="636"/>
      <point x="518" y="580.667"/>
      <point x="518" y="470" type="curve" smooth="yes"/>
      <point x="518" y="174.745"/>
      <point x="339.286" y="-16"/>
      <point x="175" y="-16" type="curve" smooth="yes"/>
      <point x="157.667" y="-16"/>
      <point x="149" y="-8.83333"/>
      <point x="149" y="5.5" type="curve" smooth="yes"/>
      <point x="149" y="34.1667"/>
      <point x="196.167" y="20.8333"/>
      <point x="251.5" y="45.5" type="curve" smooth="yes"/>
      <point x="333.934" y="82.2477"/>
      <point x="431.233" y="176.163"/>
      <point x="465" y="345" type="curve"/>
      <point x="431.667" y="319.667"/>
      <point x="380.333" y="307"/>
      <point x="311" y="307" type="curve" smooth="yes"/>
      <point x="153" y="307"/>
      <point x="74" y="361.667"/>
    </contour>
    <contour>
      <point x="311" y="594" type="curve" smooth="yes"/>
      <point x="181" y="594"/>
      <point x="116" y="553"/>
      <point x="116" y="471" type="curve" smooth="yes"/>
      <point x="116" y="428.333"/>
      <point x="136" y="396"/>
      <point x="160" y="380" type="curve"/>
      <point x="192.667" y="360.667"/>
      <point x="243" y="350.333"/>
      <point x="311" y="349" type="curve"/>
      <point x="421" y="349"/>
      <point x="476" y="389.333"/>
      <point x="476" y="470" type="curve" smooth="yes"/>
      <point x="476" y="552.667"/>
      <point x="421" y="594"/>
    </contour>
  </outline>
</glyph>
<glyph name="colon" format="1">
  <advance width="238"/>
  <unicode hex="003A"/>
  <outline>
    <contour>
      <point x="73" y="433" type="curve"/>
      <point x="76.2442" y="478.419"/>
      <point x="165" y="479.653"/>
      <point x="165" y="433" type="curve" smooth="yes"/>
      <point x="165" y="386.882"/>
      <point x="73" y="386.882"/>
    </contour>
    <contour>
      <point x="73" y="80" type="curve"/>
      <point x="76.2442" y="125.419"/>
      <point x="165" y="126.653"/>
      <point x="165" y="80" type="curve" smooth="yes"/>
      <point x="165" y="33.8824"/>
      <point x="73" y="33.8824"/>
    </contour>
  </outline>
</glyph>
<glyph name="semicolon" format="1">
  <advance width="241"/>
  <unicode hex="003B"/>
  <outline>
    <contour>
      <point x="73" y="433" type="curve"/>
      <point x="76.2442" y="478.419"/>
      <point x="165" y="479.653"/>
      <point x="165" y="433" type="curve" smooth="yes"/>
      <point x="165" y="386.882"/>
      <point x="73" y="386.882"/>
    </contour>
    <contour>
      <point x="127" y="112" type="curve" smooth="yes"/>
      <point x="156.14" y="112"/>
      <point x="169.491" y="93.3599"/>
      <point x="159" y="75" type="curve"/>
      <point x="117" y="-8" type="line"/>
      <point x="111" y="-22"/>
      <point x="104.333" y="-29"/>
      <point x="97" y="-29" type="curve" smooth="yes"/>
      <point x="85.6667" y="-29"/>
      <point x="80" y="-22.3333"/>
      <point x="80" y="-9" type="curve" smooth="yes"/>
      <point x="80" y="-5"/>
      <point x="81" y="0"/>
      <point x="83" y="6" type="curve" smooth="yes"/>
      <point x="107" y="92" type="line" smooth="yes"/>
      <point x="111" y="105.333"/>
      <point x="117.667" y="112"/>
    </contour>
  </outline>
</glyph>
<glyph name="less" format="1">
  <advance width="522"/>
  <unicode hex="003C"/>
  <outline>
    <contour>
      <point x="433" y="137" type="line" smooth="yes"/>
      <point x="444.333" y="131"/>
      <point x="450" y="125"/>
      <point x="450" y="119" type="curve" smooth="yes"/>
      <point x="450" y="102.333"/>
      <point x="443.667" y="94"/>
      <point x="431" y="94" type="curve" smooth="yes"/>
      <point x="426.333" y="94"/>
      <point x="420" y="96"/>
      <point x="412" y="100" type="curve" smooth="yes"/>
      <point x="49" y="310" type="line"/>
      <point x="27.6667" y="324.667"/>
      <point x="27.6667" y="342"/>
      <point x="49" y="354" type="curve" smooth="yes"/>
      <point x="412" y="564" type="line" smooth="yes"/>
      <point x="418" y="567.333"/>
      <point x="424" y="569"/>
      <point x="430" y="569" type="curve" smooth="yes"/>
      <point x="443.333" y="569"/>
      <point x="450" y="563"/>
      <point x="450" y="551" type="curve" smooth="yes"/>
      <point x="450" y="543"/>
      <point x="444.667" y="535"/>
      <point x="434" y="527" type="curve"/>
      <point x="95" y="333" type="line"/>
    </contour>
  </outline>
</glyph>
<glyph name="equal" format="1">
  <advance width="458"/>
  <unicode hex="003D"/>
  <outline>
    <contour>
      <point x="105" y="259" type="line"/>
      <point x="104.333" y="259"/>
      <point x="103.667" y="259"/>
      <point x="103" y="259" type="curve"/>
      <point x="87" y="259"/>
      <point x="79" y="266"/>
      <point x="79" y="280" type="curve" smooth="yes"/>
      <point x="79" y="294.667"/>
      <point x="87.6667" y="302"/>
      <point x="105" y="302" type="curve" smooth="yes"/>
      <point x="350" y="302" type="line" smooth="yes"/>
      <point x="369.333" y="302"/>
      <point x="379" y="294.333"/>
      <point x="379" y="279" type="curve" smooth="yes"/>
      <point x="379" y="265.667"/>
      <point x="369.333" y="259"/>
      <point x="350" y="259" type="curve" smooth="yes"/>
    </contour>
    <contour>
      <point x="105" y="362" type="line" smooth="yes"/>
      <point x="87.6667" y="362"/>
      <point x="79" y="369.333"/>
      <point x="79" y="384" type="curve" smooth="yes"/>
      <point x="79" y="398"/>
      <point x="87" y="405"/>
      <point x="103" y="405" type="curve"/>
      <point x="103.667" y="405"/>
      <point x="104.333" y="405"/>
      <point x="105" y="405" type="curve"/>
      <point x="350" y="405" type="line" smooth="yes"/>
      <point x="369.333" y="405"/>
      <point x="379" y="397.333"/>
      <point x="379" y="382" type="curve" smooth="yes"/>
      <point x="379" y="368.667"/>
      <point x="369.333" y="362"/>
      <point x="350" y="362" type="curve" smooth="yes"/>
    </contour>
  </outline>
</glyph>
<glyph name="greater" format="1">
  <advance width="522"/>
  <unicode hex="003E"/>
  <outline>
    <contour>
      <point x="89" y="526" type="line"/>
      <point x="77.6667" y="531.333"/>
      <point x="72" y="537.333"/>
      <point x="72" y="544" type="curve" smooth="yes"/>
      <point x="72" y="560"/>
      <point x="78.3333" y="568.333"/>
      <point x="91" y="569" type="curve"/>
      <point x="96.3333" y="569"/>
      <point x="102.333" y="567"/>
      <point x="109" y="563" type="curve" smooth="yes"/>
      <point x="473" y="353" type="line"/>
      <point x="494.333" y="338.333"/>
      <point x="494.333" y="321"/>
      <point x="473" y="309" type="curve" smooth="yes"/>
      <point x="109" y="99" type="line" smooth="yes"/>
      <point x="104.333" y="95.6667"/>
      <point x="98.6667" y="94"/>
      <point x="92" y="94" type="curve" smooth="yes"/>
      <point x="78.6667" y="94"/>
      <point x="72" y="100.333"/>
      <point x="72" y="113" type="curve" smooth="yes"/>
      <point x="72" y="121.667"/>
      <point x="77.3333" y="129.333"/>
      <point x="88" y="136" type="curve" smooth="yes"/>
      <point x="427" y="331" type="line"/>
    </contour>
  </outline>
</glyph>
<glyph name="question" format="1">
  <advance width="528"/>
  <unicode hex="003F"/>
  <outline>
    <contour>
      <point x="216" y="4" type="curve"/>
      <point x="169.337" y="33.7386"/>
      <point x="242.281" y="89.5163"/>
      <point x="277.5" y="54" type="curve"/>
      <point x="325.941" y="24.2614"/>
      <point x="249.441" y="-31.5163"/>
    </contour>
    <contour>
      <point x="268" y="303" type="line"/>
      <point x="268" y="194" type="line" smooth="yes"/>
      <point x="268" y="156.667"/>
      <point x="226" y="156.667"/>
      <point x="226" y="194" type="curve" smooth="yes"/>
      <point x="226" y="334" type="line"/>
      <point x="379" y="376" type="line" smooth="yes"/>
      <point x="416.333" y="386.667"/>
      <point x="443" y="427.667"/>
      <point x="443" y="485" type="curve" smooth="yes"/>
      <point x="443" y="542.333"/>
      <point x="411.667" y="602"/>
      <point x="341" y="602" type="curve" smooth="yes"/>
      <point x="248" y="602" type="line" smooth="yes"/>
      <point x="134.424" y="602"/>
      <point x="82" y="593.277"/>
      <point x="82" y="471" type="curve" smooth="yes"/>
      <point x="82" y="433.667"/>
      <point x="39" y="433.667"/>
      <point x="39" y="471" type="curve"/>
      <point x="39.6667" y="543.667"/>
      <point x="59.3333" y="591.333"/>
      <point x="98" y="614" type="curve" smooth="yes"/>
      <point x="138" y="638"/>
      <point x="178.667" y="644"/>
      <point x="248" y="644" type="curve" smooth="yes"/>
      <point x="324" y="644" type="line" smooth="yes"/>
      <point x="438.667" y="644"/>
      <point x="485" y="572"/>
      <point x="485" y="484" type="curve" smooth="yes"/>
      <point x="485" y="396"/>
      <point x="452.667" y="354.333"/>
      <point x="362" y="329" type="curve" smooth="yes"/>
    </contour>
  </outline>
</glyph>
<glyph name="at" format="1">
  <advance width="584"/>
  <unicode hex="0040"/>
  <outline>
    <contour>
      <point x="420" y="0" type="curve" smooth="yes"/>
      <point x="279" y="0" type="line" smooth="yes"/>
      <point x="152.333" y="0"/>
      <point x="71" y="90.3333"/>
      <point x="71" y="241" type="curve" smooth="yes"/>
      <point x="71" y="395" type="line" smooth="yes"/>
      <point x="71" y="545.667"/>
      <point x="152.333" y="636"/>
      <point x="279" y="636" type="curve" smooth="yes"/>
      <point x="308" y="636" type="line" smooth="yes"/>
      <point x="371.333" y="636"/>
      <point x="421.833" y="614.667"/>
      <point x="459.5" y="572" type="curve" smooth="yes"/>
      <point x="497.167" y="529.333"/>
      <point x="516" y="472.667"/>
      <point x="516" y="402" type="curve" smooth="yes"/>
      <point x="516" y="331.333"/>
      <point x="508.833" y="283.833"/>
      <point x="494.5" y="259.5" type="curve" smooth="yes"/>
      <point x="480.167" y="235.167"/>
      <point x="457.5" y="217.5"/>
      <point x="426.5" y="206.5" type="curve" smooth="yes"/>
      <point x="395.5" y="195.5"/>
      <point x="354.5" y="190"/>
      <point x="303.5" y="190" type="curve" smooth="yes"/>
      <point x="252.5" y="190"/>
      <point x="218.5" y="200.833"/>
      <point x="201.5" y="222.5" type="curve" smooth="yes"/>
      <point x="184.5" y="244.167"/>
      <point x="176" y="280.5"/>
      <point x="176" y="331.5" type="curve" smooth="yes"/>
      <point x="176" y="433.5"/>
      <point x="203.5" y="473"/>
      <point x="297.5" y="473" type="curve" smooth="yes"/>
      <point x="344.5" y="473"/>
      <point x="376.5" y="462.167"/>
      <point x="393.5" y="440.5" type="curve" smooth="yes"/>
      <point x="410.5" y="418.833"/>
      <point x="419" y="385.833"/>
      <point x="419" y="341.5" type="curve" smooth="yes"/>
      <point x="419" y="297.167"/>
      <point x="414.667" y="264.333"/>
      <point x="406" y="243" type="curve"/>
      <point x="424.667" y="247"/>
      <point x="438.333" y="253"/>
      <point x="447" y="261" type="curve" smooth="yes"/>
      <point x="465" y="277.667"/>
      <point x="474" y="319.833"/>
      <point x="474" y="387.5" type="curve" smooth="yes"/>
      <point x="474" y="522.833"/>
      <point x="417.333" y="594"/>
      <point x="308" y="594" type="curve" smooth="yes"/>
      <point x="279" y="594" type="line" smooth="yes"/>
      <point x="169.667" y="594"/>
      <point x="113" y="520.333"/>
      <point x="113" y="395" type="curve" smooth="yes"/>
      <point x="113" y="241" type="line" smooth="yes"/>
      <point x="113" y="115.667"/>
      <point x="169.667" y="42"/>
      <point x="279" y="42" type="curve" smooth="yes"/>
      <point x="413" y="42" type="line" smooth="yes"/>
      <point x="435.667" y="42"/>
      <point x="451.5" y="47"/>
      <point x="460.5" y="57" type="curve" smooth="yes"/>
      <point x="469.5" y="67"/>
      <point x="474" y="82.8333"/>
      <point x="474" y="104.5" type="curve" smooth="yes"/>
      <point x="474" y="126.167"/>
      <point x="481" y="137"/>
      <point x="495" y="137" type="curve"/>
      <point x="509" y="136.333"/>
      <point x="516" y="127.333"/>
      <point x="516" y="110" type="curve" smooth="yes"/>
      <point x="516" y="47.3333"/>
      <point x="502.667" y="0"/>
    </contour>
    <contour>
      <point x="218" y="331.5" type="curve" smooth="yes"/>
      <point x="218" y="253.5"/>
      <point x="228.833" y="232"/>
      <point x="297.5" y="232" type="curve" smooth="yes"/>
      <point x="366.167" y="232"/>
      <point x="377" y="253.5"/>
      <point x="377" y="331.5" type="curve" smooth="yes"/>
      <point x="377" y="409.5"/>
      <point x="366.167" y="431"/>
      <point x="297.5" y="431" type="curve" smooth="yes"/>
      <point x="228.833" y="431"/>
      <point x="218" y="409.5"/>
    </contour>
  </outline>
</glyph>
<glyph name="B" format="1">
  <advance width="584"/>
  <unicode hex="0042"/>
  <outline>
    <contour>
      <point x="126" y="42" type="line"/>
      <point x="321" y="42" type="line" smooth="yes"/>
      <point x="432.143" y="42"/>
      <point x="486" y="52.9827"/>
      <point x="486" y="175" type="curve" smooth="yes"/>
      <point x="486" y="204" type="line" smooth="yes"/>
      <point x="486" y="326.017"/>
      <point x="432.143" y="337"/>
      <point x="321" y="337" type="curve" smooth="yes"/>
      <point x="126" y="337" type="line"/>
    </contour>
    <contour>
      <point x="84" y="31" type="curve" smooth="yes"/>
      <point x="84" y="605" type="line" smooth="yes"/>
      <point x="84" y="625.667"/>
      <point x="90.3333" y="636"/>
      <point x="103" y="636" type="curve" smooth="yes"/>
      <point x="279" y="636" type="line" smooth="yes"/>
      <point x="347.667" y="636"/>
      <point x="399.333" y="625.333"/>
      <point x="434" y="604" type="curve" smooth="yes"/>
      <point x="468.667" y="582.667"/>
      <point x="486" y="543.667"/>
      <point x="486" y="487" type="curve" smooth="yes"/>
      <point x="486" y="430.333"/>
      <point x="467.667" y="390.333"/>
      <point x="431" y="367" type="curve"/>
      <point x="496.333" y="347"/>
      <point x="528" y="300"/>
      <point x="528" y="204" type="curve" smooth="yes"/>
      <point x="528" y="175" type="line" smooth="yes"/>
      <point x="528" y="35"/>
      <point x="461" y="0"/>
      <point x="321" y="0" type="curve" smooth="yes"/>
      <point x="103" y="0" type="line" smooth="yes"/>
      <point x="90.3333" y="0"/>
      <point x="84" y="10.3333"/>
    </contour>
    <contour>
      <point x="279" y="379" type="line"/>
      <point x="397.667" y="380.333"/>
      <point x="444" y="398"/>
      <point x="444" y="486" type="curve" smooth="yes"/>
      <point x="444" y="574"/>
      <point x="399" y="594"/>
      <point x="279" y="594" type="curve" smooth="yes"/>
      <point x="126" y="594" type="line"/>
      <point x="126" y="379" type="line"/>
    </contour>
  </outline>
</glyph>
<glyph name="C" format="1">
  <advance width="572"/>
  <unicode hex="0043"/>
  <outline>
    <contour>
      <point x="421" y="0" type="curve" smooth="yes"/>
      <point x="280" y="0" type="line" smooth="yes"/>
      <point x="138.667" y="0"/>
      <point x="72" y="35"/>
      <point x="72" y="175" type="curve" smooth="yes"/>
      <point x="72" y="461" type="line" smooth="yes"/>
      <point x="72" y="601"/>
      <point x="138.667" y="636"/>
      <point x="280" y="636" type="curve" smooth="yes"/>
      <point x="421" y="636" type="line"/>
      <point x="540.167" y="645.083"/>
      <point x="525.833" y="496.667"/>
      <point x="495" y="499" type="curve"/>
      <point x="481" y="499"/>
      <point x="474" y="509.667"/>
      <point x="474" y="531" type="curve" smooth="yes"/>
      <point x="474" y="573.667"/>
      <point x="459.333" y="594"/>
      <point x="414" y="594" type="curve" smooth="yes"/>
      <point x="280" y="594" type="line" smooth="yes"/>
      <point x="167.186" y="594"/>
      <point x="114" y="583.017"/>
      <point x="114" y="461" type="curve" smooth="yes"/>
      <point x="114" y="175" type="line" smooth="yes"/>
      <point x="114" y="52.9827"/>
      <point x="167.186" y="42"/>
      <point x="280" y="42" type="curve" smooth="yes"/>
      <point x="414" y="42" type="line" smooth="yes"/>
      <point x="436.667" y="42"/>
      <point x="452.333" y="47"/>
      <point x="461" y="57" type="curve" smooth="yes"/>
      <point x="469.667" y="67"/>
      <point x="474" y="82.8333"/>
      <point x="474" y="104.5" type="curve" smooth="yes"/>
      <point x="474" y="126.167"/>
      <point x="481" y="137"/>
      <point x="495" y="137" type="curve"/>
      <point x="509" y="136.333"/>
      <point x="516" y="127.333"/>
      <point x="516" y="110" type="curve" smooth="yes"/>
      <point x="516" y="48.6667"/>
      <point x="505" y="0"/>
    </contour>
  </outline>
</glyph>
<glyph name="D" format="1">
  <advance width="600"/>
  <unicode hex="0044"/>
  <outline>
    <contour>
      <point x="528" y="461" type="curve" smooth="yes"/>
      <point x="528" y="175" type="line" smooth="yes"/>
      <point x="528" y="35"/>
      <point x="461" y="0"/>
      <point x="321" y="0" type="curve" smooth="yes"/>
      <point x="103" y="0" type="line" smooth="yes"/>
      <point x="90.3333" y="0"/>
      <point x="84" y="10.3333"/>
      <point x="84" y="31" type="curve" smooth="yes"/>
      <point x="84" y="605" type="line" smooth="yes"/>
      <point x="84" y="625.667"/>
      <point x="90.3333" y="636"/>
      <point x="103" y="636" type="curve" smooth="yes"/>
      <point x="321" y="636" type="line" smooth="yes"/>
      <point x="461" y="636"/>
      <point x="528" y="601"/>
    </contour>
    <contour>
      <point x="486" y="175" type="curve" smooth="yes"/>
      <point x="486" y="461" type="line" smooth="yes"/>
      <point x="486" y="583.017"/>
      <point x="432.143" y="594"/>
      <point x="321" y="594" type="curve" smooth="yes"/>
      <point x="126" y="594" type="line"/>
      <point x="126" y="42" type="line"/>
      <point x="321" y="42" type="line" smooth="yes"/>
      <point x="432.143" y="42"/>
      <point x="486" y="52.9827"/>
    </contour>
  </outline>
</glyph>
<glyph name="E" format="1">
  <advance width="577"/>
  <unicode hex="0045"/>
  <outline>
    <contour>
      <point x="126" y="337" type="line"/>
      <point x="126" y="42" type="line"/>
      <point x="499" y="42" type="line" smooth="yes"/>
      <point x="518.333" y="42"/>
      <point x="528" y="34.3333"/>
      <point x="528" y="19" type="curve" smooth="yes"/>
      <point x="528" y="6.33333"/>
      <point x="518.333" y="0"/>
      <point x="499" y="0" type="curve" smooth="yes"/>
      <point x="103" y="0" type="line" smooth="yes"/>
      <point x="90.3333" y="0"/>
      <point x="84" y="10.3333"/>
      <point x="84" y="31" type="curve" smooth="yes"/>
      <point x="84" y="605" type="line" smooth="yes"/>
      <point x="84" y="625.667"/>
      <point x="90.3333" y="636"/>
      <point x="103" y="636" type="curve" smooth="yes"/>
      <point x="499" y="636" type="line" smooth="yes"/>
      <point x="518.333" y="636"/>
      <point x="528" y="628.333"/>
      <point x="528" y="613" type="curve" smooth="yes"/>
      <point x="528" y="600.333"/>
      <point x="518.333" y="594"/>
      <point x="499" y="594" type="curve" smooth="yes"/>
      <point x="126" y="594" type="line"/>
      <point x="126" y="379" type="line"/>
      <point x="381" y="379" type="line" smooth="yes"/>
      <point x="401" y="379"/>
      <point x="411" y="371.333"/>
      <point x="411" y="356" type="curve" smooth="yes"/>
      <point x="411" y="343.333"/>
      <point x="401" y="337"/>
      <point x="381" y="337" type="curve" smooth="yes"/>
    </contour>
  </outline>
</glyph>
<glyph name="G" format="1">
  <advance width="585"/>
  <unicode hex="0047"/>
  <outline>
    <contour>
      <point x="474" y="251" type="line"/>
      <point x="341" y="251" type="line" smooth="yes"/>
      <point x="301" y="251"/>
      <point x="301" y="293"/>
      <point x="341" y="293" type="curve" smooth="yes"/>
      <point x="516" y="293" type="line"/>
      <point x="516" y="106" type="line" smooth="yes"/>
      <point x="516" y="54"/>
      <point x="501.333" y="21.6667"/>
      <point x="472" y="9" type="curve" smooth="yes"/>
      <point x="458.667" y="3"/>
      <point x="441.667" y="0"/>
      <point x="421" y="0" type="curve" smooth="yes"/>
      <point x="280" y="0" type="line" smooth="yes"/>
      <point x="210.667" y="0"/>
      <point x="170" y="6"/>
      <point x="130" y="30" type="curve" smooth="yes"/>
      <point x="91.3333" y="53.3333"/>
      <point x="72" y="101.667"/>
      <point x="72" y="175" type="curve" smooth="yes"/>
      <point x="72" y="461" type="line" smooth="yes"/>
      <point x="72" y="534.333"/>
      <point x="91.3333" y="582.667"/>
      <point x="130" y="606" type="curve" smooth="yes"/>
      <point x="170" y="630"/>
      <point x="210.667" y="636"/>
      <point x="280" y="636" type="curve" smooth="yes"/>
      <point x="421" y="636" type="line"/>
      <point x="540.167" y="645.083"/>
      <point x="525.833" y="496.667"/>
      <point x="495" y="499" type="curve"/>
      <point x="481" y="499"/>
      <point x="474" y="509.833"/>
      <point x="474" y="531.5" type="curve" smooth="yes"/>
      <point x="474" y="574.833"/>
      <point x="459.333" y="594"/>
      <point x="414" y="594" type="curve" smooth="yes"/>
      <point x="280" y="594" type="line" smooth="yes"/>
      <point x="167.186" y="594"/>
      <point x="114" y="583.017"/>
      <point x="114" y="461" type="curve" smooth="yes"/>
      <point x="114" y="175" type="line" smooth="yes"/>
      <point x="114" y="52.9827"/>
      <point x="167.186" y="42"/>
      <point x="280" y="42" type="curve" smooth="yes"/>
      <point x="414" y="42" type="line" smooth="yes"/>
      <point x="459.333" y="42"/>
      <point x="474" y="60"/>
      <point x="474" y="108" type="curve" smooth="yes"/>
    </contour>
  </outline>
</glyph>
<glyph name="H" format="1">
  <advance width="612"/>
  <unicode hex="0048"/>
  <outline>
    <contour>
      <point x="126" y="23" type="line" smooth="yes"/>
      <point x="126" y="-17"/>
      <point x="84" y="-17"/>
      <point x="84" y="23" type="curve" smooth="yes"/>
      <point x="84" y="612" type="line" smooth="yes"/>
      <point x="84" y="632.667"/>
      <point x="90.3333" y="643"/>
      <point x="103" y="643" type="curve" smooth="yes"/>
      <point x="118.333" y="643"/>
      <point x="126" y="632.667"/>
      <point x="126" y="612" type="curve" smooth="yes"/>
      <point x="126" y="364" type="line"/>
      <point x="486" y="364" type="line"/>
      <point x="486" y="612" type="line" smooth="yes"/>
      <point x="486" y="653.333"/>
      <point x="528" y="653.333"/>
      <point x="528" y="612" type="curve" smooth="yes"/>
      <point x="528" y="23" type="line" smooth="yes"/>
      <point x="528" y="-17"/>
      <point x="486" y="-17"/>
      <point x="486" y="23" type="curve" smooth="yes"/>
      <point x="486" y="322" type="line"/>
      <point x="126" y="322" type="line"/>
    </contour>
  </outline>
</glyph>
<glyph name="I" format="1">
  <advance width="210"/>
  <unicode hex="0049"/>
  <outline>
    <contour>
      <point x="126" y="20" type="line" smooth="yes"/>
      <point x="126" y="-16"/>
      <point x="84" y="-16"/>
      <point x="84" y="20" type="curve" smooth="yes"/>
      <point x="84" y="615" type="line" smooth="yes"/>
      <point x="84" y="652.333"/>
      <point x="126" y="652.333"/>
      <point x="126" y="615" type="curve" smooth="yes"/>
    </contour>
  </outline>
</glyph>
<glyph name="J" format="1">
  <advance width="530"/>
  <unicode hex="004A"/>
  <outline>
    <contour>
      <point x="241" y="34" type="curve" smooth="yes"/>
      <point x="353.814" y="34"/>
      <point x="407" y="44.9827"/>
      <point x="407" y="167" type="curve" smooth="yes"/>
      <point x="407" y="615" type="line" smooth="yes"/>
      <point x="407" y="652.333"/>
      <point x="449" y="652.333"/>
      <point x="449" y="615" type="curve" smooth="yes"/>
      <point x="449" y="167" type="line" smooth="yes"/>
      <point x="449" y="93.6667"/>
      <point x="429.667" y="45.3333"/>
      <point x="391" y="22" type="curve" smooth="yes"/>
      <point x="351" y="-2"/>
      <point x="310.333" y="-8"/>
      <point x="241" y="-8" type="curve" smooth="yes"/>
      <point x="171.667" y="-8"/>
      <point x="130" y="-2"/>
      <point x="90" y="22" type="curve" smooth="yes"/>
      <point x="51.3333" y="45.3333"/>
      <point x="32" y="93.6667"/>
      <point x="32" y="167" type="curve" smooth="yes"/>
      <point x="32" y="185.667"/>
      <point x="39.6667" y="195"/>
      <point x="55" y="195" type="curve" smooth="yes"/>
      <point x="68.3333" y="195"/>
      <point x="75" y="185.667"/>
      <point x="75" y="167" type="curve" smooth="yes"/>
      <point x="75" y="52.3333"/>
      <point x="115.667" y="34"/>
    </contour>
  </outline>
</glyph>
<glyph name="K" format="1">
  <advance width="497"/>
  <unicode hex="004B"/>
  <outline>
    <contour>
      <point x="484" y="33" type="line"/>
      <point x="509.668" y="7.33206"/>
      <point x="476.14" y="-25.3821"/>
      <point x="452" y="6" type="curve"/>
      <point x="184" y="325" type="line"/>
      <point x="126" y="255" type="line"/>
      <point x="126" y="20" type="line" smooth="yes"/>
      <point x="126" y="-16"/>
      <point x="84" y="-16"/>
      <point x="84" y="20" type="curve" smooth="yes"/>
      <point x="84" y="615" type="line" smooth="yes"/>
      <point x="84" y="652.333"/>
      <point x="126" y="652.333"/>
      <point x="126" y="615" type="curve" smooth="yes"/>
      <point x="126" y="321" type="line"/>
      <point x="386" y="630" type="line"/>
      <point x="410.217" y="661.482"/>
      <point x="440.846" y="630.923"/>
      <point x="418" y="603" type="curve" smooth="yes"/>
      <point x="212" y="357" type="line"/>
    </contour>
  </outline>
</glyph>
<glyph name="L" format="1">
  <advance width="495"/>
  <unicode hex="004C"/>
  <outline>
    <contour>
      <point x="103" y="0" type="line" smooth="yes"/>
      <point x="90.3333" y="0"/>
      <point x="84" y="10.3333"/>
      <point x="84" y="31" type="curve" smooth="yes"/>
      <point x="84" y="615" type="line" smooth="yes"/>
      <point x="84" y="652.333"/>
      <point x="126" y="652.333"/>
      <point x="126" y="615" type="curve" smooth="yes"/>
      <point x="126" y="42" type="line"/>
      <point x="444" y="42" type="line" smooth="yes"/>
      <point x="481.333" y="42"/>
      <point x="481.333" y="0"/>
      <point x="444" y="0" type="curve" smooth="yes"/>
    </contour>
  </outline>
</glyph>
<glyph name="M" format="1">
  <advance width="633"/>
  <unicode hex="004D"/>
  <outline>
    <contour>
      <point x="329" y="285" type="line"/>
      <point x="322.333" y="277"/>
      <point x="310.667" y="277"/>
      <point x="304" y="285" type="curve"/>
      <point x="126" y="557" type="line"/>
      <point x="126" y="23" type="line" smooth="yes"/>
      <point x="126" y="-17"/>
      <point x="84" y="-17"/>
      <point x="84" y="23" type="curve" smooth="yes"/>
      <point x="84" y="612" type="line" smooth="yes"/>
      <point x="84" y="632.667"/>
      <point x="90.3333" y="643"/>
      <point x="103" y="643" type="curve" smooth="yes"/>
      <point x="113" y="643"/>
      <point x="121.667" y="637.333"/>
      <point x="129" y="626" type="curve" smooth="yes"/>
      <point x="316" y="342" type="line"/>
      <point x="504" y="626" type="line" smooth="yes"/>
      <point x="511.333" y="637.333"/>
      <point x="519.667" y="643"/>
      <point x="529" y="643" type="curve" smooth="yes"/>
      <point x="542.333" y="643"/>
      <point x="549" y="632.667"/>
      <point x="549" y="612" type="curve" smooth="yes"/>
      <point x="549" y="23" type="line" smooth="yes"/>
      <point x="549" y="-17"/>
      <point x="507" y="-17"/>
      <point x="507" y="23" type="curve" smooth="yes"/>
      <point x="507" y="557" type="line"/>
    </contour>
  </outline>
</glyph>
<glyph name="N" format="1">
  <advance width="612"/>
  <unicode hex="004E"/>
  <outline>
    <contour>
      <point x="508" y="-7" type="curve" smooth="yes"/>
      <point x="500" y="-7"/>
      <point x="494.667" y="-4.66667"/>
      <point x="492" y="0" type="curve" smooth="yes"/>
      <point x="126" y="557" type="line"/>
      <point x="126" y="23" type="line" smooth="yes"/>
      <point x="126" y="-17"/>
      <point x="84" y="-17"/>
      <point x="84" y="23" type="curve" smooth="yes"/>
      <point x="84" y="612" type="line" smooth="yes"/>
      <point x="84" y="632.667"/>
      <point x="90.3333" y="643"/>
      <point x="103" y="643" type="curve" smooth="yes"/>
      <point x="113" y="643"/>
      <point x="121.667" y="637.333"/>
      <point x="129" y="626" type="curve" smooth="yes"/>
      <point x="486" y="84" type="line"/>
      <point x="486" y="612" type="line" smooth="yes"/>
      <point x="486" y="653.333"/>
      <point x="528" y="653.333"/>
      <point x="528" y="612" type="curve" smooth="yes"/>
      <point x="528" y="23" type="line" smooth="yes"/>
      <point x="528" y="3"/>
      <point x="521.333" y="-7"/>
    </contour>
  </outline>
</glyph>
<glyph name="O" format="1">
  <advance width="574"/>
  <unicode hex="004F"/>
  <outline>
    <contour>
      <point x="65" y="227" type="curve" smooth="yes"/>
      <point x="65" y="409" type="line" smooth="yes"/>
      <point x="65" y="555.667"/>
      <point x="157.667" y="645"/>
      <point x="287" y="645" type="curve" smooth="yes"/>
      <point x="416.333" y="645"/>
      <point x="509" y="555.667"/>
      <point x="509" y="409" type="curve" smooth="yes"/>
      <point x="509" y="227" type="line" smooth="yes"/>
      <point x="509" y="80.3333"/>
      <point x="416.333" y="-9"/>
      <point x="287" y="-9" type="curve" smooth="yes"/>
      <point x="157.667" y="-9"/>
      <point x="65" y="80.3333"/>
    </contour>
    <contour>
      <point x="107" y="409" type="curve" smooth="yes"/>
      <point x="107" y="227" type="line" smooth="yes"/>
      <point x="107" y="105.667"/>
      <point x="175" y="33"/>
      <point x="287" y="33" type="curve" smooth="yes"/>
      <point x="399" y="33"/>
      <point x="467" y="105.667"/>
      <point x="467" y="227" type="curve" smooth="yes"/>
      <point x="467" y="409" type="line" smooth="yes"/>
      <point x="467" y="530.333"/>
      <point x="399" y="603"/>
      <point x="287" y="603" type="curve" smooth="yes"/>
      <point x="175" y="603"/>
      <point x="107" y="530.333"/>
    </contour>
  </outline>
</glyph>
<glyph name="P" format="1">
  <advance width="520"/>
  <unicode hex="0050"/>
  <outline>
    <contour>
      <point x="486" y="492" type="curve" smooth="yes"/>
      <point x="486" y="388.667"/>
      <point x="431" y="337"/>
      <point x="321" y="337" type="curve" smooth="yes"/>
      <point x="126" y="337" type="line"/>
      <point x="126" y="20" type="line" smooth="yes"/>
      <point x="126" y="-16"/>
      <point x="84" y="-16"/>
      <point x="84" y="20" type="curve" smooth="yes"/>
      <point x="84" y="605" type="line" smooth="yes"/>
      <point x="84" y="625.667"/>
      <point x="90.3333" y="636"/>
      <point x="103" y="636" type="curve" smooth="yes"/>
      <point x="279" y="636" type="line" smooth="yes"/>
      <point x="416.333" y="636"/>
      <point x="486" y="598.667"/>
    </contour>
    <contour>
      <point x="279" y="379" type="line" smooth="yes"/>
      <point x="399" y="379"/>
      <point x="444" y="398"/>
      <point x="444" y="486" type="curve" smooth="yes"/>
      <point x="444" y="574"/>
      <point x="399" y="594"/>
      <point x="279" y="594" type="curve" smooth="yes"/>
      <point x="126" y="594" type="line"/>
      <point x="126" y="379" type="line"/>
    </contour>
  </outline>
</glyph>
<glyph name="Q" format="1">
  <advance width="574"/>
  <unicode hex="0051"/>
  <outline>
    <contour>
      <point x="107" y="409" type="curve" smooth="yes"/>
      <point x="107" y="227" type="line" smooth="yes"/>
      <point x="107" y="166.333"/>
      <point x="123" y="118.833"/>
      <point x="155" y="84.5" type="curve" smooth="yes"/>
      <point x="187" y="50.1667"/>
      <point x="228.5" y="33"/>
      <point x="279.5" y="33" type="curve" smooth="yes"/>
      <point x="330.5" y="33"/>
      <point x="370.333" y="44.3333"/>
      <point x="399" y="67" type="curve"/>
      <point x="341" y="124" type="line" smooth="yes"/>
      <point x="315.301" y="149.699"/>
      <point x="343.523" y="181.477"/>
      <point x="371" y="154" type="curve" smooth="yes"/>
      <point x="429" y="95" type="line"/>
      <point x="454.333" y="128.333"/>
      <point x="467" y="172.333"/>
      <point x="467" y="227" type="curve" smooth="yes"/>
      <point x="467" y="409" type="line" smooth="yes"/>
      <point x="467" y="530.333"/>
      <point x="399" y="603"/>
      <point x="287" y="603" type="curve" smooth="yes"/>
      <point x="175" y="603"/>
      <point x="107" y="530.333"/>
    </contour>
    <contour>
      <point x="429" y="37" type="line"/>
      <point x="389" y="6.33333"/>
      <point x="339.167" y="-9"/>
      <point x="279.5" y="-9" type="curve" smooth="yes"/>
      <point x="160.167" y="-9"/>
      <point x="65" y="80.3333"/>
      <point x="65" y="227" type="curve" smooth="yes"/>
      <point x="65" y="409" type="line" smooth="yes"/>
      <point x="65" y="555.667"/>
      <point x="157.667" y="645"/>
      <point x="287" y="645" type="curve" smooth="yes"/>
      <point x="416.333" y="645"/>
      <point x="509" y="555.667"/>
      <point x="509" y="409" type="curve" smooth="yes"/>
      <point x="509" y="227" type="line" smooth="yes"/>
      <point x="509" y="161"/>
      <point x="492" y="107.667"/>
      <point x="458" y="67" type="curve"/>
      <point x="496" y="29" type="line" smooth="yes"/>
      <point x="520.221" y="4.77875"/>
      <point x="497.269" y="-27.4585"/>
      <point x="466" y="-1" type="curve"/>
    </contour>
  </outline>
</glyph>
<glyph name="R" format="1">
  <advance width="549"/>
  <unicode hex="0052"/>
  <outline>
    <contour>
      <point x="279" y="379" type="line"/>
      <point x="397.667" y="380.333"/>
      <point x="444" y="398"/>
      <point x="444" y="486" type="curve" smooth="yes"/>
      <point x="444" y="574"/>
      <point x="399" y="594"/>
      <point x="279" y="594" type="curve" smooth="yes"/>
      <point x="126" y="594" type="line"/>
      <point x="126" y="379" type="line"/>
    </contour>
    <contour>
      <point x="126" y="20" type="line" smooth="yes"/>
      <point x="126" y="-16"/>
      <point x="84" y="-16"/>
      <point x="84" y="20" type="curve" smooth="yes"/>
      <point x="84" y="605" type="line" smooth="yes"/>
      <point x="84" y="625.667"/>
      <point x="90.3333" y="636"/>
      <point x="103" y="636" type="curve" smooth="yes"/>
      <point x="279" y="636" type="line" smooth="yes"/>
      <point x="416.333" y="636"/>
      <point x="486" y="600.667"/>
      <point x="486" y="486" type="curve" smooth="yes"/>
      <point x="486" y="402"/>
      <point x="441.667" y="352"/>
      <point x="363" y="340" type="curve"/>
      <point x="385" y="322.667"/>
      <point x="406.833" y="287.833"/>
      <point x="428.5" y="235.5" type="curve" smooth="yes"/>
      <point x="471.833" y="130.833"/>
      <point x="494" y="36"/>
      <point x="494" y="20" type="curve" smooth="yes"/>
      <point x="494" y="2"/>
      <point x="486.667" y="-7"/>
      <point x="472" y="-7" type="curve"/>
      <point x="461.333" y="-5.66667"/>
      <point x="452" y="6"/>
      <point x="452" y="22" type="curve" smooth="yes"/>
      <point x="452" y="30"/>
      <point x="447.333" y="53"/>
      <point x="438" y="91" type="curve" smooth="yes"/>
      <point x="428.667" y="129"/>
      <point x="412.667" y="174"/>
      <point x="390" y="226" type="curve" smooth="yes"/>
      <point x="367.333" y="278"/>
      <point x="342" y="315"/>
      <point x="314" y="337" type="curve"/>
      <point x="126" y="337" type="line"/>
    </contour>
  </outline>
</glyph>
<glyph name="S" format="1">
  <advance width="570"/>
  <unicode hex="0053"/>
  <outline>
    <contour>
      <point x="168" y="376" type="curve" smooth="yes"/>
      <point x="385" y="324" type="line"/>
      <point x="467" y="303.333"/>
      <point x="508" y="246.667"/>
      <point x="508" y="154" type="curve" smooth="yes"/>
      <point x="508" y="66"/>
      <point x="461.667" y="-8"/>
      <point x="347" y="-8" type="curve" smooth="yes"/>
      <point x="271" y="-8" type="line" smooth="yes"/>
      <point x="201.667" y="-8"/>
      <point x="160" y="-2"/>
      <point x="120" y="22" type="curve" smooth="yes"/>
      <point x="81.3333" y="45.3333"/>
      <point x="62" y="93.6667"/>
      <point x="62" y="167" type="curve" smooth="yes"/>
      <point x="62" y="185.667"/>
      <point x="69.6667" y="195"/>
      <point x="85" y="195" type="curve" smooth="yes"/>
      <point x="98.3333" y="195"/>
      <point x="105" y="185.667"/>
      <point x="105" y="167" type="curve" smooth="yes"/>
      <point x="105" y="52.3333"/>
      <point x="145.667" y="34"/>
      <point x="271" y="34" type="curve" smooth="yes"/>
      <point x="364" y="34" type="line"/>
      <point x="512.353" y="36.2353"/>
      <point x="471.686" y="276.902"/>
      <point x="402" y="276" type="curve"/>
      <point x="186" y="329" type="line"/>
      <point x="95.3333" y="350.333"/>
      <point x="62" y="394.833"/>
      <point x="62" y="483.5" type="curve" smooth="yes"/>
      <point x="62" y="572.167"/>
      <point x="109.333" y="644"/>
      <point x="224" y="644" type="curve" smooth="yes"/>
      <point x="300" y="644" type="line" smooth="yes"/>
      <point x="369.333" y="644"/>
      <point x="410" y="638"/>
      <point x="450" y="614" type="curve" smooth="yes"/>
      <point x="488.667" y="591.333"/>
      <point x="508" y="543.667"/>
      <point x="508" y="471" type="curve" smooth="yes"/>
      <point x="508" y="433.667"/>
      <point x="465" y="433.667"/>
      <point x="465" y="471" type="curve" smooth="yes"/>
      <point x="465" y="593.277"/>
      <point x="412.528" y="602"/>
      <point x="300" y="602" type="curve" smooth="yes"/>
      <point x="206" y="602" type="line" smooth="yes"/>
      <point x="135.333" y="602"/>
      <point x="104" y="541.167"/>
      <point x="104" y="484.5" type="curve" smooth="yes"/>
      <point x="104" y="427.833"/>
      <point x="132" y="385.333"/>
    </contour>
  </outline>
</glyph>
<glyph name="T" format="1">
  <advance width="460"/>
  <unicode hex="0054"/>
  <outline>
    <contour>
      <point x="405" y="636" type="line" smooth="yes"/>
      <point x="442.333" y="636"/>
      <point x="442.333" y="594"/>
      <point x="405" y="594" type="curve" smooth="yes"/>
      <point x="251" y="594" type="line"/>
      <point x="251" y="20" type="line" smooth="yes"/>
      <point x="251" y="-16"/>
      <point x="209" y="-16"/>
      <point x="209" y="20" type="curve" smooth="yes"/>
      <point x="209" y="594" type="line"/>
      <point x="54" y="594" type="line" smooth="yes"/>
      <point x="16.6667" y="594"/>
      <point x="16.6667" y="636"/>
      <point x="54" y="636" type="curve" smooth="yes"/>
    </contour>
  </outline>
</glyph>
<glyph name="U" format="1">
  <advance width="598"/>
  <unicode hex="0055"/>
  <outline>
    <contour>
      <point x="479" y="615" type="line" smooth="yes"/>
      <point x="479" y="652.333"/>
      <point x="521" y="652.333"/>
      <point x="521" y="615" type="curve" smooth="yes"/>
      <point x="521" y="227" type="line" smooth="yes"/>
      <point x="521" y="80.3333"/>
      <point x="428.333" y="-9"/>
      <point x="299" y="-9" type="curve" smooth="yes"/>
      <point x="169.667" y="-9"/>
      <point x="77" y="80.3333"/>
      <point x="77" y="227" type="curve" smooth="yes"/>
      <point x="77" y="615" type="line" smooth="yes"/>
      <point x="77" y="652.333"/>
      <point x="119" y="652.333"/>
      <point x="119" y="615" type="curve" smooth="yes"/>
      <point x="119" y="227" type="line" smooth="yes"/>
      <point x="119" y="105.667"/>
      <point x="187" y="33"/>
      <point x="299" y="33" type="curve" smooth="yes"/>
      <point x="411" y="33"/>
      <point x="479" y="105.667"/>
      <point x="479" y="227" type="curve" smooth="yes"/>
    </contour>
  </outline>
</glyph>
<glyph name="V" format="1">
  <advance width="548"/>
  <unicode hex="0056"/>
  <outline>
    <contour>
      <point x="23" y="632" type="curve"/>
      <point x="25" y="645.333"/>
      <point x="32.6667" y="652"/>
      <point x="46" y="652" type="curve" smooth="yes"/>
      <point x="53.3333" y="652"/>
      <point x="60" y="645.333"/>
      <point x="66" y="632" type="curve"/>
      <point x="274" y="60" type="line"/>
      <point x="482" y="632" type="line" smooth="yes"/>
      <point x="487.333" y="645.333"/>
      <point x="494.667" y="652"/>
      <point x="504" y="652" type="curve" smooth="yes"/>
      <point x="525.709" y="652"/>
      <point x="526.738" y="631.215"/>
      <point x="522" y="617" type="curve" smooth="yes"/>
      <point x="297" y="0" type="line"/>
      <point x="251" y="0" type="line"/>
      <point x="26" y="617" type="line" smooth="yes"/>
      <point x="24" y="623"/>
      <point x="23" y="628"/>
    </contour>
  </outline>
</glyph>
<glyph name="W" format="1">
  <advance width="892"/>
  <unicode hex="0057"/>
  <outline>
    <contour>
      <point x="421" y="630" type="line" smooth="yes"/>
      <point x="430.333" y="659.333"/>
      <point x="459.667" y="659.333"/>
      <point x="469" y="630" type="curve" smooth="yes"/>
      <point x="646" y="60" type="line"/>
      <point x="822" y="632" type="line"/>
      <point x="848.928" y="678.216"/>
      <point x="876.484" y="630.549"/>
      <point x="862" y="617" type="curve"/>
      <point x="670" y="0" type="line"/>
      <point x="620" y="0" type="line"/>
      <point x="444" y="565" type="line"/>
      <point x="269" y="0" type="line"/>
      <point x="220" y="0" type="line"/>
      <point x="32" y="617" type="line" smooth="yes"/>
      <point x="30.6667" y="621"/>
      <point x="24" y="628.667"/>
      <point x="24" y="634" type="curve" smooth="yes"/>
      <point x="24" y="642"/>
      <point x="37.3333" y="652"/>
      <point x="48" y="652" type="curve" smooth="yes"/>
      <point x="56.6667" y="652"/>
      <point x="63" y="645.333"/>
      <point x="67" y="632" type="curve" smooth="yes"/>
      <point x="245" y="60" type="line"/>
    </contour>
  </outline>
</glyph>
<glyph name="X" format="1">
  <advance width="537"/>
  <unicode hex="0058"/>
  <outline>
    <contour>
      <point x="460" y="627" type="line" smooth="yes"/>
      <point x="486.505" y="665.552"/>
      <point x="513.669" y="625.336"/>
      <point x="495" y="604" type="curve"/>
      <point x="294" y="317" type="line"/>
      <point x="495" y="32" type="line"/>
      <point x="511.694" y="5.76721"/>
      <point x="487.16" y="-27.567"/>
      <point x="460" y="7" type="curve"/>
      <point x="268" y="281" type="line"/>
      <point x="77" y="7" type="line"/>
      <point x="49.8402" y="-27.567"/>
      <point x="25.3064" y="5.76721"/>
      <point x="42" y="32" type="curve"/>
      <point x="243" y="317" type="line"/>
      <point x="42" y="604" type="line"/>
      <point x="23.3404" y="625.325"/>
      <point x="50.1112" y="666.111"/>
      <point x="77" y="627" type="curve" smooth="yes"/>
      <point x="268" y="354" type="line"/>
    </contour>
  </outline>
</glyph>
<glyph name="Y" format="1">
  <advance width="499"/>
  <unicode hex="0059"/>
  <outline>
    <contour>
      <point x="229" y="310" type="line"/>
      <point x="23" y="604" type="line" smooth="yes"/>
      <point x="13.6667" y="617.333"/>
      <point x="14" y="628"/>
      <point x="22" y="636" type="curve"/>
      <point x="32.6667" y="644"/>
      <point x="42.3333" y="648.333"/>
      <point x="57" y="627" type="curve" smooth="yes"/>
      <point x="249" y="354" type="line"/>
      <point x="440" y="627" type="line"/>
      <point x="448.667" y="637.667"/>
      <point x="455.667" y="643"/>
      <point x="461" y="643" type="curve"/>
      <point x="480.397" y="640.845"/>
      <point x="488.351" y="623.073"/>
      <point x="475" y="604" type="curve" smooth="yes"/>
      <point x="270" y="310" type="line"/>
      <point x="270" y="20" type="line" smooth="yes"/>
      <point x="270" y="-16"/>
      <point x="230.333" y="-16"/>
      <point x="229" y="20" type="curve"/>
    </contour>
  </outline>
</glyph>
<glyph name="Z" format="1">
  <advance width="535"/>
  <unicode hex="005A"/>
  <outline>
    <contour>
      <point x="46" y="0" type="line"/>
      <point x="46" y="44" type="line"/>
      <point x="442" y="594" type="line"/>
      <point x="76" y="594" type="line" smooth="yes"/>
      <point x="34.6667" y="594"/>
      <point x="34.6667" y="636"/>
      <point x="76" y="636" type="curve" smooth="yes"/>
      <point x="489" y="636" type="line"/>
      <point x="489" y="590" type="line"/>
      <point x="95" y="42" type="line"/>
      <point x="459" y="42" type="line" smooth="yes"/>
      <point x="499" y="42"/>
      <point x="499" y="0"/>
      <point x="459" y="0" type="curve" smooth="yes"/>
    </contour>
  </outline>
</glyph>
<glyph name="bracketleft" format="1">
  <advance width="244"/>
  <unicode hex="005B"/>
  <outline>
    <contour>
      <point x="200" y="636" type="line"/>
      <point x="122" y="636" type="line"/>
      <point x="122" y="0" type="line"/>
      <point x="200" y="0" type="line"/>
      <point x="200" y="-42" type="line"/>
      <point x="80" y="-42" type="line"/>
      <point x="80" y="678" type="line"/>
      <point x="200" y="678" type="line"/>
    </contour>
  </outline>
</glyph>
<glyph name="backslash" format="1">
  <advance width="349"/>
  <unicode hex="005C"/>
  <outline>
    <contour>
      <point x="64" y="645" type="curve" smooth="yes"/>
      <point x="74" y="645"/>
      <point x="81" y="638.333"/>
      <point x="85" y="625" type="curve"/>
      <point x="303" y="27" type="line" smooth="yes"/>
      <point x="305" y="20.3333"/>
      <point x="306" y="15"/>
      <point x="306" y="11" type="curve" smooth="yes"/>
      <point x="306" y="-1.66667"/>
      <point x="298.667" y="-8"/>
      <point x="284" y="-8" type="curve" smooth="yes"/>
      <point x="274.667" y="-8"/>
      <point x="268" y="-1.33333"/>
      <point x="264" y="12" type="curve"/>
      <point x="46" y="610" type="line" smooth="yes"/>
      <point x="44" y="616"/>
      <point x="43" y="621.333"/>
      <point x="43" y="626" type="curve" smooth="yes"/>
      <point x="43" y="638.667"/>
      <point x="50" y="645"/>
    </contour>
  </outline>
</glyph>
<glyph name="bracketright" format="1">
  <advance width="244"/>
  <unicode hex="005D"/>
  <outline>
    <contour>
      <point x="44" y="0" type="line"/>
      <point x="122" y="0" type="line"/>
      <point x="122" y="636" type="line"/>
      <point x="44" y="636" type="line"/>
      <point x="44" y="678" type="line"/>
      <point x="164" y="678" type="line"/>
      <point x="164" y="-42" type="line"/>
      <point x="44" y="-42" type="line"/>
    </contour>
  </outline>
</glyph>
<glyph name="asciicircum" format="1">
  <advance width="443"/>
  <unicode hex="005E"/>
  <outline>
    <contour>
      <point x="223" y="590" type="line"/>
      <point x="220" y="590" type="line"/>
      <point x="127" y="383" type="line" smooth="yes"/>
      <point x="121" y="371"/>
      <point x="113" y="365"/>
      <point x="103" y="365" type="curve" smooth="yes"/>
      <point x="91" y="365"/>
      <point x="85" y="371"/>
      <point x="85" y="383" type="curve"/>
      <point x="85" y="384.333"/>
      <point x="85.6667" y="387.667"/>
      <point x="87" y="393" type="curve"/>
      <point x="195" y="636" type="line"/>
      <point x="249" y="636" type="line"/>
      <point x="356" y="393" type="line" smooth="yes"/>
      <point x="357.333" y="390.333"/>
      <point x="358" y="387"/>
      <point x="358" y="383" type="curve" smooth="yes"/>
      <point x="358" y="371"/>
      <point x="352" y="365"/>
      <point x="340" y="365" type="curve" smooth="yes"/>
      <point x="330" y="365"/>
      <point x="322" y="371"/>
      <point x="316" y="383" type="curve" smooth="yes"/>
    </contour>
  </outline>
</glyph>
<glyph name="underscore" format="1">
  <advance width="475"/>
  <unicode hex="005F"/>
  <outline>
    <contour>
      <point x="28" y="-42" type="line" smooth="yes"/>
      <point x="-9.33333" y="-42"/>
      <point x="-9.33333" y="0"/>
      <point x="28" y="0" type="curve" smooth="yes"/>
      <point x="447" y="0" type="line" smooth="yes"/>
      <point x="484.333" y="0"/>
      <point x="484.333" y="-42"/>
      <point x="447" y="-42" type="curve" smooth="yes"/>
    </contour>
  </outline>
</glyph>
<glyph name="grave" format="1">
  <advance width="212"/>
  <unicode hex="0060"/>
  <outline>
    <contour>
      <point x="42" y="638" type="line"/>
      <point x="21.3393" y="661.243"/>
      <point x="45.9722" y="696.447"/>
      <point x="75" y="665" type="curve"/>
      <point x="171" y="550" type="line"/>
      <point x="191.661" y="526.757"/>
      <point x="167.028" y="491.553"/>
      <point x="138" y="523" type="curve"/>
    </contour>
  </outline>
</glyph>
<glyph name="a" format="1">
  <advance width="534"/>
  <unicode hex="0061"/>
  <outline>
    <contour>
      <point x="268" y="248" type="line" smooth="yes"/>
      <point x="183.796" y="248"/>
      <point x="131.338" y="243.382"/>
      <point x="111.5" y="187" type="curve" smooth="yes"/>
      <point x="90.1429" y="126.301"/>
      <point x="107.619" y="42"/>
      <point x="162" y="42" type="curve" smooth="yes"/>
      <point x="255" y="42" type="line" smooth="yes"/>
      <point x="360.333" y="42"/>
      <point x="420" y="108"/>
      <point x="420" y="228" type="curve" smooth="yes"/>
      <point x="420" y="248" type="line"/>
    </contour>
    <contour>
      <point x="268" y="290" type="curve" smooth="yes"/>
      <point x="420" y="290" type="line"/>
      <point x="420" y="354" type="line" smooth="yes"/>
      <point x="420" y="400.667"/>
      <point x="405.333" y="419"/>
      <point x="360" y="419" type="curve" smooth="yes"/>
      <point x="219" y="419" type="line" smooth="yes"/>
      <point x="141" y="419"/>
      <point x="102" y="397.333"/>
      <point x="102" y="354" type="curve" smooth="yes"/>
      <point x="102" y="314"/>
      <point x="60" y="314"/>
      <point x="60" y="354" type="curve" smooth="yes"/>
      <point x="60" y="426"/>
      <point x="122.667" y="461"/>
      <point x="212" y="461" type="curve" smooth="yes"/>
      <point x="367" y="461" type="line" smooth="yes"/>
      <point x="440.333" y="461"/>
      <point x="462" y="430.333"/>
      <point x="462" y="337" type="curve" smooth="yes"/>
      <point x="462" y="23" type="line" smooth="yes"/>
      <point x="462" y="-17"/>
      <point x="420" y="-17"/>
      <point x="420" y="23" type="curve" smooth="yes"/>
      <point x="420" y="72" type="line"/>
      <point x="384" y="24"/>
      <point x="329" y="0"/>
      <point x="255" y="0" type="curve" smooth="yes"/>
      <point x="162" y="0" type="line" smooth="yes"/>
      <point x="131.333" y="0"/>
      <point x="106.667" y="10.6667"/>
      <point x="88" y="32" type="curve" smooth="yes"/>
      <point x="69.3333" y="54.6667"/>
      <point x="60" y="82"/>
      <point x="60" y="114" type="curve" smooth="yes"/>
      <point x="60" y="199.333"/>
      <point x="87" y="252"/>
      <point x="141" y="272" type="curve" smooth="yes"/>
      <point x="173" y="284"/>
      <point x="215.333" y="290"/>
    </contour>
  </outline>
</glyph>
<glyph name="b" format="1">
  <advance width="580"/>
  <unicode hex="0062"/>
  <outline>
    <contour>
      <point x="116" y="389" type="line"/>
      <point x="153.333" y="437"/>
      <point x="208.667" y="461"/>
      <point x="282" y="461" type="curve" smooth="yes"/>
      <point x="311" y="461" type="line" smooth="yes"/>
      <point x="451" y="461"/>
      <point x="518" y="426"/>
      <point x="518" y="286" type="curve" smooth="yes"/>
      <point x="518" y="175" type="line" smooth="yes"/>
      <point x="518" y="35"/>
      <point x="451" y="0"/>
      <point x="311" y="0" type="curve" smooth="yes"/>
      <point x="282" y="0" type="line" smooth="yes"/>
      <point x="208.667" y="0"/>
      <point x="153.333" y="24"/>
      <point x="116" y="72" type="curve"/>
      <point x="116" y="23" type="line" smooth="yes"/>
      <point x="116" y="-17"/>
      <point x="74" y="-17"/>
      <point x="74" y="23" type="curve" smooth="yes"/>
      <point x="74" y="612" type="line" smooth="yes"/>
      <point x="74" y="632.667"/>
      <point x="80.3333" y="643"/>
      <point x="93" y="643" type="curve" smooth="yes"/>
      <point x="108.333" y="643"/>
      <point x="116" y="632.667"/>
      <point x="116" y="612" type="curve" smooth="yes"/>
    </contour>
    <contour>
      <point x="282" y="419" type="line" smooth="yes"/>
      <point x="175.333" y="419"/>
      <point x="116" y="352"/>
      <point x="116" y="232" type="curve" smooth="yes"/>
      <point x="116" y="228" type="line" smooth="yes"/>
      <point x="116" y="108"/>
      <point x="175.333" y="42"/>
      <point x="282" y="42" type="curve" smooth="yes"/>
      <point x="311" y="42" type="line" smooth="yes"/>
      <point x="422.143" y="42"/>
      <point x="476" y="52.9827"/>
      <point x="476" y="175" type="curve" smooth="yes"/>
      <point x="476" y="286" type="line" smooth="yes"/>
      <point x="476" y="408.017"/>
      <point x="422.143" y="419"/>
      <point x="311" y="419" type="curve" smooth="yes"/>
    </contour>
  </outline>
</glyph>
<glyph name="c" format="1">
  <advance width="564"/>
  <unicode hex="0063"/>
  <outline>
    <contour>
      <point x="411" y="0" type="curve" smooth="yes"/>
      <point x="270" y="0" type="line" smooth="yes"/>
      <point x="128.667" y="0"/>
      <point x="62" y="35"/>
      <point x="62" y="175" type="curve" smooth="yes"/>
      <point x="62" y="286" type="line" smooth="yes"/>
      <point x="62" y="426"/>
      <point x="128.667" y="461"/>
      <point x="270" y="461" type="curve" smooth="yes"/>
      <point x="411" y="461" type="line"/>
      <point x="412.333" y="461"/>
      <point x="413.667" y="461"/>
      <point x="415" y="461" type="curve"/>
      <point x="455" y="461"/>
      <point x="480" y="450.333"/>
      <point x="490" y="429" type="curve" smooth="yes"/>
      <point x="511.333" y="385"/>
      <point x="513" y="324"/>
      <point x="485" y="324" type="curve" smooth="yes"/>
      <point x="471" y="324"/>
      <point x="464" y="334.667"/>
      <point x="464" y="356" type="curve" smooth="yes"/>
      <point x="464" y="398.667"/>
      <point x="449.333" y="419"/>
      <point x="404" y="419" type="curve" smooth="yes"/>
      <point x="270" y="419" type="line" smooth="yes"/>
      <point x="157.186" y="419"/>
      <point x="104" y="408.017"/>
      <point x="104" y="286" type="curve" smooth="yes"/>
      <point x="104" y="175" type="line" smooth="yes"/>
      <point x="104" y="52.9827"/>
      <point x="157.186" y="42"/>
      <point x="270" y="42" type="curve" smooth="yes"/>
      <point x="404" y="42" type="line" smooth="yes"/>
      <point x="426.667" y="42"/>
      <point x="442.333" y="47"/>
      <point x="451" y="57" type="curve" smooth="yes"/>
      <point x="459.667" y="67"/>
      <point x="464" y="82.8333"/>
      <point x="464" y="104.5" type="curve" smooth="yes"/>
      <point x="464" y="126.167"/>
      <point x="471" y="137"/>
      <point x="485" y="137" type="curve"/>
      <point x="499" y="136.333"/>
      <point x="506" y="127.333"/>
      <point x="506" y="110" type="curve" smooth="yes"/>
      <point x="506" y="48.6667"/>
      <point x="495" y="0"/>
    </contour>
  </outline>
</glyph>
<glyph name="d" format="1">
  <advance width="580"/>
  <unicode hex="0064"/>
  <outline>
    <contour>
      <point x="104" y="175" type="line" smooth="yes"/>
      <point x="104" y="52.9827"/>
      <point x="157.186" y="42"/>
      <point x="270" y="42" type="curve" smooth="yes"/>
      <point x="299" y="42" type="line" smooth="yes"/>
      <point x="404.333" y="42"/>
      <point x="464" y="108"/>
      <point x="464" y="228" type="curve" smooth="yes"/>
      <point x="464" y="419" type="line"/>
      <point x="270" y="419" type="line" smooth="yes"/>
      <point x="157.186" y="419"/>
      <point x="104" y="408.017"/>
      <point x="104" y="286" type="curve" smooth="yes"/>
    </contour>
    <contour>
      <point x="62" y="286" type="line" smooth="yes"/>
      <point x="62" y="426"/>
      <point x="128.667" y="461"/>
      <point x="270" y="461" type="curve" smooth="yes"/>
      <point x="464" y="461" type="line"/>
      <point x="464" y="612" type="line" smooth="yes"/>
      <point x="464" y="632.667"/>
      <point x="471.667" y="643"/>
      <point x="487" y="643" type="curve" smooth="yes"/>
      <point x="499.667" y="643"/>
      <point x="506" y="632.667"/>
      <point x="506" y="612" type="curve" smooth="yes"/>
      <point x="506" y="23" type="line" smooth="yes"/>
      <point x="506" y="-17"/>
      <point x="464" y="-17"/>
      <point x="464" y="23" type="curve" smooth="yes"/>
      <point x="464" y="72" type="line"/>
      <point x="428" y="24"/>
      <point x="373" y="0"/>
      <point x="299" y="0" type="curve" smooth="yes"/>
      <point x="270" y="0" type="line" smooth="yes"/>
      <point x="128.667" y="0"/>
      <point x="62" y="35"/>
      <point x="62" y="175" type="curve" smooth="yes"/>
    </contour>
  </outline>
</glyph>
<glyph name="f" format="1">
  <advance width="313"/>
  <unicode hex="0066"/>
  <outline>
    <contour>
      <point x="287" y="594" type="curve" smooth="yes"/>
      <point x="174.186" y="594"/>
      <point x="121" y="583.017"/>
      <point x="121" y="461" type="curve"/>
      <point x="264" y="461" type="line" smooth="yes"/>
      <point x="284.667" y="461"/>
      <point x="295" y="453.333"/>
      <point x="295" y="438" type="curve" smooth="yes"/>
      <point x="295" y="425.333"/>
      <point x="284.667" y="419"/>
      <point x="264" y="419" type="curve" smooth="yes"/>
      <point x="121" y="419" type="line"/>
      <point x="121" y="24" type="line" smooth="yes"/>
      <point x="121" y="3.33333"/>
      <point x="113.333" y="-7"/>
      <point x="98" y="-7" type="curve" smooth="yes"/>
      <point x="85.3333" y="-7"/>
      <point x="79" y="3.33333"/>
      <point x="79" y="24" type="curve" smooth="yes"/>
      <point x="79" y="419" type="line"/>
      <point x="37.6667" y="419"/>
      <point x="37.6667" y="461"/>
      <point x="79" y="461" type="curve"/>
      <point x="79" y="534.333"/>
      <point x="98.3333" y="582.667"/>
      <point x="137" y="606" type="curve" smooth="yes"/>
      <point x="177" y="630"/>
      <point x="217.667" y="636"/>
      <point x="287" y="636" type="curve" smooth="yes"/>
      <point x="307.667" y="636"/>
      <point x="318" y="628.333"/>
      <point x="318" y="613" type="curve" smooth="yes"/>
      <point x="318" y="600.333"/>
      <point x="307.667" y="594"/>
    </contour>
  </outline>
</glyph>
<glyph name="g" format="1">
  <advance width="581"/>
  <unicode hex="0067"/>
  <outline>
    <contour>
      <point x="62" y="286" type="line" smooth="yes"/>
      <point x="62" y="426"/>
      <point x="128.667" y="461"/>
      <point x="270" y="461" type="curve" smooth="yes"/>
      <point x="299" y="461" type="line" smooth="yes"/>
      <point x="373" y="461"/>
      <point x="428" y="437"/>
      <point x="464" y="389" type="curve"/>
      <point x="464" y="438" type="line" smooth="yes"/>
      <point x="464" y="478"/>
      <point x="506" y="478"/>
      <point x="506" y="438" type="curve" smooth="yes"/>
      <point x="506" y="-92" type="line" smooth="yes"/>
      <point x="506" y="-177.333"/>
      <point x="486.667" y="-205"/>
      <point x="420" y="-205" type="curve" smooth="yes"/>
      <point x="157" y="-205" type="line"/>
      <point x="155.667" y="-205"/>
      <point x="154.333" y="-205"/>
      <point x="153" y="-205" type="curve"/>
      <point x="113" y="-205"/>
      <point x="88" y="-194.333"/>
      <point x="78" y="-173" type="curve" smooth="yes"/>
      <point x="56.6667" y="-129"/>
      <point x="55" y="-68"/>
      <point x="83" y="-68" type="curve" smooth="yes"/>
      <point x="97" y="-68"/>
      <point x="104" y="-78.6667"/>
      <point x="104" y="-100" type="curve" smooth="yes"/>
      <point x="104" y="-142.667"/>
      <point x="118.667" y="-163"/>
      <point x="164" y="-163" type="curve" smooth="yes"/>
      <point x="413" y="-163" type="line" smooth="yes"/>
      <point x="454.333" y="-163"/>
      <point x="464" y="-150.667"/>
      <point x="464" y="-108" type="curve" smooth="yes"/>
      <point x="464" y="9" type="line"/>
      <point x="451.333" y="3"/>
      <point x="433.667" y="0"/>
      <point x="411" y="0" type="curve" smooth="yes"/>
      <point x="270" y="0" type="line" smooth="yes"/>
      <point x="128.667" y="0"/>
      <point x="62" y="35"/>
      <point x="62" y="175" type="curve" smooth="yes"/>
    </contour>
    <contour>
      <point x="104" y="175" type="line" smooth="yes"/>
      <point x="104" y="52.9827"/>
      <point x="157.186" y="42"/>
      <point x="270" y="42" type="curve" smooth="yes"/>
      <point x="404" y="42" type="line" smooth="yes"/>
      <point x="449.333" y="42"/>
      <point x="464" y="59.3333"/>
      <point x="464" y="106" type="curve" smooth="yes"/>
      <point x="464" y="232" type="line" smooth="yes"/>
      <point x="464" y="352"/>
      <point x="404.333" y="419"/>
      <point x="299" y="419" type="curve" smooth="yes"/>
      <point x="270" y="419" type="line" smooth="yes"/>
      <point x="157.186" y="419"/>
      <point x="104" y="408.017"/>
      <point x="104" y="286" type="curve" smooth="yes"/>
    </contour>
  </outline>
</glyph>
<glyph name="h" format="1">
  <advance width="588"/>
  <unicode hex="0068"/>
  <outline>
    <contour>
      <point x="282" y="419" type="line" smooth="yes"/>
      <point x="175.333" y="419"/>
      <point x="116" y="352"/>
      <point x="116" y="232" type="curve" smooth="yes"/>
      <point x="116" y="23" type="line" smooth="yes"/>
      <point x="116" y="-17"/>
      <point x="74" y="-17"/>
      <point x="74" y="23" type="curve" smooth="yes"/>
      <point x="74" y="612" type="line" smooth="yes"/>
      <point x="74" y="632.667"/>
      <point x="80.3333" y="643"/>
      <point x="93" y="643" type="curve" smooth="yes"/>
      <point x="108.333" y="643"/>
      <point x="116" y="632.667"/>
      <point x="116" y="612" type="curve" smooth="yes"/>
      <point x="116" y="389" type="line"/>
      <point x="153.333" y="437"/>
      <point x="208.667" y="461"/>
      <point x="282" y="461" type="curve" smooth="yes"/>
      <point x="311" y="461" type="line" smooth="yes"/>
      <point x="451" y="461"/>
      <point x="518" y="426"/>
      <point x="518" y="286" type="curve" smooth="yes"/>
      <point x="518" y="23" type="line" smooth="yes"/>
      <point x="518" y="-17"/>
      <point x="476" y="-17"/>
      <point x="476" y="23" type="curve" smooth="yes"/>
      <point x="476" y="286" type="line" smooth="yes"/>
      <point x="476" y="408.017"/>
      <point x="422.143" y="419"/>
      <point x="311" y="419" type="curve" smooth="yes"/>
    </contour>
  </outline>
</glyph>
<glyph name="i" format="1">
  <advance width="190"/>
  <unicode hex="0069"/>
  <outline>
    <contour>
      <point x="49" y="601" type="curve"/>
      <point x="52.2442" y="646.419"/>
      <point x="141" y="647.653"/>
      <point x="141" y="601" type="curve" smooth="yes"/>
      <point x="141" y="554.882"/>
      <point x="49" y="554.882"/>
    </contour>
    <contour>
      <point x="116" y="20" type="line" smooth="yes"/>
      <point x="116" y="-16"/>
      <point x="74" y="-16"/>
      <point x="74" y="20" type="curve" smooth="yes"/>
      <point x="74" y="440" type="line" smooth="yes"/>
      <point x="74" y="477.333"/>
      <point x="116" y="477.333"/>
      <point x="116" y="440" type="curve" smooth="yes"/>
    </contour>
  </outline>
</glyph>
<glyph name="j" format="1">
  <advance width="192"/>
  <unicode hex="006A"/>
  <outline>
    <contour>
      <point x="65.5" y="576" type="curve"/>
      <point x="17.0588" y="605.739"/>
      <point x="93.5588" y="661.516"/>
      <point x="127" y="626" type="curve"/>
      <point x="173.663" y="596.261"/>
      <point x="100.719" y="540.484"/>
    </contour>
    <contour>
      <point x="117" y="0" type="line" smooth="yes"/>
      <point x="117" y="-74.6667"/>
      <point x="97.6667" y="-123.333"/>
      <point x="59" y="-146" type="curve" smooth="yes"/>
      <point x="19" y="-170"/>
      <point x="-21.6667" y="-175"/>
      <point x="-91" y="-175" type="curve" smooth="yes"/>
      <point x="-132.333" y="-175"/>
      <point x="-132.333" y="-133"/>
      <point x="-91" y="-133" type="curve" smooth="yes"/>
      <point x="21.8139" y="-133"/>
      <point x="75" y="-122.017"/>
      <point x="75" y="0" type="curve" smooth="yes"/>
      <point x="75" y="437" type="line" smooth="yes"/>
      <point x="75" y="478.333"/>
      <point x="117" y="478.333"/>
      <point x="117" y="437" type="curve" smooth="yes"/>
    </contour>
  </outline>
</glyph>
<glyph name="k" format="1">
  <advance width="433"/>
  <unicode hex="006B"/>
  <outline>
    <contour>
      <point x="411" y="35" type="line" smooth="yes"/>
      <point x="435.575" y="10.4248"/>
      <point x="409.131" y="-23.1307"/>
      <point x="381" y="5" type="curve" smooth="yes"/>
      <point x="150" y="237" type="line"/>
      <point x="116" y="203" type="line"/>
      <point x="116" y="20" type="line" smooth="yes"/>
      <point x="116" y="-16"/>
      <point x="74" y="-16"/>
      <point x="74" y="20" type="curve" smooth="yes"/>
      <point x="74" y="615" type="line" smooth="yes"/>
      <point x="74" y="652.333"/>
      <point x="116" y="652.333"/>
      <point x="116" y="615" type="curve" smooth="yes"/>
      <point x="116" y="262" type="line"/>
      <point x="308" y="455" type="line"/>
      <point x="337.318" y="479.808"/>
      <point x="365.021" y="452.021"/>
      <point x="338" y="425" type="curve" smooth="yes"/>
      <point x="179" y="266" type="line"/>
    </contour>
  </outline>
</glyph>
<glyph name="l" format="1">
  <advance width="260"/>
  <unicode hex="006C"/>
  <outline>
    <contour>
      <point x="192" y="0" type="curve" smooth="yes"/>
      <point x="185" y="0" type="line" smooth="yes"/>
      <point x="111.667" y="0"/>
      <point x="90" y="30.6667"/>
      <point x="90" y="124" type="curve" smooth="yes"/>
      <point x="90" y="613" type="line" smooth="yes"/>
      <point x="90" y="653"/>
      <point x="132" y="653"/>
      <point x="132" y="613" type="curve" smooth="yes"/>
      <point x="132" y="106" type="line" smooth="yes"/>
      <point x="132" y="59.3333"/>
      <point x="147.333" y="42"/>
      <point x="190" y="42" type="curve" smooth="yes"/>
      <point x="232.667" y="42"/>
      <point x="232" y="0"/>
    </contour>
  </outline>
</glyph>
<glyph name="m" format="1">
  <advance width="812"/>
  <unicode hex="006D"/>
  <outline>
    <contour>
      <point x="251" y="419" type="curve" smooth="yes"/>
      <point x="165.667" y="419"/>
      <point x="116" y="352"/>
      <point x="116" y="232" type="curve" smooth="yes"/>
      <point x="116" y="23" type="line" smooth="yes"/>
      <point x="116" y="-17"/>
      <point x="74" y="-17"/>
      <point x="74" y="23" type="curve" smooth="yes"/>
      <point x="74" y="437" type="line" smooth="yes"/>
      <point x="74" y="457.667"/>
      <point x="80.3333" y="468"/>
      <point x="93" y="468" type="curve" smooth="yes"/>
      <point x="108.333" y="468"/>
      <point x="116" y="457.667"/>
      <point x="116" y="437" type="curve" smooth="yes"/>
      <point x="116" y="389" type="line"/>
      <point x="156" y="441"/>
      <point x="185" y="461"/>
      <point x="261" y="461" type="curve" smooth="yes"/>
      <point x="337" y="461"/>
      <point x="394.333" y="442"/>
      <point x="417" y="374" type="curve"/>
      <point x="448.333" y="432"/>
      <point x="495.333" y="461"/>
      <point x="558" y="461" type="curve" smooth="yes"/>
      <point x="683.333" y="461"/>
      <point x="741" y="426"/>
      <point x="741" y="286" type="curve" smooth="yes"/>
      <point x="741" y="23" type="line" smooth="yes"/>
      <point x="741" y="-17"/>
      <point x="699" y="-17"/>
      <point x="699" y="23" type="curve" smooth="yes"/>
      <point x="699" y="286" type="line" smooth="yes"/>
      <point x="699" y="408.017"/>
      <point x="658.515" y="419"/>
      <point x="563" y="419" type="curve" smooth="yes"/>
      <point x="477.667" y="419"/>
      <point x="428" y="352"/>
      <point x="428" y="232" type="curve" smooth="yes"/>
      <point x="428" y="23" type="line" smooth="yes"/>
      <point x="428" y="-17"/>
      <point x="386" y="-17"/>
      <point x="386" y="23" type="curve" smooth="yes"/>
      <point x="386" y="286" type="line" smooth="yes"/>
      <point x="386" y="408.017"/>
      <point x="345.468" y="419"/>
    </contour>
  </outline>
</glyph>
<glyph name="o" format="1">
  <advance width="568"/>
  <unicode hex="006F"/>
  <outline>
    <contour>
      <point x="299" y="0" type="curve" smooth="yes"/>
      <point x="270" y="0" type="line" smooth="yes"/>
      <point x="128.667" y="0"/>
      <point x="62" y="35"/>
      <point x="62" y="175" type="curve" smooth="yes"/>
      <point x="62" y="286" type="line" smooth="yes"/>
      <point x="62" y="426"/>
      <point x="128.667" y="461"/>
      <point x="270" y="461" type="curve" smooth="yes"/>
      <point x="299" y="461" type="line" smooth="yes"/>
      <point x="439" y="461"/>
      <point x="506" y="426"/>
      <point x="506" y="286" type="curve" smooth="yes"/>
      <point x="506" y="175" type="line" smooth="yes"/>
      <point x="506" y="35"/>
      <point x="439" y="0"/>
    </contour>
    <contour>
      <point x="270" y="42" type="curve" smooth="yes"/>
      <point x="299" y="42" type="line" smooth="yes"/>
      <point x="410.143" y="42"/>
      <point x="464" y="52.9827"/>
      <point x="464" y="175" type="curve" smooth="yes"/>
      <point x="464" y="286" type="line" smooth="yes"/>
      <point x="464" y="408.017"/>
      <point x="410.143" y="419"/>
      <point x="299" y="419" type="curve" smooth="yes"/>
      <point x="270" y="419" type="line" smooth="yes"/>
      <point x="157.186" y="419"/>
      <point x="104" y="408.017"/>
      <point x="104" y="286" type="curve" smooth="yes"/>
      <point x="104" y="175" type="line" smooth="yes"/>
      <point x="104" y="52.9827"/>
      <point x="157.186" y="42"/>
    </contour>
  </outline>
</glyph>
<glyph name="p" format="1">
  <advance width="581"/>
  <unicode hex="0070"/>
  <outline>
    <contour>
      <point x="477" y="286" type="line" smooth="yes"/>
      <point x="477" y="408.017"/>
      <point x="423.143" y="419"/>
      <point x="312" y="419" type="curve" smooth="yes"/>
      <point x="283" y="419" type="line" smooth="yes"/>
      <point x="176.333" y="419"/>
      <point x="117" y="352"/>
      <point x="117" y="232" type="curve" smooth="yes"/>
      <point x="117" y="42" type="line"/>
      <point x="312" y="42" type="line" smooth="yes"/>
      <point x="423.143" y="42"/>
      <point x="477" y="52.9827"/>
      <point x="477" y="175" type="curve" smooth="yes"/>
    </contour>
    <contour>
      <point x="519" y="175" type="line" smooth="yes"/>
      <point x="519" y="35"/>
      <point x="452" y="0"/>
      <point x="312" y="0" type="curve" smooth="yes"/>
      <point x="117" y="0" type="line"/>
      <point x="117" y="-152" type="line" smooth="yes"/>
      <point x="117" y="-172"/>
      <point x="109.333" y="-182"/>
      <point x="94" y="-182" type="curve" smooth="yes"/>
      <point x="81.3333" y="-182"/>
      <point x="75" y="-172"/>
      <point x="75" y="-152" type="curve" smooth="yes"/>
      <point x="75" y="438" type="line" smooth="yes"/>
      <point x="75" y="478"/>
      <point x="117" y="478"/>
      <point x="117" y="438" type="curve" smooth="yes"/>
      <point x="117" y="389" type="line"/>
      <point x="154.333" y="437"/>
      <point x="209.667" y="461"/>
      <point x="283" y="461" type="curve" smooth="yes"/>
      <point x="312" y="461" type="line" smooth="yes"/>
      <point x="452" y="461"/>
      <point x="519" y="426"/>
      <point x="519" y="286" type="curve" smooth="yes"/>
    </contour>
  </outline>
</glyph>
<glyph name="q" format="1">
  <advance width="581"/>
  <unicode hex="0071"/>
  <outline>
    <contour>
      <point x="104" y="286" type="curve" smooth="yes"/>
      <point x="104" y="175" type="line" smooth="yes"/>
      <point x="104" y="52.9827"/>
      <point x="157.186" y="42"/>
      <point x="270" y="42" type="curve" smooth="yes"/>
      <point x="464" y="42" type="line"/>
      <point x="464" y="232" type="line" smooth="yes"/>
      <point x="464" y="352"/>
      <point x="404.333" y="419"/>
      <point x="299" y="419" type="curve" smooth="yes"/>
      <point x="270" y="419" type="line" smooth="yes"/>
      <point x="157.186" y="419"/>
      <point x="104" y="408.017"/>
    </contour>
    <contour>
      <point x="62" y="175" type="curve" smooth="yes"/>
      <point x="62" y="286" type="line" smooth="yes"/>
      <point x="62" y="426"/>
      <point x="128.667" y="461"/>
      <point x="270" y="461" type="curve" smooth="yes"/>
      <point x="299" y="461" type="line" smooth="yes"/>
      <point x="373" y="461"/>
      <point x="428" y="437"/>
      <point x="464" y="389" type="curve"/>
      <point x="464" y="438" type="line" smooth="yes"/>
      <point x="464" y="478"/>
      <point x="506" y="478"/>
      <point x="506" y="438" type="curve" smooth="yes"/>
      <point x="506" y="-152" type="line" smooth="yes"/>
      <point x="506" y="-172"/>
      <point x="499.667" y="-182"/>
      <point x="487" y="-182" type="curve" smooth="yes"/>
      <point x="471.667" y="-182"/>
      <point x="464" y="-172"/>
      <point x="464" y="-152" type="curve" smooth="yes"/>
      <point x="464" y="0" type="line"/>
      <point x="270" y="0" type="line" smooth="yes"/>
      <point x="128.667" y="0"/>
      <point x="62" y="35"/>
    </contour>
  </outline>
</glyph>
<glyph name="r" format="1">
  <advance width="372"/>
  <unicode hex="0072"/>
  <outline>
    <contour>
      <point x="282" y="419" type="line" smooth="yes"/>
      <point x="175.333" y="419"/>
      <point x="116" y="352"/>
      <point x="116" y="232" type="curve" smooth="yes"/>
      <point x="116" y="23" type="line" smooth="yes"/>
      <point x="116" y="-17"/>
      <point x="74" y="-17"/>
      <point x="74" y="23" type="curve" smooth="yes"/>
      <point x="74" y="437" type="line" smooth="yes"/>
      <point x="74" y="457.667"/>
      <point x="80.3333" y="468"/>
      <point x="93" y="468" type="curve" smooth="yes"/>
      <point x="108.333" y="468"/>
      <point x="116" y="457.667"/>
      <point x="116" y="437" type="curve" smooth="yes"/>
      <point x="116" y="389" type="line"/>
      <point x="153.333" y="437"/>
      <point x="208.667" y="461"/>
      <point x="282" y="461" type="curve" smooth="yes"/>
      <point x="328" y="461" type="line" smooth="yes"/>
      <point x="368" y="461"/>
      <point x="368" y="419"/>
      <point x="328" y="419" type="curve" smooth="yes"/>
    </contour>
  </outline>
</glyph>
<glyph name="s" format="1">
  <advance width="566"/>
  <unicode hex="0073"/>
  <outline>
    <contour>
      <point x="155" y="0" type="line"/>
      <point x="35.8333" y="-9.08333"/>
      <point x="50.1667" y="139.333"/>
      <point x="81" y="137" type="curve"/>
      <point x="95" y="137"/>
      <point x="102" y="126.167"/>
      <point x="102" y="104.5" type="curve" smooth="yes"/>
      <point x="102" y="61.1667"/>
      <point x="116.667" y="42"/>
      <point x="162" y="42" type="curve" smooth="yes"/>
      <point x="400" y="42" type="line" smooth="yes"/>
      <point x="442.667" y="42"/>
      <point x="464" y="69"/>
      <point x="464" y="123" type="curve" smooth="yes"/>
      <point x="464" y="179"/>
      <point x="437.333" y="215"/>
      <point x="400" y="215" type="curve" smooth="yes"/>
      <point x="184" y="215" type="line" smooth="yes"/>
      <point x="101.333" y="215"/>
      <point x="60" y="257.667"/>
      <point x="60" y="343" type="curve" smooth="yes"/>
      <point x="60" y="420.333"/>
      <point x="94.6667" y="461"/>
      <point x="184" y="461" type="curve" smooth="yes"/>
      <point x="409" y="461" type="line"/>
      <point x="410.333" y="461"/>
      <point x="411.667" y="461"/>
      <point x="413" y="461" type="curve"/>
      <point x="453" y="461"/>
      <point x="478" y="450.333"/>
      <point x="488" y="429" type="curve" smooth="yes"/>
      <point x="509.333" y="385"/>
      <point x="511" y="324"/>
      <point x="483" y="324" type="curve" smooth="yes"/>
      <point x="469" y="324"/>
      <point x="462" y="334.667"/>
      <point x="462" y="356" type="curve" smooth="yes"/>
      <point x="462" y="398.667"/>
      <point x="447.333" y="419"/>
      <point x="402" y="419" type="curve" smooth="yes"/>
      <point x="166" y="419" type="line" smooth="yes"/>
      <point x="123.333" y="419"/>
      <point x="102" y="393.667"/>
      <point x="102" y="343" type="curve" smooth="yes"/>
      <point x="102" y="288.333"/>
      <point x="128.667" y="257"/>
      <point x="166" y="257" type="curve" smooth="yes"/>
      <point x="383" y="257" type="line" smooth="yes"/>
      <point x="465" y="257"/>
      <point x="506" y="212.333"/>
      <point x="506" y="123" type="curve" smooth="yes"/>
      <point x="506" y="41"/>
      <point x="465" y="0"/>
      <point x="383" y="0" type="curve" smooth="yes"/>
    </contour>
  </outline>
</glyph>
<glyph name="t" format="1">
  <advance width="330"/>
  <unicode hex="0074"/>
  <outline>
    <contour>
      <point x="119" y="175" type="line" smooth="yes"/>
      <point x="119" y="52.9827"/>
      <point x="172.186" y="42"/>
      <point x="285" y="42" type="curve" smooth="yes"/>
      <point x="305" y="42"/>
      <point x="315" y="35.6667"/>
      <point x="315" y="23" type="curve" smooth="yes"/>
      <point x="315" y="7.66667"/>
      <point x="305" y="0"/>
      <point x="285" y="0" type="curve" smooth="yes"/>
      <point x="217.667" y="0"/>
      <point x="167.333" y="10.3333"/>
      <point x="134" y="31" type="curve" smooth="yes"/>
      <point x="96" y="53.6667"/>
      <point x="77" y="100.333"/>
      <point x="77" y="171" type="curve" smooth="yes"/>
      <point x="77" y="419" type="line"/>
      <point x="35.6667" y="419"/>
      <point x="35.6667" y="461"/>
      <point x="77" y="461" type="curve"/>
      <point x="77" y="570" type="line" smooth="yes"/>
      <point x="77" y="590.667"/>
      <point x="83.3333" y="601"/>
      <point x="96" y="601" type="curve" smooth="yes"/>
      <point x="111.333" y="601"/>
      <point x="119" y="590.667"/>
      <point x="119" y="570" type="curve" smooth="yes"/>
      <point x="119" y="461" type="line"/>
      <point x="262" y="461" type="line" smooth="yes"/>
      <point x="282.667" y="461"/>
      <point x="293" y="453.333"/>
      <point x="293" y="438" type="curve" smooth="yes"/>
      <point x="293" y="425.333"/>
      <point x="282.667" y="419"/>
      <point x="262" y="419" type="curve" smooth="yes"/>
      <point x="119" y="419" type="line"/>
    </contour>
  </outline>
</glyph>
<glyph name="u" format="1">
  <advance width="588"/>
  <unicode hex="0075"/>
  <outline>
    <contour>
      <point x="307" y="42" type="line" smooth="yes"/>
      <point x="412.333" y="42"/>
      <point x="472" y="108"/>
      <point x="472" y="228" type="curve" smooth="yes"/>
      <point x="472" y="438" type="line" smooth="yes"/>
      <point x="472" y="478"/>
      <point x="514" y="478"/>
      <point x="514" y="438" type="curve" smooth="yes"/>
      <point x="514" y="24" type="line" smooth="yes"/>
      <point x="514" y="3.33333"/>
      <point x="507.667" y="-7"/>
      <point x="495" y="-7" type="curve" smooth="yes"/>
      <point x="479.667" y="-7"/>
      <point x="472" y="3.33333"/>
      <point x="472" y="24" type="curve" smooth="yes"/>
      <point x="472" y="72" type="line"/>
      <point x="436" y="24"/>
      <point x="381" y="0"/>
      <point x="307" y="0" type="curve" smooth="yes"/>
      <point x="278" y="0" type="line" smooth="yes"/>
      <point x="136.667" y="0"/>
      <point x="70" y="35"/>
      <point x="70" y="175" type="curve" smooth="yes"/>
      <point x="70" y="438" type="line" smooth="yes"/>
      <point x="70" y="478"/>
      <point x="112" y="478"/>
      <point x="112" y="438" type="curve" smooth="yes"/>
      <point x="112" y="175" type="line" smooth="yes"/>
      <point x="112" y="52.9827"/>
      <point x="165.186" y="42"/>
      <point x="278" y="42" type="curve" smooth="yes"/>
    </contour>
  </outline>
</glyph>
<glyph name="w" format="1">
  <advance width="771"/>
  <unicode hex="0077"/>
  <outline>
    <contour>
      <point x="408" y="450" type="curve"/>
      <point x="546" y="46" type="line"/>
      <point x="552" y="46" type="line"/>
      <point x="697" y="450" type="line" smooth="yes"/>
      <point x="701" y="462"/>
      <point x="706.667" y="468"/>
      <point x="714" y="468" type="curve" smooth="yes"/>
      <point x="724.667" y="468"/>
      <point x="742" y="460.333"/>
      <point x="742" y="451" type="curve" smooth="yes"/>
      <point x="742" y="445.667"/>
      <point x="740.667" y="441.667"/>
      <point x="738" y="439" type="curve"/>
      <point x="583" y="0" type="line"/>
      <point x="512" y="0" type="line"/>
      <point x="386" y="384" type="line"/>
      <point x="250" y="0" type="line"/>
      <point x="179" y="0" type="line"/>
      <point x="34" y="439" type="line"/>
      <point x="22.3585" y="442.881"/>
      <point x="39.6132" y="468"/>
      <point x="58" y="468" type="curve" smooth="yes"/>
      <point x="64.6667" y="468"/>
      <point x="70.3333" y="461.667"/>
      <point x="75" y="449" type="curve" smooth="yes"/>
      <point x="214" y="46" type="line"/>
      <point x="220" y="46" type="line"/>
      <point x="364" y="450" type="line"/>
      <point x="368" y="472.667"/>
      <point x="401.333" y="472.667"/>
    </contour>
  </outline>
</glyph>
<glyph name="x" format="1">
  <advance width="488"/>
  <unicode hex="0078"/>
  <outline>
    <contour>
      <point x="443" y="-6" type="curve" smooth="yes"/>
      <point x="439" y="-10"/>
      <point x="434.333" y="-12"/>
      <point x="429" y="-12" type="curve"/>
      <point x="428" y="-12" type="line"/>
      <point x="422.667" y="-12"/>
      <point x="416.667" y="-7.66667"/>
      <point x="410" y="1" type="curve" smooth="yes"/>
      <point x="245" y="198" type="line"/>
      <point x="79" y="1" type="line" smooth="yes"/>
      <point x="54.5913" y="-28.2905"/>
      <point x="25.8626" y="-1.53177"/>
      <point x="47" y="29" type="curve"/>
      <point x="217" y="230" type="line"/>
      <point x="47" y="433" type="line" smooth="yes"/>
      <point x="35" y="447.667"/>
      <point x="36" y="458"/>
      <point x="44" y="466" type="curve"/>
      <point x="54.6667" y="474"/>
      <point x="64.3333" y="476"/>
      <point x="79" y="460" type="curve"/>
      <point x="245" y="263" type="line"/>
      <point x="410" y="460" type="line" smooth="yes"/>
      <point x="433.684" y="488.421"/>
      <point x="462.866" y="459.726"/>
      <point x="441" y="433" type="curve" smooth="yes"/>
      <point x="271" y="230" type="line"/>
      <point x="441" y="29" type="line"/>
      <point x="453" y="11.6667"/>
      <point x="452.333" y="2"/>
    </contour>
  </outline>
</glyph>
<glyph name="y" format="1">
  <advance width="589"/>
  <unicode hex="0079"/>
  <outline>
    <contour>
      <point x="514" y="-92" type="line" smooth="yes"/>
      <point x="514" y="-177.333"/>
      <point x="494.667" y="-205"/>
      <point x="428" y="-205" type="curve" smooth="yes"/>
      <point x="165" y="-205" type="line"/>
      <point x="163.667" y="-205"/>
      <point x="162.333" y="-205"/>
      <point x="161" y="-205" type="curve"/>
      <point x="121" y="-205"/>
      <point x="96" y="-194.333"/>
      <point x="86" y="-173" type="curve" smooth="yes"/>
      <point x="64.6667" y="-129"/>
      <point x="63" y="-68"/>
      <point x="91" y="-68" type="curve" smooth="yes"/>
      <point x="105" y="-68"/>
      <point x="112" y="-78.6667"/>
      <point x="112" y="-100" type="curve" smooth="yes"/>
      <point x="112" y="-142.667"/>
      <point x="126.667" y="-163"/>
      <point x="172" y="-163" type="curve" smooth="yes"/>
      <point x="421" y="-163" type="line" smooth="yes"/>
      <point x="462.333" y="-163"/>
      <point x="472" y="-150.667"/>
      <point x="472" y="-108" type="curve" smooth="yes"/>
      <point x="472" y="72" type="line"/>
      <point x="436" y="24"/>
      <point x="381" y="0"/>
      <point x="307" y="0" type="curve" smooth="yes"/>
      <point x="278" y="0" type="line" smooth="yes"/>
      <point x="136.667" y="0"/>
      <point x="70" y="35"/>
      <point x="70" y="175" type="curve" smooth="yes"/>
      <point x="70" y="436" type="line" smooth="yes"/>
      <point x="70" y="478.667"/>
      <point x="112" y="478.667"/>
      <point x="112" y="436" type="curve" smooth="yes"/>
      <point x="112" y="175" type="line" smooth="yes"/>
      <point x="112" y="52.9827"/>
      <point x="165.186" y="42"/>
      <point x="278" y="42" type="curve" smooth="yes"/>
      <point x="307" y="42" type="line" smooth="yes"/>
      <point x="412.333" y="42"/>
      <point x="472" y="108"/>
      <point x="472" y="228" type="curve" smooth="yes"/>
      <point x="472" y="436" type="line" smooth="yes"/>
      <point x="472" y="478.667"/>
      <point x="514" y="478.667"/>
      <point x="514" y="436" type="curve" smooth="yes"/>
    </contour>
  </outline>
</glyph>
<glyph name="z" format="1">
  <advance width="530"/>
  <unicode hex="007A"/>
  <outline>
    <contour>
      <point x="108" y="42" type="line"/>
      <point x="377" y="42" type="line" smooth="yes"/>
      <point x="414.333" y="42"/>
      <point x="432.167" y="62.1667"/>
      <point x="435.5" y="81.5" type="curve" smooth="yes"/>
      <point x="438.833" y="100.833"/>
      <point x="431.333" y="156"/>
      <point x="458" y="156" type="curve"/>
      <point x="459" y="156" type="line"/>
      <point x="473" y="156"/>
      <point x="480" y="145.333"/>
      <point x="480" y="124" type="curve" smooth="yes"/>
      <point x="480" y="30.6667"/>
      <point x="457" y="0"/>
      <point x="385" y="0" type="curve" smooth="yes"/>
      <point x="58" y="0" type="line"/>
      <point x="58" y="59" type="line"/>
      <point x="412" y="419" type="line"/>
      <point x="160" y="419" type="line" smooth="yes"/>
      <point x="108" y="419"/>
      <point x="100" y="390"/>
      <point x="100" y="342" type="curve" smooth="yes"/>
      <point x="100" y="294"/>
      <point x="58" y="295.667"/>
      <point x="58" y="337" type="curve" smooth="yes"/>
      <point x="58" y="430.333"/>
      <point x="79.6667" y="461"/>
      <point x="153" y="461" type="curve" smooth="yes"/>
      <point x="459" y="461" type="line"/>
      <point x="459" y="399" type="line"/>
    </contour>
  </outline>
</glyph>
<glyph name="braceleft" format="1">
  <advance width="250"/>
  <unicode hex="007B"/>
  <outline>
    <contour>
      <point x="76" y="317" type="line"/>
      <point x="112" y="301"/>
      <point x="152" y="262.5"/>
      <point x="152" y="232.5" type="curve" smooth="yes"/>
      <point x="152" y="209.794"/>
      <point x="124" y="117.881"/>
      <point x="124" y="108" type="curve" smooth="yes"/>
      <point x="124" y="16"/>
      <point x="132.667" y="0"/>
      <point x="202" y="0" type="curve"/>
      <point x="202" y="-42" type="line"/>
      <point x="114" y="-42"/>
      <point x="82" y="-10.6667"/>
      <point x="82" y="108" type="curve" smooth="yes"/>
      <point x="82" y="125.588"/>
      <point x="110" y="217.193"/>
      <point x="110" y="236" type="curve" smooth="yes"/>
      <point x="110" y="261.333"/>
      <point x="78.3333" y="292.667"/>
      <point x="53" y="306" type="curve" smooth="yes"/>
      <point x="34" y="317" type="line"/>
      <point x="68.6667" y="333"/>
      <point x="110" y="374.667"/>
      <point x="110" y="400" type="curve" smooth="yes"/>
      <point x="110" y="418.807"/>
      <point x="82" y="510.412"/>
      <point x="82" y="528" type="curve" smooth="yes"/>
      <point x="82" y="646.667"/>
      <point x="114" y="678"/>
      <point x="202" y="678" type="curve"/>
      <point x="202" y="636" type="line"/>
      <point x="132.667" y="636"/>
      <point x="124" y="618.667"/>
      <point x="124" y="528" type="curve" smooth="yes"/>
      <point x="124" y="518.319"/>
      <point x="152" y="424.891"/>
      <point x="152" y="403" type="curve" smooth="yes"/>
      <point x="152" y="373.667"/>
      <point x="120.333" y="342.667"/>
      <point x="95" y="328" type="curve" smooth="yes"/>
    </contour>
  </outline>
</glyph>
<glyph name="bar" format="1">
  <advance width="204"/>
  <unicode hex="007C"/>
  <outline>
    <contour>
      <point x="123" y="20" type="line" smooth="yes"/>
      <point x="123" y="-16"/>
      <point x="81" y="-16"/>
      <point x="81" y="20" type="curve" smooth="yes"/>
      <point x="81" y="615" type="line" smooth="yes"/>
      <point x="81" y="652.333"/>
      <point x="123" y="652.333"/>
      <point x="123" y="615" type="curve" smooth="yes"/>
    </contour>
  </outline>
</glyph>
<glyph name="braceright" format="1">
  <advance width="251"/>
  <unicode hex="007D"/>
  <outline>
    <contour>
      <point x="174" y="318" type="line"/>
      <point x="139.333" y="332.667"/>
      <point x="98" y="373.667"/>
      <point x="98" y="403" type="curve" smooth="yes"/>
      <point x="98" y="424.891"/>
      <point x="126" y="518.319"/>
      <point x="126" y="528" type="curve" smooth="yes"/>
      <point x="126" y="618.667"/>
      <point x="117.333" y="636"/>
      <point x="48" y="636" type="curve"/>
      <point x="48" y="678" type="line"/>
      <point x="136" y="678"/>
      <point x="168" y="646.667"/>
      <point x="168" y="528" type="curve" smooth="yes"/>
      <point x="168" y="510.412"/>
      <point x="140" y="418.807"/>
      <point x="140" y="400" type="curve" smooth="yes"/>
      <point x="140" y="374.667"/>
      <point x="171.667" y="343.667"/>
      <point x="197" y="329" type="curve" smooth="yes"/>
      <point x="216" y="318" type="line"/>
      <point x="181.333" y="303.333"/>
      <point x="140" y="261.333"/>
      <point x="140" y="236" type="curve" smooth="yes"/>
      <point x="140" y="217.193"/>
      <point x="168" y="125.588"/>
      <point x="168" y="108" type="curve" smooth="yes"/>
      <point x="168" y="-10.6667"/>
      <point x="136" y="-42"/>
      <point x="48" y="-42" type="curve"/>
      <point x="48" y="0" type="line"/>
      <point x="117.333" y="0"/>
      <point x="126" y="16"/>
      <point x="126" y="108" type="curve" smooth="yes"/>
      <point x="126" y="117.881"/>
      <point x="98" y="209.794"/>
      <point x="98" y="232.5" type="curve" smooth="yes"/>
      <point x="98" y="262.5"/>
      <point x="129.667" y="292.333"/>
      <point x="155" y="307" type="curve" smooth="yes"/>
    </contour>
  </outline>
</glyph>
<glyph name="asciitilde" format="1">
  <advance width="418"/>
  <unicode hex="007E"/>
  <outline>
    <contour>
      <point x="256" y="231" type="line" smooth="yes"/>
      <point x="261.333" y="228.333"/>
      <point x="266" y="227.333"/>
      <point x="274" y="234" type="curve" smooth="yes"/>
      <point x="305" y="262" type="line"/>
      <point x="329.758" y="280.005"/>
      <point x="365.286" y="258.596"/>
      <point x="333" y="229" type="curve"/>
      <point x="286" y="190" type="line" smooth="yes"/>
      <point x="275.333" y="180.667"/>
      <point x="268" y="182.333"/>
      <point x="260" y="185" type="curve" smooth="yes"/>
      <point x="162" y="221" type="line" smooth="yes"/>
      <point x="156.667" y="223.667"/>
      <point x="152.333" y="224.667"/>
      <point x="143" y="218" type="curve"/>
      <point x="112" y="190" type="line"/>
      <point x="98.6667" y="179.333"/>
      <point x="88" y="180"/>
      <point x="80" y="188" type="curve" smooth="yes"/>
      <point x="70.6667" y="197.333"/>
      <point x="69" y="212.333"/>
      <point x="85" y="223" type="curve"/>
      <point x="132" y="262" type="line"/>
      <point x="140" y="271.333"/>
      <point x="147.333" y="269.667"/>
      <point x="158" y="267" type="curve"/>
    </contour>
  </outline>
</glyph>
<glyph name="exclamdown" format="1">
  <advance width="218"/>
  <unicode hex="00A1"/>
  <outline>
    <contour>
      <point x="130" y="-138" type="line" smooth="yes"/>
      <point x="130" y="-174"/>
      <point x="88" y="-174"/>
      <point x="88" y="-138" type="curve" smooth="yes"/>
      <point x="88" y="282" type="line" smooth="yes"/>
      <point x="88" y="319.333"/>
      <point x="130" y="319.333"/>
      <point x="130" y="282" type="curve" smooth="yes"/>
    </contour>
    <contour>
      <point x="77" y="425" type="curve"/>
      <point x="30.1209" y="454.739"/>
      <point x="103.399" y="510.516"/>
      <point x="139.5" y="475" type="curve"/>
      <point x="188.157" y="445.261"/>
      <point x="111.324" y="389.484"/>
    </contour>
  </outline>
</glyph>
<glyph name="cent" format="1">
  <advance width="471"/>
  <unicode hex="00A2"/>
  <outline>
    <contour>
      <point x="261" y="20" type="line" smooth="yes"/>
      <point x="261" y="-16"/>
      <point x="219" y="-16"/>
      <point x="219" y="20" type="curve" smooth="yes"/>
      <point x="219" y="124" type="line"/>
      <point x="105.667" y="129.333"/>
      <point x="50" y="170"/>
      <point x="50" y="298" type="curve" smooth="yes"/>
      <point x="50" y="340" type="line" smooth="yes"/>
      <point x="50" y="466.667"/>
      <point x="107" y="508.667"/>
      <point x="219" y="514" type="curve"/>
      <point x="219" y="615" type="line" smooth="yes"/>
      <point x="219" y="652.333"/>
      <point x="261" y="652.333"/>
      <point x="261" y="615" type="curve" smooth="yes"/>
      <point x="261" y="515" type="line"/>
      <point x="318" y="515" type="line" smooth="yes"/>
      <point x="395.333" y="515"/>
      <point x="414" y="473"/>
      <point x="414" y="409" type="curve" smooth="yes"/>
      <point x="414" y="367.667"/>
      <point x="372" y="367.167"/>
      <point x="372" y="410.5" type="curve" smooth="yes"/>
      <point x="372" y="453.833"/>
      <point x="356.333" y="473"/>
      <point x="311" y="473" type="curve" smooth="yes"/>
      <point x="261" y="473" type="line"/>
      <point x="261" y="165" type="line"/>
      <point x="309" y="165" type="line" smooth="yes"/>
      <point x="354.333" y="165"/>
      <point x="370" y="184.167"/>
      <point x="370" y="227.5" type="curve" smooth="yes"/>
      <point x="370" y="270.833"/>
      <point x="412" y="268.667"/>
      <point x="412" y="234" type="curve" smooth="yes"/>
      <point x="412" y="171.333"/>
      <point x="398.667" y="123"/>
      <point x="316" y="123" type="curve" smooth="yes"/>
      <point x="261" y="123" type="line"/>
    </contour>
    <contour>
      <point x="219" y="166" type="curve"/>
      <point x="219" y="472" type="line"/>
      <point x="128.333" y="469.333"/>
      <point x="92" y="440"/>
      <point x="92" y="340" type="curve" smooth="yes"/>
      <point x="92" y="298" type="line" smooth="yes"/>
      <point x="92" y="195.333"/>
      <point x="125.667" y="168.667"/>
    </contour>
  </outline>
</glyph>
<glyph name="sterling" format="1">
  <advance width="491"/>
  <unicode hex="00A3"/>
  <outline>
    <contour>
      <point x="82" y="0" type="line" smooth="yes"/>
      <point x="70.6667" y="0"/>
      <point x="65" y="7.66667"/>
      <point x="65" y="23" type="curve" smooth="yes"/>
      <point x="65" y="26.3333"/>
      <point x="65.3333" y="29"/>
      <point x="66" y="31" type="curve" smooth="yes"/>
      <point x="104" y="468" type="line" smooth="yes"/>
      <point x="110.667" y="542"/>
      <point x="132" y="590.333"/>
      <point x="168" y="613" type="curve" smooth="yes"/>
      <point x="199.333" y="633"/>
      <point x="237.833" y="643"/>
      <point x="283.5" y="643" type="curve" smooth="yes"/>
      <point x="374.833" y="643"/>
      <point x="431" y="611.667"/>
      <point x="431" y="501" type="curve" smooth="yes"/>
      <point x="431" y="463.667"/>
      <point x="389" y="462.667"/>
      <point x="389" y="504" type="curve" smooth="yes"/>
      <point x="389" y="548"/>
      <point x="378" y="575.667"/>
      <point x="356" y="587" type="curve" smooth="yes"/>
      <point x="338" y="596.333"/>
      <point x="310.667" y="601"/>
      <point x="274" y="601" type="curve" smooth="yes"/>
      <point x="200.667" y="601"/>
      <point x="155.333" y="578.667"/>
      <point x="146" y="468" type="curve" smooth="yes"/>
      <point x="137" y="364" type="line"/>
      <point x="176" y="364" type="line" smooth="yes"/>
      <point x="212" y="364"/>
      <point x="212" y="322"/>
      <point x="176" y="322" type="curve" smooth="yes"/>
      <point x="133" y="322" type="line"/>
      <point x="109" y="42" type="line"/>
      <point x="405" y="42" type="line" smooth="yes"/>
      <point x="442.333" y="42"/>
      <point x="442.333" y="0"/>
      <point x="405" y="0" type="curve" smooth="yes"/>
    </contour>
  </outline>
</glyph>
<glyph name="currency" format="1">
  <advance width="493"/>
  <unicode hex="00A4"/>
  <outline>
    <contour>
      <point x="246.5" y="340" type="curve" smooth="yes"/>
      <point x="185.833" y="340"/>
      <point x="137" y="291.167"/>
      <point x="137" y="230.5" type="curve" smooth="yes"/>
      <point x="137" y="169.833"/>
      <point x="185.833" y="121"/>
      <point x="246.5" y="121" type="curve" smooth="yes"/>
      <point x="307.167" y="121"/>
      <point x="356" y="169.833"/>
      <point x="356" y="230.5" type="curve" smooth="yes"/>
      <point x="356" y="291.167"/>
      <point x="307.167" y="340"/>
    </contour>
    <contour>
      <point x="131" y="145" type="line"/>
      <point x="93.6667" y="194.333"/>
      <point x="93.6667" y="267"/>
      <point x="131" y="315" type="curve"/>
      <point x="83" y="364" type="line" smooth="yes"/>
      <point x="56.9608" y="390.039"/>
      <point x="85.9608" y="419.039"/>
      <point x="112" y="393" type="curve" smooth="yes"/>
      <point x="161" y="345" type="line"/>
      <point x="210.333" y="383.667"/>
      <point x="282.667" y="383.667"/>
      <point x="332" y="345" type="curve"/>
      <point x="380" y="393" type="line" smooth="yes"/>
      <point x="405.29" y="418.29"/>
      <point x="438.89" y="391.399"/>
      <point x="409" y="364" type="curve"/>
      <point x="361" y="315" type="line"/>
      <point x="399.667" y="268.333"/>
      <point x="399.667" y="194.333"/>
      <point x="361" y="145" type="curve"/>
      <point x="409" y="97" type="line"/>
      <point x="438.033" y="72.8055"/>
      <point x="404.194" y="38.9666"/>
      <point x="380" y="68" type="curve"/>
      <point x="332" y="116" type="line"/>
      <point x="282.667" y="77.3333"/>
      <point x="210.333" y="77.3333"/>
      <point x="161" y="116" type="curve"/>
      <point x="112" y="68" type="line"/>
      <point x="88.0573" y="39.2688"/>
      <point x="55.0417" y="69.0417"/>
      <point x="83" y="97" type="curve" smooth="yes"/>
    </contour>
  </outline>
</glyph>
<glyph name="yen" format="1">
  <advance width="529"/>
  <unicode hex="00A5"/>
  <outline>
    <contour>
      <point x="245" y="310" type="line"/>
      <point x="39" y="604" type="line" smooth="yes"/>
      <point x="29.6667" y="617.333"/>
      <point x="30" y="628"/>
      <point x="38" y="636" type="curve"/>
      <point x="48.6667" y="644"/>
      <point x="58.3333" y="648.333"/>
      <point x="73" y="627" type="curve" smooth="yes"/>
      <point x="265" y="354" type="line"/>
      <point x="456" y="627" type="line"/>
      <point x="464.667" y="637.667"/>
      <point x="471.667" y="643"/>
      <point x="477" y="643" type="curve"/>
      <point x="496.397" y="640.845"/>
      <point x="504.351" y="623.073"/>
      <point x="491" y="604" type="curve" smooth="yes"/>
      <point x="286" y="310" type="line"/>
      <point x="286" y="272" type="line"/>
      <point x="385" y="272" type="line" smooth="yes"/>
      <point x="403.667" y="272"/>
      <point x="413" y="264.667"/>
      <point x="413" y="250" type="curve" smooth="yes"/>
      <point x="413" y="236"/>
      <point x="404.333" y="229"/>
      <point x="387" y="229" type="curve"/>
      <point x="386.333" y="229"/>
      <point x="385.667" y="229"/>
      <point x="385" y="229" type="curve"/>
      <point x="286" y="229" type="line"/>
      <point x="286" y="183" type="line"/>
      <point x="385" y="183" type="line"/>
      <point x="385.667" y="183"/>
      <point x="386.333" y="183"/>
      <point x="387" y="183" type="curve"/>
      <point x="404.333" y="183"/>
      <point x="413" y="176"/>
      <point x="413" y="162" type="curve" smooth="yes"/>
      <point x="413" y="147.333"/>
      <point x="403.667" y="140"/>
      <point x="385" y="140" type="curve" smooth="yes"/>
      <point x="286" y="140" type="line"/>
      <point x="286" y="20" type="line" smooth="yes"/>
      <point x="286" y="-16"/>
      <point x="246.333" y="-16"/>
      <point x="245" y="20" type="curve"/>
      <point x="245" y="140" type="line"/>
      <point x="140" y="140" type="line" smooth="yes"/>
      <point x="122" y="140"/>
      <point x="113" y="147.667"/>
      <point x="113" y="163" type="curve" smooth="yes"/>
      <point x="113" y="176.333"/>
      <point x="122" y="183"/>
      <point x="140" y="183" type="curve" smooth="yes"/>
      <point x="245" y="183" type="line"/>
      <point x="245" y="229" type="line"/>
      <point x="140" y="229" type="line" smooth="yes"/>
      <point x="122" y="229"/>
      <point x="113" y="236.667"/>
      <point x="113" y="252" type="curve" smooth="yes"/>
      <point x="113" y="265.333"/>
      <point x="122" y="272"/>
      <point x="140" y="272" type="curve" smooth="yes"/>
      <point x="245" y="272" type="line"/>
    </contour>
  </outline>
</glyph>
<glyph name="brokenbar" format="1">
  <advance width="207"/>
  <unicode hex="00A6"/>
  <outline>
    <contour>
      <point x="83" y="616" type="line"/>
      <point x="84.3333" y="652"/>
      <point x="124" y="652"/>
      <point x="124" y="616" type="curve" smooth="yes"/>
      <point x="124" y="401" type="line" smooth="yes"/>
      <point x="124" y="382.333"/>
      <point x="116.667" y="373"/>
      <point x="102" y="373" type="curve" smooth="yes"/>
      <point x="89.3333" y="373"/>
      <point x="83" y="382.333"/>
      <point x="83" y="401" type="curve" smooth="yes"/>
    </contour>
    <contour>
      <point x="83" y="237" type="line"/>
      <point x="84.3333" y="271.667"/>
      <point x="124" y="271.667"/>
      <point x="124" y="237" type="curve" smooth="yes"/>
      <point x="124" y="22" type="line" smooth="yes"/>
      <point x="124" y="2.66667"/>
      <point x="116.667" y="-7"/>
      <point x="102" y="-7" type="curve" smooth="yes"/>
      <point x="89.3333" y="-7"/>
      <point x="83" y="2.66667"/>
      <point x="83" y="22" type="curve" smooth="yes"/>
    </contour>
  </outline>
</glyph>
<glyph name="section" format="1">
  <advance width="510"/>
  <unicode hex="00A7"/>
  <outline>
    <contour>
      <point x="117" y="79" type="curve" smooth="yes"/>
      <point x="117" y="52.3333"/>
      <point x="124.667" y="42"/>
      <point x="162" y="42" type="curve" smooth="yes"/>
      <point x="346" y="42" type="line" smooth="yes"/>
      <point x="382" y="42"/>
      <point x="393" y="59"/>
      <point x="393" y="99" type="curve" smooth="yes"/>
      <point x="393" y="145"/>
      <point x="378.667" y="170"/>
      <point x="350" y="174" type="curve" smooth="yes"/>
      <point x="175" y="199" type="line" smooth="yes"/>
      <point x="108.333" y="208.333"/>
      <point x="75" y="244"/>
      <point x="75" y="306" type="curve" smooth="yes"/>
      <point x="75" y="356.667"/>
      <point x="92.6667" y="387.667"/>
      <point x="128" y="399" type="curve"/>
      <point x="92.6667" y="415.667"/>
      <point x="75" y="447.667"/>
      <point x="75" y="495" type="curve" smooth="yes"/>
      <point x="75" y="561"/>
      <point x="108.333" y="594"/>
      <point x="175" y="594" type="curve" smooth="yes"/>
      <point x="360" y="594" type="line" smooth="yes"/>
      <point x="426.667" y="594"/>
      <point x="435" y="556"/>
      <point x="435" y="508" type="curve" smooth="yes"/>
      <point x="435" y="474.667"/>
      <point x="393" y="474.333"/>
      <point x="393" y="509" type="curve" smooth="yes"/>
      <point x="393" y="543.667"/>
      <point x="385.333" y="552"/>
      <point x="348" y="552" type="curve" smooth="yes"/>
      <point x="164" y="552" type="line" smooth="yes"/>
      <point x="128" y="552"/>
      <point x="117" y="533.667"/>
      <point x="117" y="495" type="curve" smooth="yes"/>
      <point x="117" y="449"/>
      <point x="131.333" y="424"/>
      <point x="160" y="420" type="curve" smooth="yes"/>
      <point x="335" y="395" type="line" smooth="yes"/>
      <point x="401.667" y="385.667"/>
      <point x="435" y="350.333"/>
      <point x="435" y="289" type="curve" smooth="yes"/>
      <point x="435" y="237.667"/>
      <point x="417.333" y="206.333"/>
      <point x="382" y="195" type="curve"/>
      <point x="417.333" y="178.333"/>
      <point x="435" y="146.333"/>
      <point x="435" y="99" type="curve" smooth="yes"/>
      <point x="435" y="33"/>
      <point x="401.667" y="0"/>
      <point x="335" y="0" type="curve" smooth="yes"/>
      <point x="151" y="0" type="line" smooth="yes"/>
      <point x="107" y="0"/>
      <point x="84.3333" y="22.5"/>
      <point x="79" y="44.5" type="curve" smooth="yes"/>
      <point x="76.3333" y="55.5"/>
      <point x="75" y="69.3333"/>
      <point x="75" y="86" type="curve" smooth="yes"/>
      <point x="75" y="119.333"/>
      <point x="117" y="121.667"/>
    </contour>
    <contour>
      <point x="216.5" y="373" type="curve" smooth="yes"/>
      <point x="127.833" y="373"/>
      <point x="117" y="365.667"/>
      <point x="117" y="307" type="curve" smooth="yes"/>
      <point x="117" y="248.333"/>
      <point x="204.833" y="221"/>
      <point x="293.5" y="221" type="curve" smooth="yes"/>
      <point x="382.167" y="221"/>
      <point x="393" y="228.167"/>
      <point x="393" y="287.5" type="curve" smooth="yes"/>
      <point x="393" y="346.833"/>
      <point x="305.167" y="373"/>
    </contour>
  </outline>
</glyph>
<glyph name="dieresis" format="1">
  <advance width="367"/>
  <unicode hex="00A8"/>
  <outline>
    <contour>
      <point x="211" y="630" type="curve"/>
      <point x="214.244" y="675.419"/>
      <point x="303" y="676.653"/>
      <point x="303" y="630" type="curve" smooth="yes"/>
      <point x="303" y="583.882"/>
      <point x="211" y="583.882"/>
    </contour>
    <contour>
      <point x="65" y="630" type="curve"/>
      <point x="68.2442" y="675.419"/>
      <point x="157" y="676.653"/>
      <point x="157" y="630" type="curve" smooth="yes"/>
      <point x="157" y="583.882"/>
      <point x="65" y="583.882"/>
    </contour>
  </outline>
</glyph>
<glyph name="copyright" format="1">
  <advance width="604"/>
  <unicode hex="00A9"/>
  <outline>
    <contour>
      <point x="347" y="219" type="curve" smooth="yes"/>
      <point x="297" y="219" type="line" smooth="yes"/>
      <point x="247.667" y="219"/>
      <point x="207" y="246"/>
      <point x="207" y="298" type="curve" smooth="yes"/>
      <point x="207" y="337" type="line" smooth="yes"/>
      <point x="207" y="389"/>
      <point x="247.667" y="416"/>
      <point x="297" y="416" type="curve" smooth="yes"/>
      <point x="347" y="416" type="line" smooth="yes"/>
      <point x="373.667" y="416"/>
      <point x="397" y="399.333"/>
      <point x="397" y="362" type="curve" smooth="yes"/>
      <point x="397" y="347.333"/>
      <point x="368" y="347.667"/>
      <point x="368" y="361" type="curve" smooth="yes"/>
      <point x="368" y="377"/>
      <point x="360.333" y="385"/>
      <point x="345" y="385" type="curve" smooth="yes"/>
      <point x="297" y="385" type="line" smooth="yes"/>
      <point x="263.667" y="385"/>
      <point x="237" y="367.667"/>
      <point x="237" y="337" type="curve" smooth="yes"/>
      <point x="237" y="298" type="line" smooth="yes"/>
      <point x="237" y="267.333"/>
      <point x="263.667" y="250"/>
      <point x="297" y="250" type="curve" smooth="yes"/>
      <point x="345" y="250" type="line" smooth="yes"/>
      <point x="360.333" y="250"/>
      <point x="368" y="257.667"/>
      <point x="368" y="273" type="curve" smooth="yes"/>
      <point x="368" y="287.667"/>
      <point x="397" y="287.833"/>
      <point x="397" y="272.5" type="curve" smooth="yes"/>
      <point x="397" y="254.833"/>
      <point x="390.233" y="219"/>
    </contour>
    <contour>
      <point x="317" y="87" type="curve" smooth="yes"/>
      <point x="288" y="87" type="line" smooth="yes"/>
      <point x="146.667" y="87"/>
      <point x="80" y="122"/>
      <point x="80" y="262" type="curve" smooth="yes"/>
      <point x="80" y="373" type="line" smooth="yes"/>
      <point x="80" y="513"/>
      <point x="146.667" y="548"/>
      <point x="288" y="548" type="curve" smooth="yes"/>
      <point x="317" y="548" type="line" smooth="yes"/>
      <point x="457" y="548"/>
      <point x="524" y="513"/>
      <point x="524" y="373" type="curve" smooth="yes"/>
      <point x="524" y="262" type="line" smooth="yes"/>
      <point x="524" y="122"/>
      <point x="457" y="87"/>
    </contour>
    <contour>
      <point x="288" y="129" type="curve" smooth="yes"/>
      <point x="317" y="129" type="line" smooth="yes"/>
      <point x="428.143" y="129"/>
      <point x="482" y="139.983"/>
      <point x="482" y="262" type="curve" smooth="yes"/>
      <point x="482" y="373" type="line" smooth="yes"/>
      <point x="482" y="495.017"/>
      <point x="428.143" y="506"/>
      <point x="317" y="506" type="curve" smooth="yes"/>
      <point x="288" y="506" type="line" smooth="yes"/>
      <point x="175.186" y="506"/>
      <point x="122" y="495.017"/>
      <point x="122" y="373" type="curve" smooth="yes"/>
      <point x="122" y="262" type="line" smooth="yes"/>
      <point x="122" y="139.983"/>
      <point x="175.186" y="129"/>
    </contour>
  </outline>
</glyph>
<glyph name="ordfeminine" format="1">
  <advance width="376"/>
  <unicode hex="00AA"/>
  <outline>
    <contour>
      <point x="89" y="164" type="line" smooth="yes"/>
      <point x="61" y="164"/>
      <point x="61" y="200.333"/>
      <point x="89" y="199" type="curve"/>
      <point x="285" y="199" type="line" smooth="yes"/>
      <point x="300.333" y="199"/>
      <point x="308" y="192.667"/>
      <point x="308" y="180" type="curve" smooth="yes"/>
      <point x="308" y="169.333"/>
      <point x="300.333" y="164"/>
      <point x="285" y="164" type="curve" smooth="yes"/>
    </contour>
    <contour>
      <point x="252" y="354" type="curve"/>
      <point x="190" y="354" type="line"/>
      <point x="91.5294" y="365.987"/>
      <point x="125.529" y="270.209"/>
      <point x="148" y="280" type="curve"/>
      <point x="185" y="280" type="line" smooth="yes"/>
      <point x="227.667" y="280"/>
      <point x="252" y="306"/>
    </contour>
    <contour>
      <point x="148" y="430" type="line" smooth="yes"/>
      <point x="132" y="430"/>
      <point x="124" y="421.667"/>
      <point x="124" y="405" type="curve" smooth="yes"/>
      <point x="124" y="387.667"/>
      <point x="91.6667" y="388"/>
      <point x="93" y="404" type="curve"/>
      <point x="93" y="436"/>
      <point x="114.333" y="461"/>
      <point x="145" y="461" type="curve" smooth="yes"/>
      <point x="230" y="461" type="line" smooth="yes"/>
      <point x="265.333" y="461"/>
      <point x="283" y="439.667"/>
      <point x="283" y="397" type="curve" smooth="yes"/>
      <point x="283" y="258" type="line"/>
      <point x="284.333" y="242"/>
      <point x="252" y="242"/>
      <point x="252" y="258" type="curve" smooth="yes"/>
      <point x="252" y="292" type="line"/>
      <point x="241.333" y="262.667"/>
      <point x="226.333" y="249"/>
      <point x="185" y="249" type="curve" smooth="yes"/>
      <point x="148" y="249" type="line" smooth="yes"/>
      <point x="116" y="249"/>
      <point x="93" y="279"/>
      <point x="93" y="311" type="curve" smooth="yes"/>
      <point x="93" y="367"/>
      <point x="123.333" y="385"/>
      <point x="190" y="385" type="curve" smooth="yes"/>
      <point x="252" y="385" type="line"/>
      <point x="252" y="404" type="line" smooth="yes"/>
      <point x="252" y="422.667"/>
      <point x="245.667" y="430"/>
      <point x="227" y="430" type="curve" smooth="yes"/>
    </contour>
  </outline>
</glyph>
<glyph name="logicalnot" format="1">
  <advance width="515"/>
  <unicode hex="00AC"/>
  <outline>
    <contour>
      <point x="436" y="225" type="curve" smooth="yes"/>
      <point x="436" y="141" type="line" smooth="yes"/>
      <point x="436" y="122.333"/>
      <point x="428.333" y="113"/>
      <point x="413" y="113" type="curve" smooth="yes"/>
      <point x="399.667" y="113"/>
      <point x="393" y="122.333"/>
      <point x="393" y="141" type="curve" smooth="yes"/>
      <point x="393" y="209" type="line"/>
      <point x="109" y="209" type="line"/>
      <point x="108.333" y="209"/>
      <point x="107.667" y="209"/>
      <point x="107" y="209" type="curve"/>
      <point x="91" y="209"/>
      <point x="83" y="216"/>
      <point x="83" y="230" type="curve" smooth="yes"/>
      <point x="83" y="244.667"/>
      <point x="91.6667" y="252"/>
      <point x="109" y="252" type="curve" smooth="yes"/>
      <point x="407" y="252" type="line" smooth="yes"/>
      <point x="426.333" y="252"/>
      <point x="436" y="243"/>
    </contour>
  </outline>
</glyph>
<glyph name="uni00AD" format="1">
  <advance width="446"/>
  <unicode hex="00AD"/>
  <outline>
    <contour>
      <point x="99" y="209" type="line"/>
      <point x="98.3333" y="209"/>
      <point x="97.6667" y="209"/>
      <point x="97" y="209" type="curve"/>
      <point x="81" y="209"/>
      <point x="73" y="216"/>
      <point x="73" y="230" type="curve" smooth="yes"/>
      <point x="73" y="244.667"/>
      <point x="81.6667" y="252"/>
      <point x="99" y="252" type="curve" smooth="yes"/>
      <point x="344" y="252" type="line" smooth="yes"/>
      <point x="363.333" y="252"/>
      <point x="373" y="244.333"/>
      <point x="373" y="229" type="curve" smooth="yes"/>
      <point x="373" y="215.667"/>
      <point x="363.333" y="209"/>
      <point x="344" y="209" type="curve" smooth="yes"/>
    </contour>
  </outline>
</glyph>
<glyph name="registered" format="1">
  <advance width="604"/>
  <unicode hex="00AE"/>
  <outline>
    <contour>
      <point x="301" y="334" type="line"/>
      <point x="399.98" y="320.667"/>
      <point x="399.98" y="403.333"/>
      <point x="301" y="390" type="curve"/>
      <point x="234" y="390" type="line"/>
      <point x="234" y="334" type="line"/>
    </contour>
    <contour>
      <point x="234" y="217" type="line" smooth="yes"/>
      <point x="234" y="205"/>
      <point x="201.667" y="205"/>
      <point x="203" y="217" type="curve"/>
      <point x="203" y="411" type="line" smooth="yes"/>
      <point x="203" y="417.667"/>
      <point x="207.667" y="421"/>
      <point x="217" y="421" type="curve" smooth="yes"/>
      <point x="301" y="421" type="line" smooth="yes"/>
      <point x="370.333" y="421"/>
      <point x="405" y="401"/>
      <point x="405" y="361" type="curve" smooth="yes"/>
      <point x="405" y="333"/>
      <point x="383.333" y="308"/>
      <point x="350" y="304" type="curve"/>
      <point x="382.844" y="284.294"/>
      <point x="408" y="220.565"/>
      <point x="408" y="217" type="curve"/>
      <point x="405.917" y="199"/>
      <point x="372.333" y="212.5"/>
      <point x="377" y="217" type="curve"/>
      <point x="377" y="219.899"/>
      <point x="350.611" y="278.793"/>
      <point x="311" y="303" type="curve"/>
      <point x="234" y="303" type="line"/>
    </contour>
    <contour>
      <point x="317" y="87" type="curve" smooth="yes"/>
      <point x="288" y="87" type="line" smooth="yes"/>
      <point x="146.667" y="87"/>
      <point x="80" y="122"/>
      <point x="80" y="262" type="curve" smooth="yes"/>
      <point x="80" y="373" type="line" smooth="yes"/>
      <point x="80" y="513"/>
      <point x="146.667" y="548"/>
      <point x="288" y="548" type="curve" smooth="yes"/>
      <point x="317" y="548" type="line" smooth="yes"/>
      <point x="457" y="548"/>
      <point x="524" y="513"/>
      <point x="524" y="373" type="curve" smooth="yes"/>
      <point x="524" y="262" type="line" smooth="yes"/>
      <point x="524" y="122"/>
      <point x="457" y="87"/>
    </contour>
    <contour>
      <point x="288" y="129" type="curve" smooth="yes"/>
      <point x="317" y="129" type="line" smooth="yes"/>
      <point x="428.143" y="129"/>
      <point x="482" y="139.983"/>
      <point x="482" y="262" type="curve" smooth="yes"/>
      <point x="482" y="373" type="line" smooth="yes"/>
      <point x="482" y="495.017"/>
      <point x="428.143" y="506"/>
      <point x="317" y="506" type="curve" smooth="yes"/>
      <point x="288" y="506" type="line" smooth="yes"/>
      <point x="175.186" y="506"/>
      <point x="122" y="495.017"/>
      <point x="122" y="373" type="curve" smooth="yes"/>
      <point x="122" y="262" type="line" smooth="yes"/>
      <point x="122" y="139.983"/>
      <point x="175.186" y="129"/>
    </contour>
  </outline>
</glyph>
<glyph name="macron" format="1">
  <advance width="429"/>
  <unicode hex="00AF"/>
  <outline>
    <contour>
      <point x="91" y="678" type="line" smooth="yes"/>
      <point x="73.6667" y="678"/>
      <point x="65" y="685.333"/>
      <point x="65" y="700" type="curve" smooth="yes"/>
      <point x="65" y="714"/>
      <point x="73" y="721"/>
      <point x="89" y="721" type="curve"/>
      <point x="89.6667" y="721"/>
      <point x="90.3333" y="721"/>
      <point x="91" y="721" type="curve"/>
      <point x="336" y="721" type="line" smooth="yes"/>
      <point x="355.333" y="721"/>
      <point x="365" y="713.333"/>
      <point x="365" y="698" type="curve" smooth="yes"/>
      <point x="365" y="684.667"/>
      <point x="355.333" y="678"/>
      <point x="336" y="678" type="curve" smooth="yes"/>
    </contour>
  </outline>
</glyph>
<glyph name="degree" format="1">
  <advance width="394"/>
  <unicode hex="00B0"/>
  <outline>
    <contour>
      <point x="197.5" y="637" type="curve" smooth="yes"/>
      <point x="140.833" y="637"/>
      <point x="95" y="591.167"/>
      <point x="95" y="534.5" type="curve" smooth="yes"/>
      <point x="95" y="477.833"/>
      <point x="140.833" y="432"/>
      <point x="197.5" y="432" type="curve" smooth="yes"/>
      <point x="254.167" y="432"/>
      <point x="300" y="477.833"/>
      <point x="300" y="534.5" type="curve" smooth="yes"/>
      <point x="300" y="591.167"/>
      <point x="254.167" y="637"/>
    </contour>
    <contour>
      <point x="96" y="433.5" type="curve" smooth="yes"/>
      <point x="40" y="490.167"/>
      <point x="40" y="580"/>
      <point x="96" y="636" type="curve" smooth="yes"/>
      <point x="152" y="692"/>
      <point x="241.833" y="692"/>
      <point x="298.5" y="636" type="curve" smooth="yes"/>
      <point x="355.167" y="580"/>
      <point x="355.167" y="490.167"/>
      <point x="298.5" y="433.5" type="curve" smooth="yes"/>
      <point x="241.833" y="376.833"/>
      <point x="152" y="376.833"/>
    </contour>
  </outline>
</glyph>
<glyph name="plusminus" format="1">
  <advance width="573"/>
  <unicode hex="00B1"/>
  <outline>
    <contour>
      <point x="474" y="43" type="line" smooth="yes"/>
      <point x="493.333" y="43"/>
      <point x="503" y="35.3333"/>
      <point x="503" y="20" type="curve" smooth="yes"/>
      <point x="503" y="6.66667"/>
      <point x="493.333" y="0"/>
      <point x="474" y="0" type="curve" smooth="yes"/>
      <point x="96" y="0" type="line" smooth="yes"/>
      <point x="78.6667" y="0"/>
      <point x="70" y="7.66667"/>
      <point x="70" y="23" type="curve" smooth="yes"/>
      <point x="70" y="36.3333"/>
      <point x="78.6667" y="43"/>
      <point x="96" y="43" type="curve" smooth="yes"/>
    </contour>
    <contour>
      <point x="307" y="143" type="line" smooth="yes"/>
      <point x="307" y="107"/>
      <point x="265" y="107"/>
      <point x="265" y="143" type="curve" smooth="yes"/>
      <point x="265" y="270" type="line"/>
      <point x="96" y="270" type="line" smooth="yes"/>
      <point x="78.6667" y="270"/>
      <point x="70" y="277.667"/>
      <point x="70" y="293" type="curve" smooth="yes"/>
      <point x="70" y="306.333"/>
      <point x="78.6667" y="313"/>
      <point x="96" y="313" type="curve" smooth="yes"/>
      <point x="265" y="313" type="line"/>
      <point x="265" y="440" type="line" smooth="yes"/>
      <point x="265" y="477.333"/>
      <point x="307" y="477.333"/>
      <point x="307" y="440" type="curve" smooth="yes"/>
      <point x="307" y="313" type="line"/>
      <point x="474" y="313" type="line"/>
      <point x="474.667" y="313"/>
      <point x="475.333" y="313"/>
      <point x="476" y="313" type="curve"/>
      <point x="494" y="313"/>
      <point x="503" y="306"/>
      <point x="503" y="292" type="curve" smooth="yes"/>
      <point x="503" y="277.333"/>
      <point x="493.333" y="270"/>
      <point x="474" y="270" type="curve" smooth="yes"/>
      <point x="307" y="270" type="line"/>
    </contour>
  </outline>
</glyph>
<glyph name="twosuperior" format="1">
  <advance width="310"/>
  <unicode hex="00B2"/>
  <outline>
    <contour>
      <point x="266" y="682" type="curve" smooth="yes"/>
      <point x="266" y="599.098"/>
      <point x="78" y="579.098"/>
      <point x="78" y="494" type="curve"/>
      <point x="244" y="494" type="line" smooth="yes"/>
      <point x="271.922" y="494"/>
      <point x="271.922" y="461"/>
      <point x="244" y="461" type="curve" smooth="yes"/>
      <point x="41" y="461" type="line"/>
      <point x="41" y="483" type="line" smooth="yes"/>
      <point x="41" y="608.03"/>
      <point x="233" y="620.752"/>
      <point x="233" y="682" type="curve" smooth="yes"/>
      <point x="233" y="728.667"/>
      <point x="214" y="734"/>
      <point x="146" y="734" type="curve" smooth="yes"/>
      <point x="120" y="734" type="line" smooth="yes"/>
      <point x="91.3333" y="734"/>
      <point x="77" y="723.667"/>
      <point x="77" y="703" type="curve" smooth="yes"/>
      <point x="77" y="679.941"/>
      <point x="41" y="679.941"/>
      <point x="41" y="703" type="curve" smooth="yes"/>
      <point x="41" y="739"/>
      <point x="76" y="767"/>
      <point x="116" y="767" type="curve" smooth="yes"/>
      <point x="146" y="767" type="line" smooth="yes"/>
      <point x="227.333" y="767"/>
      <point x="266" y="752.667"/>
    </contour>
  </outline>
</glyph>
<glyph name="threesuperior" format="1">
  <advance width="280"/>
  <unicode hex="00B3"/>
  <outline>
    <contour>
      <point x="143" y="734" type="curve" smooth="yes"/>
      <point x="131" y="734" type="line" smooth="yes"/>
      <point x="100.333" y="734"/>
      <point x="66" y="722.333"/>
      <point x="66" y="701" type="curve" smooth="yes"/>
      <point x="66" y="683.667"/>
      <point x="30" y="682"/>
      <point x="30" y="706" type="curve" smooth="yes"/>
      <point x="30" y="730"/>
      <point x="68.3333" y="767"/>
      <point x="127" y="767" type="curve" smooth="yes"/>
      <point x="139" y="767" type="line" smooth="yes"/>
      <point x="215" y="767"/>
      <point x="243" y="744"/>
      <point x="243" y="684" type="curve" smooth="yes"/>
      <point x="243" y="652"/>
      <point x="199.667" y="623.333"/>
      <point x="173" y="618" type="curve"/>
      <point x="201" y="614"/>
      <point x="243" y="582"/>
      <point x="243" y="534" type="curve" smooth="yes"/>
      <point x="243" y="486"/>
      <point x="215" y="461"/>
      <point x="139" y="461" type="curve" smooth="yes"/>
      <point x="127" y="461" type="line" smooth="yes"/>
      <point x="68.3333" y="461"/>
      <point x="30" y="498"/>
      <point x="30" y="522" type="curve" smooth="yes"/>
      <point x="30" y="546"/>
      <point x="66" y="544.333"/>
      <point x="66" y="527" type="curve" smooth="yes"/>
      <point x="66" y="505.667"/>
      <point x="100.333" y="494"/>
      <point x="131" y="494" type="curve" smooth="yes"/>
      <point x="143" y="494" type="line" smooth="yes"/>
      <point x="204.333" y="494"/>
      <point x="211" y="512.5"/>
      <point x="211" y="542.5" type="curve" smooth="yes"/>
      <point x="211" y="572.5"/>
      <point x="160.333" y="601"/>
      <point x="119" y="601" type="curve" smooth="yes"/>
      <point x="95" y="601"/>
      <point x="95" y="634"/>
      <point x="119" y="634" type="curve" smooth="yes"/>
      <point x="161.667" y="634"/>
      <point x="211" y="656.333"/>
      <point x="211" y="687" type="curve"/>
      <point x="210.333" y="710.333"/>
      <point x="200" y="724.667"/>
      <point x="180" y="730" type="curve" smooth="yes"/>
      <point x="170.667" y="732.667"/>
      <point x="158.333" y="734"/>
    </contour>
  </outline>
</glyph>
<glyph name="acute" format="1">
  <advance width="212"/>
  <unicode hex="00B4"/>
  <outline>
    <contour>
      <point x="171" y="638" type="curve"/>
      <point x="75" y="523" type="line"/>
      <point x="45.9722" y="491.553"/>
      <point x="21.3393" y="526.757"/>
      <point x="42" y="550" type="curve"/>
      <point x="138" y="665" type="line"/>
      <point x="167.028" y="696.447"/>
      <point x="191.661" y="661.243"/>
    </contour>
  </outline>
</glyph>
<glyph name="uni00B5" format="1">
  <advance width="565"/>
  <unicode hex="00B5"/>
  <outline>
    <contour>
      <point x="449" y="228" type="curve" smooth="yes"/>
      <point x="449" y="438" type="line" smooth="yes"/>
      <point x="449" y="478"/>
      <point x="491" y="478"/>
      <point x="491" y="438" type="curve" smooth="yes"/>
      <point x="491" y="24" type="line" smooth="yes"/>
      <point x="491" y="-17.3333"/>
      <point x="449" y="-17.3333"/>
      <point x="449" y="24" type="curve" smooth="yes"/>
      <point x="449" y="72" type="line"/>
      <point x="411.667" y="24"/>
      <point x="356.333" y="0"/>
      <point x="283" y="0" type="curve" smooth="yes"/>
      <point x="209.667" y="0"/>
      <point x="154.333" y="24"/>
      <point x="117" y="72" type="curve"/>
      <point x="117" y="-172" type="line" smooth="yes"/>
      <point x="117" y="-192.667"/>
      <point x="109.333" y="-203"/>
      <point x="94" y="-203" type="curve" smooth="yes"/>
      <point x="81.3333" y="-203"/>
      <point x="75" y="-192.667"/>
      <point x="75" y="-172" type="curve" smooth="yes"/>
      <point x="75" y="438" type="line" smooth="yes"/>
      <point x="75" y="478"/>
      <point x="117" y="478"/>
      <point x="117" y="438" type="curve" smooth="yes"/>
      <point x="117" y="228" type="line" smooth="yes"/>
      <point x="117" y="108"/>
      <point x="176.5" y="42"/>
      <point x="282.5" y="42" type="curve" smooth="yes"/>
      <point x="388.5" y="42"/>
      <point x="449" y="108"/>
    </contour>
  </outline>
</glyph>
<glyph name="paragraph" format="1">
  <advance width="447"/>
  <unicode hex="00B6"/>
  <outline>
    <contour>
      <point x="358" y="20" type="line" smooth="yes"/>
      <point x="358" y="-16"/>
      <point x="316" y="-16"/>
      <point x="316" y="20" type="curve" smooth="yes"/>
      <point x="316" y="594" type="line"/>
      <point x="285" y="594" type="line"/>
      <point x="285" y="20" type="line" smooth="yes"/>
      <point x="285" y="-16"/>
      <point x="243" y="-16"/>
      <point x="243" y="20" type="curve" smooth="yes"/>
      <point x="243" y="337" type="line"/>
      <point x="201" y="337" type="line" smooth="yes"/>
      <point x="91" y="337"/>
      <point x="36" y="388.667"/>
      <point x="36" y="492" type="curve" smooth="yes"/>
      <point x="36" y="598.667"/>
      <point x="105.667" y="636"/>
      <point x="243" y="636" type="curve" smooth="yes"/>
      <point x="358" y="636" type="line"/>
    </contour>
  </outline>
</glyph>
<glyph name="periodcentered" format="1">
  <advance width="232"/>
  <unicode hex="00B7"/>
  <outline>
    <contour>
      <point x="85" y="362" type="curve"/>
      <point x="37.902" y="391.739"/>
      <point x="111.902" y="447.516"/>
      <point x="147" y="412" type="curve"/>
      <point x="194.098" y="382.261"/>
      <point x="120.098" y="326.484"/>
    </contour>
  </outline>
</glyph>
<glyph name="cedilla" format="1">
  <advance width="242"/>
  <unicode hex="00B8"/>
  <outline>
    <contour>
      <point x="42" y="-120" type="curve" smooth="yes"/>
      <point x="42" y="-111.333"/>
      <point x="45.3333" y="-107"/>
      <point x="52" y="-107" type="curve" smooth="yes"/>
      <point x="56" y="-107"/>
      <point x="95.3333" y="-125"/>
      <point x="118" y="-125" type="curve" smooth="yes"/>
      <point x="149.333" y="-125"/>
      <point x="165" y="-114.667"/>
      <point x="165" y="-94" type="curve"/>
      <point x="164.333" y="-80"/>
      <point x="152.667" y="-65.6667"/>
      <point x="130" y="-51" type="curve" smooth="yes"/>
      <point x="114" y="-40.3333"/>
      <point x="96" y="-15.6667"/>
      <point x="96" y="15" type="curve"/>
      <point x="138" y="15" type="line"/>
      <point x="138" y="-6.33333"/>
      <point x="149.5" y="-23.3333"/>
      <point x="172.5" y="-36" type="curve" smooth="yes"/>
      <point x="218.5" y="-61.3333"/>
      <point x="215.667" y="-114.833"/>
      <point x="181" y="-143.5" type="curve" smooth="yes"/>
      <point x="133.515" y="-182.766"/>
      <point x="42" y="-164.554"/>
    </contour>
  </outline>
</glyph>
<glyph name="onesuperior" format="1">
  <advance width="138"/>
  <unicode hex="00B9"/>
  <outline>
    <contour>
      <point x="52" y="715" type="line"/>
      <point x="25" y="688" type="line" smooth="yes"/>
      <point x="19" y="681.333"/>
      <point x="12.3333" y="678"/>
      <point x="5" y="678" type="curve" smooth="yes"/>
      <point x="-5" y="678"/>
      <point x="-10" y="682.667"/>
      <point x="-10" y="692" type="curve" smooth="yes"/>
      <point x="-10" y="698"/>
      <point x="-6.66667" y="704"/>
      <point x="0" y="710" type="curve" smooth="yes"/>
      <point x="49" y="760" type="line" smooth="yes"/>
      <point x="55.6667" y="766.667"/>
      <point x="62" y="770"/>
      <point x="68" y="770" type="curve" smooth="yes"/>
      <point x="80" y="770"/>
      <point x="86" y="763.667"/>
      <point x="86" y="751" type="curve" smooth="yes"/>
      <point x="86" y="480" type="line" smooth="yes"/>
      <point x="86" y="450.667"/>
      <point x="52" y="450.667"/>
      <point x="52" y="480" type="curve" smooth="yes"/>
    </contour>
  </outline>
</glyph>
<glyph name="ordmasculine" format="1">
  <advance width="376"/>
  <unicode hex="00BA"/>
  <outline>
    <contour>
      <point x="183" y="280" type="curve" smooth="yes"/>
      <point x="192" y="280" type="line" smooth="yes"/>
      <point x="240" y="280"/>
      <point x="252" y="286.333"/>
      <point x="252" y="333" type="curve" smooth="yes"/>
      <point x="252" y="377" type="line" smooth="yes"/>
      <point x="252" y="423.667"/>
      <point x="240" y="430"/>
      <point x="192" y="430" type="curve" smooth="yes"/>
      <point x="183" y="430" type="line" smooth="yes"/>
      <point x="135" y="430"/>
      <point x="124" y="423.667"/>
      <point x="124" y="377" type="curve" smooth="yes"/>
      <point x="124" y="333" type="line" smooth="yes"/>
      <point x="124" y="286.333"/>
      <point x="135" y="280"/>
    </contour>
    <contour>
      <point x="192" y="249" type="curve" smooth="yes"/>
      <point x="183" y="249" type="line" smooth="yes"/>
      <point x="115" y="249"/>
      <point x="93" y="266.333"/>
      <point x="93" y="333" type="curve" smooth="yes"/>
      <point x="93" y="377" type="line" smooth="yes"/>
      <point x="93" y="442.333"/>
      <point x="115" y="461"/>
      <point x="183" y="461" type="curve" smooth="yes"/>
      <point x="192" y="461" type="line" smooth="yes"/>
      <point x="261.333" y="461"/>
      <point x="283" y="442.333"/>
      <point x="283" y="377" type="curve" smooth="yes"/>
      <point x="283" y="333" type="line" smooth="yes"/>
      <point x="283" y="266.333"/>
      <point x="261.333" y="249"/>
    </contour>
    <contour>
      <point x="89" y="164" type="line" smooth="yes"/>
      <point x="75" y="164"/>
      <point x="68" y="170"/>
      <point x="68" y="182" type="curve" smooth="yes"/>
      <point x="68" y="193.333"/>
      <point x="74.3333" y="199"/>
      <point x="87" y="199" type="curve"/>
      <point x="87.6667" y="199"/>
      <point x="88.3333" y="199"/>
      <point x="89" y="199" type="curve"/>
      <point x="285" y="199" type="line" smooth="yes"/>
      <point x="300.333" y="199"/>
      <point x="308" y="192.667"/>
      <point x="308" y="180" type="curve" smooth="yes"/>
      <point x="308" y="169.333"/>
      <point x="300.333" y="164"/>
      <point x="285" y="164" type="curve" smooth="yes"/>
    </contour>
  </outline>
</glyph>
<glyph name="questiondown" format="1">
  <advance width="520"/>
  <unicode hex="00BF"/>
  <outline>
    <contour>
      <point x="308.5" y="475" type="curve"/>
      <point x="356.722" y="445.261"/>
      <point x="280.944" y="389.484"/>
      <point x="246.5" y="425" type="curve"/>
      <point x="198.278" y="454.739"/>
      <point x="274.056" y="510.516"/>
    </contour>
    <contour>
      <point x="256" y="176" type="line"/>
      <point x="256" y="285" type="line" smooth="yes"/>
      <point x="256" y="322.333"/>
      <point x="298" y="322.333"/>
      <point x="298" y="285" type="curve" smooth="yes"/>
      <point x="298" y="145" type="line"/>
      <point x="145" y="103" type="line" smooth="yes"/>
      <point x="109" y="92.3333"/>
      <point x="81" y="50.1667"/>
      <point x="81" y="-6.5" type="curve" smooth="yes"/>
      <point x="81" y="-63.1667"/>
      <point x="112.333" y="-123"/>
      <point x="183" y="-123" type="curve" smooth="yes"/>
      <point x="277" y="-123" type="line" smooth="yes"/>
      <point x="389.528" y="-123"/>
      <point x="442" y="-114.277"/>
      <point x="442" y="8" type="curve" smooth="yes"/>
      <point x="442" y="45.3333"/>
      <point x="485" y="45.3333"/>
      <point x="485" y="8" type="curve" smooth="yes"/>
      <point x="485" y="-65.3333"/>
      <point x="465.667" y="-113.333"/>
      <point x="427" y="-136" type="curve" smooth="yes"/>
      <point x="387" y="-160"/>
      <point x="346.333" y="-165"/>
      <point x="277" y="-165" type="curve" smooth="yes"/>
      <point x="201" y="-165" type="line" smooth="yes"/>
      <point x="86.3333" y="-165"/>
      <point x="39" y="-93"/>
      <point x="39" y="-5" type="curve" smooth="yes"/>
      <point x="39" y="83"/>
      <point x="72.3333" y="124.667"/>
      <point x="163" y="150" type="curve" smooth="yes"/>
    </contour>
  </outline>
</glyph>
<glyph name="AE" format="1">
  <advance width="846"/>
  <unicode hex="00C6"/>
  <outline>
    <contour>
      <point x="435" y="337" type="line"/>
      <point x="435" y="42" type="line"/>
      <point x="769" y="42" type="line" smooth="yes"/>
      <point x="788.333" y="42"/>
      <point x="798" y="34.3333"/>
      <point x="798" y="19" type="curve" smooth="yes"/>
      <point x="798" y="6.33333"/>
      <point x="788.333" y="0"/>
      <point x="769" y="0" type="curve" smooth="yes"/>
      <point x="413" y="0" type="line" smooth="yes"/>
      <point x="400.333" y="0"/>
      <point x="394" y="10.3333"/>
      <point x="394" y="31" type="curve" smooth="yes"/>
      <point x="394" y="204" type="line"/>
      <point x="175" y="204" type="line"/>
      <point x="52" y="5" type="line"/>
      <point x="36" y="-23"/>
      <point x="8" y="-20.3333"/>
      <point x="8" y="-3" type="curve" smooth="yes"/>
      <point x="8" y="3.66667"/>
      <point x="10.3333" y="10.6667"/>
      <point x="15" y="18" type="curve" smooth="yes"/>
      <point x="398" y="628" type="line" smooth="yes"/>
      <point x="401.333" y="633.333"/>
      <point x="406.333" y="636"/>
      <point x="413" y="636" type="curve" smooth="yes"/>
      <point x="769" y="636" type="line" smooth="yes"/>
      <point x="788.333" y="636"/>
      <point x="798" y="628.333"/>
      <point x="798" y="613" type="curve" smooth="yes"/>
      <point x="798" y="600.333"/>
      <point x="788.333" y="594"/>
      <point x="769" y="594" type="curve" smooth="yes"/>
      <point x="435" y="594" type="line"/>
      <point x="435" y="379" type="line"/>
      <point x="650" y="379" type="line" smooth="yes"/>
      <point x="670.667" y="379"/>
      <point x="681" y="371.333"/>
      <point x="681" y="356" type="curve" smooth="yes"/>
      <point x="681" y="343.333"/>
      <point x="670.667" y="337"/>
      <point x="650" y="337" type="curve" smooth="yes"/>
    </contour>
    <contour>
      <point x="394" y="246" type="line"/>
      <point x="394" y="550" type="line"/>
      <point x="203" y="246" type="line"/>
    </contour>
  </outline>
</glyph>
<glyph name="Eth" format="1">
  <advance width="600"/>
  <unicode hex="00D0"/>
  <outline>
    <contour>
      <point x="76" y="303" type="line" smooth="yes"/>
      <point x="58" y="303"/>
      <point x="49" y="310.667"/>
      <point x="49" y="326" type="curve" smooth="yes"/>
      <point x="49" y="339.333"/>
      <point x="58" y="346"/>
      <point x="76" y="346" type="curve" smooth="yes"/>
      <point x="84" y="346" type="line"/>
      <point x="84" y="605" type="line" smooth="yes"/>
      <point x="84" y="625.667"/>
      <point x="90.3333" y="636"/>
      <point x="103" y="636" type="curve" smooth="yes"/>
      <point x="321" y="636" type="line" smooth="yes"/>
      <point x="461" y="636"/>
      <point x="528" y="601"/>
      <point x="528" y="461" type="curve" smooth="yes"/>
      <point x="528" y="175" type="line" smooth="yes"/>
      <point x="528" y="35"/>
      <point x="461" y="0"/>
      <point x="321" y="0" type="curve" smooth="yes"/>
      <point x="103" y="0" type="line" smooth="yes"/>
      <point x="90.3333" y="0"/>
      <point x="84" y="10.3333"/>
      <point x="84" y="31" type="curve" smooth="yes"/>
      <point x="84" y="303" type="line"/>
    </contour>
    <contour>
      <point x="486" y="175" type="curve" smooth="yes"/>
      <point x="486" y="461" type="line" smooth="yes"/>
      <point x="486" y="583.017"/>
      <point x="432.143" y="594"/>
      <point x="321" y="594" type="curve" smooth="yes"/>
      <point x="126" y="594" type="line"/>
      <point x="126" y="346" type="line"/>
      <point x="232" y="346" type="line" smooth="yes"/>
      <point x="251.333" y="346"/>
      <point x="261" y="338.667"/>
      <point x="261" y="324" type="curve" smooth="yes"/>
      <point x="261" y="310"/>
      <point x="252" y="303"/>
      <point x="234" y="303" type="curve"/>
      <point x="233.333" y="303"/>
      <point x="232.667" y="303"/>
      <point x="232" y="303" type="curve"/>
      <point x="126" y="303" type="line"/>
      <point x="126" y="42" type="line"/>
      <point x="321" y="42" type="line" smooth="yes"/>
      <point x="432.143" y="42"/>
      <point x="486" y="52.9827"/>
    </contour>
  </outline>
</glyph>
<glyph name="ccedilla" format="1">
  <advance width="564"/>
  <unicode hex="00E7"/>
  <outline>
    <contour>
      <point x="212" y="-120" type="curve" smooth="yes"/>
      <point x="212" y="-111.333"/>
      <point x="215.333" y="-107"/>
      <point x="222" y="-107" type="curve" smooth="yes"/>
      <point x="226" y="-107"/>
      <point x="265.333" y="-125"/>
      <point x="288" y="-125" type="curve" smooth="yes"/>
      <point x="319.333" y="-125"/>
      <point x="335" y="-114.667"/>
      <point x="335" y="-94" type="curve" smooth="yes"/>
      <point x="335" y="-65.5793"/>
      <point x="275.207" y="-47.1925"/>
      <point x="267" y="0" type="curve"/>
      <point x="128.333" y="0"/>
      <point x="62" y="36.3333"/>
      <point x="62" y="175" type="curve" smooth="yes"/>
      <point x="62" y="286" type="line" smooth="yes"/>
      <point x="62" y="426"/>
      <point x="128.667" y="461"/>
      <point x="270" y="461" type="curve" smooth="yes"/>
      <point x="411" y="461" type="line"/>
      <point x="412.333" y="461"/>
      <point x="413.667" y="461"/>
      <point x="415" y="461" type="curve"/>
      <point x="455" y="461"/>
      <point x="480" y="450.333"/>
      <point x="490" y="429" type="curve" smooth="yes"/>
      <point x="511.333" y="385"/>
      <point x="513" y="324"/>
      <point x="485" y="324" type="curve" smooth="yes"/>
      <point x="471" y="324"/>
      <point x="464" y="334.667"/>
      <point x="464" y="356" type="curve" smooth="yes"/>
      <point x="464" y="398.667"/>
      <point x="449.333" y="419"/>
      <point x="404" y="419" type="curve" smooth="yes"/>
      <point x="270" y="419" type="line" smooth="yes"/>
      <point x="157.186" y="419"/>
      <point x="104" y="408.017"/>
      <point x="104" y="286" type="curve" smooth="yes"/>
      <point x="104" y="175" type="line" smooth="yes"/>
      <point x="104" y="52.9827"/>
      <point x="157.186" y="42"/>
      <point x="270" y="42" type="curve" smooth="yes"/>
      <point x="404" y="42" type="line" smooth="yes"/>
      <point x="426.667" y="42"/>
      <point x="442.333" y="47"/>
      <point x="451" y="57" type="curve" smooth="yes"/>
      <point x="459.667" y="67"/>
      <point x="464" y="82.8333"/>
      <point x="464" y="104.5" type="curve" smooth="yes"/>
      <point x="464" y="126.167"/>
      <point x="471" y="137"/>
      <point x="485" y="137" type="curve"/>
      <point x="499" y="136.333"/>
      <point x="506" y="127.333"/>
      <point x="506" y="110" type="curve" smooth="yes"/>
      <point x="506" y="48.6667"/>
      <point x="495" y="0"/>
      <point x="411" y="0" type="curve" smooth="yes"/>
      <point x="310" y="0" type="line"/>
      <point x="319.112" y="-34.1701"/>
      <point x="377" y="-40.7806"/>
      <point x="377" y="-95" type="curve" smooth="yes"/>
      <point x="377" y="-181.137"/>
      <point x="212" y="-184.137"/>
    </contour>
  </outline>
</glyph>
<glyph name="eth" format="1">
  <advance width="546"/>
  <unicode hex="00F0"/>
  <outline>
    <contour>
      <point x="148" y="593" type="curve" smooth="yes"/>
      <point x="130.667" y="593"/>
      <point x="122" y="599.667"/>
      <point x="122" y="613" type="curve" smooth="yes"/>
      <point x="122" y="628.333"/>
      <point x="130.667" y="636"/>
      <point x="148" y="636" type="curve" smooth="yes"/>
      <point x="195.333" y="636"/>
      <point x="239" y="627"/>
      <point x="279" y="609" type="curve"/>
      <point x="313" y="643" type="line" smooth="yes"/>
      <point x="338.931" y="668.931"/>
      <point x="370.333" y="642.818"/>
      <point x="343" y="613" type="curve"/>
      <point x="318" y="589" type="line"/>
      <point x="433.333" y="518.333"/>
      <point x="491" y="395.667"/>
      <point x="491" y="221" type="curve" smooth="yes"/>
      <point x="491" y="155.667"/>
      <point x="472.333" y="99.8333"/>
      <point x="435" y="53.5" type="curve" smooth="yes"/>
      <point x="397.667" y="7.16667"/>
      <point x="345.833" y="-16"/>
      <point x="279.5" y="-16" type="curve" smooth="yes"/>
      <point x="213.167" y="-16"/>
      <point x="157.833" y="5"/>
      <point x="113.5" y="47" type="curve" smooth="yes"/>
      <point x="69.1667" y="89"/>
      <point x="47" y="146.833"/>
      <point x="47" y="220.5" type="curve" smooth="yes"/>
      <point x="47" y="367.833"/>
      <point x="145.333" y="456"/>
      <point x="284" y="456" type="curve" smooth="yes"/>
      <point x="338.667" y="456"/>
      <point x="383.667" y="438.333"/>
      <point x="419" y="403" type="curve"/>
      <point x="391" y="473.667"/>
      <point x="347" y="525"/>
      <point x="287" y="557" type="curve"/>
      <point x="237" y="508" type="line" smooth="yes"/>
      <point x="212.273" y="483.273"/>
      <point x="180.428" y="505.832"/>
      <point x="208" y="538" type="curve"/>
      <point x="246" y="575" type="line"/>
      <point x="214" y="587"/>
      <point x="181.333" y="593"/>
    </contour>
    <contour>
      <point x="280" y="26" type="curve"/>
      <point x="504.229" y="25.7124"/>
      <point x="506.34" y="425.268"/>
      <point x="281" y="414" type="curve"/>
      <point x="167.667" y="414"/>
      <point x="89" y="334.5"/>
      <point x="89" y="220.5" type="curve" smooth="yes"/>
      <point x="89" y="106.5"/>
      <point x="168" y="26"/>
    </contour>
  </outline>
</glyph>
<glyph name="divide" format="1">
  <advance width="440"/>
  <unicode hex="00F7"/>
  <outline>
    <contour>
      <point x="185" y="308" type="curve"/>
      <point x="137.902" y="337.739"/>
      <point x="211.902" y="393.516"/>
      <point x="247" y="358" type="curve"/>
      <point x="294.098" y="328.261"/>
      <point x="220.098" y="272.484"/>
    </contour>
    <contour>
      <point x="185" y="103" type="curve"/>
      <point x="137.902" y="132.739"/>
      <point x="211.902" y="188.516"/>
      <point x="247" y="153" type="curve"/>
      <point x="294.098" y="123.261"/>
      <point x="220.098" y="67.4837"/>
    </contour>
    <contour>
      <point x="96" y="209" type="line"/>
      <point x="95.3333" y="209"/>
      <point x="94.6667" y="209"/>
      <point x="94" y="209" type="curve"/>
      <point x="78" y="209"/>
      <point x="70" y="216"/>
      <point x="70" y="230" type="curve" smooth="yes"/>
      <point x="70" y="244.667"/>
      <point x="78.6667" y="252"/>
      <point x="96" y="252" type="curve" smooth="yes"/>
      <point x="341" y="252" type="line" smooth="yes"/>
      <point x="360.333" y="252"/>
      <point x="370" y="244.333"/>
      <point x="370" y="229" type="curve" smooth="yes"/>
      <point x="370" y="215.667"/>
      <point x="360.333" y="209"/>
      <point x="341" y="209" type="curve" smooth="yes"/>
    </contour>
  </outline>
</glyph>
<glyph name="Hbar" format="1">
  <advance width="614"/>
  <unicode hex="0126"/>
  <outline>
    <contour>
      <point x="53" y="508" type="line" smooth="yes"/>
      <point x="35.6667" y="508"/>
      <point x="27" y="515.333"/>
      <point x="27" y="530" type="curve" smooth="yes"/>
      <point x="27" y="544"/>
      <point x="35" y="551"/>
      <point x="51" y="551" type="curve"/>
      <point x="51.6667" y="551"/>
      <point x="52.3333" y="551"/>
      <point x="53" y="551" type="curve"/>
      <point x="85" y="551" type="line"/>
      <point x="85" y="612" type="line" smooth="yes"/>
      <point x="85" y="632.667"/>
      <point x="91.3333" y="643"/>
      <point x="104" y="643" type="curve" smooth="yes"/>
      <point x="119.333" y="643"/>
      <point x="127" y="632.667"/>
      <point x="127" y="612" type="curve" smooth="yes"/>
      <point x="127" y="551" type="line"/>
      <point x="487" y="551" type="line"/>
      <point x="487" y="612" type="line" smooth="yes"/>
      <point x="487" y="653.333"/>
      <point x="529" y="653.333"/>
      <point x="529" y="612" type="curve" smooth="yes"/>
      <point x="529" y="551" type="line"/>
      <point x="558" y="551" type="line" smooth="yes"/>
      <point x="577.333" y="551"/>
      <point x="587" y="543.333"/>
      <point x="587" y="528" type="curve" smooth="yes"/>
      <point x="587" y="514.667"/>
      <point x="577.333" y="508"/>
      <point x="558" y="508" type="curve" smooth="yes"/>
      <point x="529" y="508" type="line"/>
      <point x="529" y="23" type="line" smooth="yes"/>
      <point x="529" y="-17"/>
      <point x="487" y="-17"/>
      <point x="487" y="23" type="curve" smooth="yes"/>
      <point x="487" y="322" type="line"/>
      <point x="127" y="322" type="line"/>
      <point x="127" y="23" type="line" smooth="yes"/>
      <point x="127" y="-17"/>
      <point x="85" y="-17"/>
      <point x="85" y="23" type="curve" smooth="yes"/>
      <point x="85" y="508" type="line"/>
    </contour>
    <contour>
      <point x="487" y="508" type="line"/>
      <point x="127" y="508" type="line"/>
      <point x="127" y="364" type="line"/>
      <point x="487" y="364" type="line"/>
    </contour>
  </outline>
</glyph>
<glyph name="dotlessi" format="1">
  <advance width="190"/>
  <unicode hex="0131"/>
  <outline>
    <contour>
      <point x="116" y="20" type="line" smooth="yes"/>
      <point x="116" y="-16"/>
      <point x="74" y="-16"/>
      <point x="74" y="20" type="curve" smooth="yes"/>
      <point x="74" y="440" type="line" smooth="yes"/>
      <point x="74" y="477.333"/>
      <point x="116" y="477.333"/>
      <point x="116" y="440" type="curve" smooth="yes"/>
    </contour>
  </outline>
</glyph>
<glyph name="kgreenlandic" format="1">
  <advance width="538"/>
  <unicode hex="0138"/>
  <outline>
    <contour>
      <point x="177" y="210" type="curve" smooth="yes"/>
      <point x="116" y="210" type="line"/>
      <point x="116" y="20" type="line" smooth="yes"/>
      <point x="116" y="-16"/>
      <point x="74" y="-16"/>
      <point x="74" y="20" type="curve" smooth="yes"/>
      <point x="74" y="440" type="line" smooth="yes"/>
      <point x="74" y="477.333"/>
      <point x="116" y="477.333"/>
      <point x="116" y="440" type="curve" smooth="yes"/>
      <point x="116" y="252" type="line"/>
      <point x="227" y="252" type="line" smooth="yes"/>
      <point x="286.308" y="252"/>
      <point x="310.183" y="389.554"/>
      <point x="397.5" y="446.5" type="curve" smooth="yes"/>
      <point x="443.5" y="476.5"/>
      <point x="505" y="476"/>
      <point x="505" y="448" type="curve" smooth="yes"/>
      <point x="505" y="434"/>
      <point x="494.5" y="427"/>
      <point x="473.5" y="427" type="curve" smooth="yes"/>
      <point x="431.5" y="427"/>
      <point x="391.667" y="391.667"/>
      <point x="369" y="353" type="curve" smooth="yes"/>
      <point x="333.667" y="292.333"/>
      <point x="306.333" y="253"/>
      <point x="287" y="235" type="curve"/>
      <point x="349.667" y="212.333"/>
      <point x="394.667" y="158.667"/>
      <point x="408" y="116" type="curve" smooth="yes"/>
      <point x="426" y="62"/>
      <point x="448" y="35"/>
      <point x="474" y="35" type="curve" smooth="yes"/>
      <point x="494.667" y="35"/>
      <point x="505" y="28"/>
      <point x="505" y="14" type="curve" smooth="yes"/>
      <point x="505" y="-14"/>
      <point x="444.5" y="-14.5"/>
      <point x="414.5" y="15.5" type="curve" smooth="yes"/>
      <point x="358.035" y="71.9654"/>
      <point x="366.599" y="210"/>
    </contour>
  </outline>
</glyph>
<glyph name="Lslash" format="1">
  <advance width="501"/>
  <unicode hex="0141"/>
  <outline>
    <contour>
      <point x="190" y="410" type="line"/>
      <point x="205.583" y="415.194"/>
      <point x="227" y="412.444"/>
      <point x="227" y="392" type="curve" smooth="yes"/>
      <point x="227" y="383.333"/>
      <point x="219.667" y="376"/>
      <point x="205" y="370" type="curve"/>
      <point x="132" y="334" type="line"/>
      <point x="132" y="42" type="line"/>
      <point x="450" y="42" type="line" smooth="yes"/>
      <point x="487.333" y="42"/>
      <point x="487.333" y="0"/>
      <point x="450" y="0" type="curve" smooth="yes"/>
      <point x="109" y="0" type="line" smooth="yes"/>
      <point x="96.3333" y="0"/>
      <point x="90" y="10.3333"/>
      <point x="90" y="31" type="curve" smooth="yes"/>
      <point x="90" y="313" type="line"/>
      <point x="35" y="286" type="line" smooth="yes"/>
      <point x="30.3333" y="284"/>
      <point x="26" y="283"/>
      <point x="22" y="283" type="curve" smooth="yes"/>
      <point x="8" y="283"/>
      <point x="1" y="290.667"/>
      <point x="1" y="306" type="curve" smooth="yes"/>
      <point x="1" y="312.667"/>
      <point x="7.33333" y="319.333"/>
      <point x="20" y="326" type="curve" smooth="yes"/>
      <point x="90" y="361" type="line"/>
      <point x="90" y="615" type="line" smooth="yes"/>
      <point x="90" y="652.333"/>
      <point x="132" y="652.333"/>
      <point x="132" y="615" type="curve" smooth="yes"/>
      <point x="132" y="381" type="line"/>
    </contour>
  </outline>
</glyph>
<glyph name="Eng" format="1">
  <advance width="612"/>
  <unicode hex="014A"/>
  <outline>
    <contour>
      <point x="486" y="84" type="line"/>
      <point x="486" y="612" type="line" smooth="yes"/>
      <point x="486" y="653.333"/>
      <point x="528" y="653.333"/>
      <point x="528" y="612" type="curve" smooth="yes"/>
      <point x="528" y="0" type="line" smooth="yes"/>
      <point x="528" y="-74.6667"/>
      <point x="508.667" y="-123.333"/>
      <point x="470" y="-146" type="curve" smooth="yes"/>
      <point x="430" y="-170"/>
      <point x="389.333" y="-175"/>
      <point x="320" y="-175" type="curve" smooth="yes"/>
      <point x="278.667" y="-175"/>
      <point x="278.667" y="-133"/>
      <point x="320" y="-133" type="curve" smooth="yes"/>
      <point x="432.814" y="-133"/>
      <point x="486" y="-122.017"/>
      <point x="486" y="0" type="curve" smooth="yes"/>
      <point x="486" y="9" type="line"/>
      <point x="126" y="557" type="line"/>
      <point x="126" y="23" type="line" smooth="yes"/>
      <point x="126" y="-17"/>
      <point x="84" y="-17"/>
      <point x="84" y="23" type="curve" smooth="yes"/>
      <point x="84" y="612" type="line" smooth="yes"/>
      <point x="84" y="632.667"/>
      <point x="90.3333" y="643"/>
      <point x="103" y="643" type="curve" smooth="yes"/>
      <point x="113" y="643"/>
      <point x="121.667" y="637.333"/>
      <point x="129" y="626" type="curve" smooth="yes"/>
    </contour>
  </outline>
</glyph>
<glyph name="eng" format="1">
  <advance width="589"/>
  <unicode hex="014B"/>
  <outline>
    <contour>
      <point x="282" y="419" type="line" smooth="yes"/>
      <point x="175.333" y="419"/>
      <point x="116" y="352"/>
      <point x="116" y="232" type="curve" smooth="yes"/>
      <point x="116" y="23" type="line" smooth="yes"/>
      <point x="116" y="-17"/>
      <point x="74" y="-17"/>
      <point x="74" y="23" type="curve" smooth="yes"/>
      <point x="74" y="437" type="line" smooth="yes"/>
      <point x="74" y="457.667"/>
      <point x="80.3333" y="468"/>
      <point x="93" y="468" type="curve" smooth="yes"/>
      <point x="108.333" y="468"/>
      <point x="116" y="457.667"/>
      <point x="116" y="437" type="curve" smooth="yes"/>
      <point x="116" y="389" type="line"/>
      <point x="153.333" y="437"/>
      <point x="208.667" y="461"/>
      <point x="282" y="461" type="curve" smooth="yes"/>
      <point x="311" y="461" type="line" smooth="yes"/>
      <point x="451" y="461"/>
      <point x="518" y="426"/>
      <point x="518" y="286" type="curve" smooth="yes"/>
      <point x="518" y="0" type="line" smooth="yes"/>
      <point x="518" y="-74.6667"/>
      <point x="498.667" y="-123.333"/>
      <point x="460" y="-146" type="curve" smooth="yes"/>
      <point x="420" y="-170"/>
      <point x="379.333" y="-175"/>
      <point x="310" y="-175" type="curve" smooth="yes"/>
      <point x="268.667" y="-175"/>
      <point x="268.667" y="-133"/>
      <point x="310" y="-133" type="curve" smooth="yes"/>
      <point x="422.814" y="-133"/>
      <point x="476" y="-122.017"/>
      <point x="476" y="0" type="curve" smooth="yes"/>
      <point x="476" y="286" type="line" smooth="yes"/>
      <point x="476" y="408.017"/>
      <point x="422.143" y="419"/>
      <point x="311" y="419" type="curve" smooth="yes"/>
    </contour>
  </outline>
</glyph>
